<?xml version="1.0" standalone="no"?><!DOCTYPE svg PUBLIC "-//W3C//DTD SVG 1.1//EN" "http://www.w3.org/Graphics/SVG/1.1/DTD/svg11.dtd"><svg class="icon" width="200px" height="200.00px" viewBox="0 0 1024 1024" version="1.1" xmlns="http://www.w3.org/2000/svg"><path d="M768 307.2H256a153.6 153.6 0 0 0-153.6 153.6v102.4a153.6 153.6 0 0 0 153.6 153.6h512a153.6 153.6 0 0 0 153.6-153.6v-102.4a153.6 153.6 0 0 0-153.6-153.6z m102.4 256a102.4 102.4 0 0 1-102.4 102.4H256a102.4 102.4 0 0 1-102.4-102.4v-102.4a102.4 102.4 0 0 1 102.4-102.4h512a102.4 102.4 0 0 1 102.4 102.4zM307.2 563.2h-51.2v-128a25.6 25.6 0 0 0-51.2 0v153.6a25.6 25.6 0 0 0 25.6 25.6h76.8a25.6 25.6 0 0 0 0-51.2zM456.192 410.88a25.6 25.6 0 0 0-32.512 16.128l-26.88 80.896-26.88-80.896a25.6 25.6 0 1 0-48.64 16.384l51.2 153.6a25.6 25.6 0 0 0 48.64 0l51.2-153.6a25.6 25.6 0 0 0-16.128-32.512zM486.4 588.8m-25.6 0a25.6 25.6 0 1 0 51.2 0 25.6 25.6 0 1 0-51.2 0ZM793.6 460.8a25.6 25.6 0 0 0 0-51.2h-76.8a25.6 25.6 0 0 0-25.6 25.6v76.8a25.6 25.6 0 0 0 25.6 25.6h51.2v25.6h-51.2a25.6 25.6 0 0 0 0 51.2h76.8a25.6 25.6 0 0 0 25.6-25.6v-76.8a25.6 25.6 0 0 0-25.6-25.6h-51.2v-25.6zM640 409.6h-76.8a25.6 25.6 0 0 0-25.6 25.6v153.6a25.6 25.6 0 0 0 25.6 25.6h76.8a25.6 25.6 0 0 0 25.6-25.6v-153.6a25.6 25.6 0 0 0-25.6-25.6z m-25.6 51.2v102.4h-25.6v-102.4z" /></svg>