<?xml version="1.0" standalone="no"?><!DOCTYPE svg PUBLIC "-//W3C//DTD SVG 1.1//EN" "http://www.w3.org/Graphics/SVG/1.1/DTD/svg11.dtd"><svg t="1728222040068" class="icon" viewBox="0 0 1024 1024" version="1.1" xmlns="http://www.w3.org/2000/svg" p-id="13678" xmlns:xlink="http://www.w3.org/1999/xlink" width="200" height="200"><path d="M412.76 837.51H226.2c-21.7 0-39.35-17.65-39.35-39.35V611.5c0-10.91 8.84-19.76 19.76-19.76s19.76 8.84 19.76 19.76V798h186.39c10.91 0 19.76 8.85 19.76 19.76 0 10.9-8.85 19.75-19.76 19.75z m389.34 0H617.22c-10.91 0-19.76-8.84-19.76-19.76 0-10.91 8.84-19.76 19.76-19.76h184.7V611.17c0-10.91 8.85-19.76 19.76-19.76 10.91 0 19.76 8.84 19.76 19.76v186.99c0.01 21.7-17.65 39.35-39.34 39.35z m19.59-409.04c-10.91 0-19.76-8.84-19.76-19.76V222.44H615.12c-10.91 0-19.76-8.84-19.76-19.76 0-10.91 8.84-19.76 19.76-19.76H802.1c21.7 0 39.35 17.65 39.35 39.35v186.44c0 10.91-8.85 19.76-19.76 19.76z m-19.58-206.03h0.01-0.01z m-595.5 206.35c-10.91 0-19.76-8.85-19.76-19.76V222.27c0-21.7 17.65-39.35 39.35-39.35h186.59c10.91 0 19.76 8.84 19.76 19.76 0 10.91-8.84 19.76-19.76 19.76H226.37v186.6c0 10.91-8.84 19.75-19.76 19.75z m329.66 99.67c0 3 2.43 5.43 5.43 5.43h108.04c3 0 5.43 2.43 5.43 5.43v39.58c0 3-2.43 5.43-5.43 5.43H541.7c-3 0-5.43 2.43-5.43 5.43V692.4c0 3-2.43 5.43-5.43 5.43h-48.59c-3 0-5.43-2.43-5.43-5.43V589.76c0-3-2.43-5.43-5.43-5.43H365.15c-3 0-5.43-2.43-5.43-5.43v-39.58c0-3 2.43-5.43 5.43-5.43h106.24c3 0 5.43-2.43 5.43-5.43v-0.19c0-1.06-0.31-2.1-0.89-2.98-7.47-11.33-52.6-75.26-135.34-191.8-2.55-3.6 0.02-8.58 4.43-8.58h60.44c1.82 0 3.51 0.91 4.52 2.42l88.2 132.3c0.18 0.27 0.38 0.51 0.6 0.74 1.63 1.67 3.12 3.6 4.49 5.77 2.09 3.3 6.92 3.32 9.08 0.07l0.25-0.37c0.17-0.26 0.37-0.51 0.59-0.73 2.1-2.2 3.71-4.89 4.86-8.06 0.15-0.41 0.34-0.8 0.57-1.16l84.51-128.52c1-1.52 2.71-2.45 4.54-2.45h65.63c4.45 0 7.01 5.05 4.38 8.64l-140.35 191.7c-0.69 0.92-1.06 2.04-1.06 3.2z m0 0" fill="#3E3A39" p-id="13679"></path></svg>