<svg xmlns="http://www.w3.org/2000/svg" fill="none" viewBox="0 0 1101 1024" height="1024" width="1101">
<rect fill="white" height="1024" width="1100.6"></rect>
<path fill="#301924" d="M834.321 690.732C857.65 693.246 880.803 689.144 903.382 683.676C910.615 689.188 906.646 699.773 903.074 706.388C898.135 717.016 888.3 725.218 876.349 726.1C862.898 727.644 844.905 728.57 836.482 715.649C834.321 707.534 835.027 698.979 834.321 690.732ZM849.977 696.906C840.98 695.406 837.32 698.582 839.04 706.476C841.069 724.557 863.648 721.249 876.658 720.323C886.272 720.455 891.564 711.547 897.208 705.241L898.664 705.02C899.325 699.772 899.987 694.524 900.648 689.321C884.111 693.775 867.176 697.038 849.977 696.906Z"></path>
<path fill="#301924" d="M186.222 815.183C197.203 811.787 208.846 813.551 220.047 814.389C254.975 817.873 290.123 819.593 324.874 824.532C337.487 826.208 349.747 832.559 356.45 843.672C359.14 855.006 359.316 867.001 357.464 878.467C353.671 888.302 342.029 884.906 333.915 885.832C260.443 885.038 186.707 887.684 113.369 884.024C108.121 874.498 109.841 861.841 112.883 851.742C126.069 843.099 142.828 849.229 157.513 846.715C162.144 832.559 170.964 819.152 186.222 815.183ZM185.693 823.562C176.388 826.385 170.831 834.984 165.451 842.437C176.3 838.38 187.016 833.926 197.424 828.722C234.6 826.208 271.116 835.91 308.072 838.38L311.732 840.717C325.139 841.247 338.369 843.452 351.599 845.568C340.662 832.735 323.507 830.839 307.851 829.295C267.235 825.944 226.53 820.166 185.693 823.562ZM173.918 847.156C196.498 849.008 219.121 846.935 241.745 847.509C265.074 847.288 288.535 849.317 311.732 845.921C306.352 843.452 300.707 842.173 294.753 842.084C268.161 840.364 241.833 835.778 215.24 833.617C200.246 832.735 186.311 839.482 173.918 847.156ZM118.881 853.286C118.176 861.753 117.602 870.264 117.117 878.82C195.263 878.732 273.409 879.746 351.555 878.555C351.599 869.956 351.643 861.4 351.687 852.845C295.327 855.491 238.79 851.963 182.474 854.829C182.209 861.665 181.856 868.456 181.371 875.336C178.284 868.501 175.771 861.444 172.684 854.697C155.396 848.788 136.654 852.051 118.881 853.286Z"></path>
<path fill="#FACFD1" d="M214.226 549.037C227.412 548.949 238.922 555.785 250.962 560.195C268.293 567.163 286.727 571.044 303.926 578.364L298.017 577.306C269.043 571.484 241.612 559.798 214.226 549.037Z"></path>
<path fill="#CEC3CA" d="M848.257 551.507C854.122 559.578 850.859 569.544 842.788 574.704C834.586 577.085 825.986 577.262 817.563 577.791C826.956 571.926 837.937 569.853 848.477 566.986C848.433 563.106 848.301 555.388 848.257 551.507Z"></path>
<path fill="#CEC3CA" d="M343.881 709.166C478.343 715.958 612.981 714.017 747.487 710.93C750.53 723.411 754.014 735.847 756.969 748.371L756.528 750.312C750.354 753.708 741.578 754.634 738.094 761.469C735.139 774.92 745.944 791.061 734.478 802.439C703.74 841.6 650.511 846.495 604.426 848.788C604.338 849.582 604.205 851.125 604.117 851.919C616.73 857.035 630.886 853.198 644.028 852.536C628.02 855.094 611.747 857.299 595.518 855.579L594.944 853.419C589.211 847.73 579.686 850.817 572.453 850.155C526.721 851.037 480.372 851.213 435.477 841.467C405.489 834.543 373.869 821.578 356.89 794.368C340.794 769.099 341.279 737.875 343.881 709.166Z"></path>
<path fill="#301A26" d="M339.559 424.983C334.708 375.458 382.204 329.991 431.023 333.519C448.663 334.401 461.497 350.409 463.172 367.212C466.259 397.641 455.455 430.496 432.037 450.87C410.781 465.467 380.087 469.216 358.213 453.957C348.159 447.342 342.47 436.317 339.559 424.983ZM408.753 410.739C419.866 410.871 435.477 403.109 431.288 389.879C420.395 392.437 409.987 398.479 408.753 410.739Z"></path>
<path fill="#FEFDFE" d="M408.753 410.739C409.987 398.479 420.395 392.437 431.288 389.879C435.478 403.109 419.866 410.871 408.753 410.739Z"></path>
<path fill="#FEFDFE" d="M644.734 402.006C646.542 400.286 650.114 396.847 651.878 395.083C659.596 399.934 666.211 406.328 670.091 414.707C659.022 417.177 651.084 410.077 644.734 402.006Z"></path>
<path fill="#F8CFCF" d="M298.193 436.67C309.703 427.144 325.271 426.13 339.559 424.983C342.47 436.317 348.159 447.342 358.214 453.957C380.087 469.216 410.781 465.467 432.038 450.87C429.788 467.937 429.833 489.105 414.486 500.351C394.949 513.448 370.694 518.035 347.497 518.035C328.666 516.624 307.454 514.154 293.562 499.91C279.053 481.917 279.759 451.84 298.193 436.67ZM307.145 455.148C306.572 462.027 309.571 464.806 316.098 463.439C325.712 463.924 328.093 453.516 330.254 446.372C322.051 447.607 312.79 448.136 307.145 455.148Z"></path>
<path fill="#E0CBC8" d="M727.731 157.25C745.944 152.31 765.834 149.179 784.091 155.486C821.003 167.834 844.068 210.126 836.526 247.92C835.027 256.872 832.425 265.56 829.514 274.116C836.438 248.978 841.377 220.357 827.354 196.631C817.563 175.728 798.291 160.028 775.844 154.78C759.836 151.649 743.431 154.118 727.995 158.705L727.731 157.25Z"></path>
<path fill="#E0CBC8" d="M869.866 660.082C898.002 651.615 925.697 641.868 953.657 632.828C951.805 666.476 948.277 700.037 942.985 733.288C941.662 744.093 935.002 752.957 928.652 761.38C879.171 762.262 829.559 764.203 780.122 761.336C766.098 762.836 764.246 745.989 760.586 736.287C756.925 722.043 753.75 707.622 751.501 693.113C751.942 694.26 752.868 696.597 753.353 697.744C765.26 711.547 786.34 710.841 801.158 702.506C812.933 695.009 807.464 679.751 806.229 668.593L807.552 661.096C813.374 672.562 816.24 685.175 818.092 697.832C825.369 691.217 832.778 684.646 840.187 678.163C838.246 676.399 834.454 672.871 832.557 671.107C834.277 668.77 837.717 664.095 839.437 661.758C845.876 662.551 852.402 662.772 858.841 661.978C860.032 661.846 862.501 661.625 863.736 661.493C865.236 661.14 868.323 660.435 869.866 660.082ZM834.321 690.732C835.027 698.978 834.321 707.534 836.482 715.648C844.905 728.57 862.898 727.644 876.349 726.1C888.3 725.218 898.135 717.015 903.074 706.387C906.646 699.772 910.615 689.188 903.383 683.675C880.803 689.144 857.65 693.245 834.321 690.732Z"></path>
<path fill="#B97763" d="M849.977 696.906C867.176 697.038 884.11 693.775 900.648 689.321C899.987 694.524 899.325 699.772 898.664 705.02L897.208 705.241C880.23 708.46 862.898 708.019 845.743 706.873C846.802 704.359 848.918 699.42 849.977 696.906Z"></path>
<path fill="#EFEEEE" d="M421.542 845.171C478.255 858.93 537.57 859.107 595.518 855.579C611.747 857.299 628.02 855.094 644.028 852.536C654.171 851.081 664.358 849.581 674.546 848.258C672.958 857.96 678.735 872.028 668.901 878.643C662.065 881.069 654.656 880.892 647.468 881.245C580.391 881.598 513.315 881.598 446.238 880.892C438.388 879.922 428.025 881.025 423.35 873.219C421.321 864.002 421.851 854.476 421.542 845.171Z"></path>
<path fill="#2F1724" d="M239.275 225.782C235.967 176.654 281.876 133.039 330.122 134.141C356.802 132.554 384.189 144.417 399.271 166.864C442.269 153.06 487.604 148.827 532.542 148.165C572.541 148.209 612.893 150.061 651.922 159.499C646.806 160.734 641.735 161.968 636.619 163.203C560.987 153.192 482.532 151.076 408.4 171.935C366.681 183.313 332.503 213.213 308.336 248.229C275.305 295.063 256.606 350.85 248.624 407.211C245.934 437.728 246.331 471.95 264.853 497.793C304.72 536.998 367.916 536.381 408.488 574.527C418.852 591.109 425.555 612.586 417.705 631.505C410.164 644.647 396.272 652.232 385.159 661.978C413.956 652.806 448.752 646.543 474.065 667.447C483.767 652.232 495.542 635.474 514.637 632.122C535.938 626.654 556.401 638.782 570.998 653.247C577.128 644.912 582.287 633.886 593.136 631.02C607.866 627.58 623.124 630.535 638.03 628.55C645.748 611.439 650.555 591.991 665.593 579.334C707.709 546.083 769.317 557.108 809.14 520.108C837.981 489.061 832.822 442.535 829.69 403.683C832.116 400.331 834.542 396.979 837.011 393.672C841.333 437.155 846.713 486.238 819.459 523.856C841.024 532.323 861.266 547.494 868.014 570.647C881.508 567.207 897.076 561.959 902.897 548.023C907.351 530.868 891.607 508.818 907.484 495.014C920.273 483.504 938.354 489.414 953.524 490.56C953.657 486.547 953.833 478.477 953.921 474.464C955.641 473.361 959.081 471.112 960.801 470.01C965.872 479.227 958.684 486.988 954.362 494.882C962.124 493.912 969.93 493.118 977.78 492.457C974.781 495.676 972.796 501.762 967.416 501.189C949.026 501.1 929.181 490.604 911.717 499.733C902.147 513.889 916.833 532.235 910.923 547.935C905.367 566.501 885.036 574.792 867.529 577.703C868.631 585.729 869.16 593.888 869.249 602.046C897.958 604.913 926.799 606.412 955.597 608.132C964.726 608.529 977.383 611.925 976.589 623.479C974.251 629.873 966.578 630.623 961.506 633.842C961.242 674.988 950.349 715.516 953.304 756.706C951.981 758.029 949.291 760.631 947.968 761.91C947.659 757.941 946.997 749.915 946.645 745.946C943.91 752.825 941.441 759.881 939.148 766.981C933.9 767.202 928.696 767.466 923.492 767.775C924.771 766.143 927.373 762.968 928.652 761.381C935.002 752.958 941.661 744.093 942.984 733.289C948.276 700.037 951.804 666.477 953.657 632.828C925.697 641.869 898.002 651.615 869.866 660.082C866.735 658.142 863.604 656.245 860.517 654.305C898.619 648.484 933.988 631.814 970.282 619.51C963.8 616.996 956.7 613.733 949.996 617.525C913.878 631.77 876.128 642.398 837.276 645.22C839.216 649.278 841.201 653.335 843.141 657.392C847.683 657.921 856.812 658.935 861.355 659.421C860.693 660.082 859.458 661.317 858.841 661.978C852.402 662.772 845.875 662.552 839.437 661.758C829.999 637.326 814.432 615.761 795.072 598.253C780.342 595.431 765.392 599.4 751.015 602.311C771.434 622.685 792.955 642.442 806.229 668.594C807.464 679.751 812.932 695.01 801.158 702.507C786.34 710.842 765.26 711.547 753.353 697.744C768.744 700.699 787.927 705.726 800.099 692.364C803.451 677.017 795.689 662.375 787.354 650.115C776.329 633.49 761.467 619.863 745.591 608C723.144 615.761 696.728 619.863 682.616 641.295C687.687 644.956 692.759 648.616 697.83 652.32C699.198 643.589 695.978 632.034 704.534 626.301C716.661 617.922 731.788 616.379 745.767 613.027C742.107 639.84 745.106 666.962 751.501 693.113C753.75 707.622 756.925 722.043 760.585 736.288C759.703 739.331 757.895 745.328 756.969 748.371C754.014 735.847 750.53 723.41 747.487 710.93C612.981 714.017 478.343 715.957 343.881 709.166C341.279 737.875 340.794 769.098 356.89 794.368C373.869 821.578 405.489 834.543 435.477 841.467C480.371 851.213 526.721 851.037 572.453 850.155C579.686 850.816 589.211 847.729 594.944 853.418L595.518 855.579C537.57 859.107 478.255 858.931 421.542 845.171C419.734 844.686 416.205 843.76 414.397 843.319C383.792 833.617 352.657 813.551 342.47 781.446C333.297 757.5 334.223 731.304 338.368 706.432C331.224 704.976 324.212 702.463 316.847 702.639C303.309 712.738 310.1 731.878 303.97 745.637C279.362 762.351 247.742 758.029 219.606 758.25C204.877 756.53 188.207 759.793 175.153 751.37C169.111 741.271 170.655 728.438 168.891 717.148C152.088 711.238 138.064 698.405 133.831 680.633C127.26 659.024 128.054 636.003 128.362 613.689C128.715 606.103 128.362 596.489 135.992 592.168C150.942 587.14 166.862 586.523 182.429 584.847C186.575 573.866 190.235 562.753 194.028 551.683C181.9 543.834 166.509 538.718 158.748 525.752C154.47 515.345 167.876 507.848 176.388 512.081C192.043 518.564 205.538 529.148 219.738 538.233C231.293 531.706 241.039 520.108 254.313 517.77C252.814 527.516 239.363 531.133 233.189 538.63C235.791 536.998 240.951 533.779 243.553 532.147C245.89 533.161 250.52 535.234 252.858 536.248L244.479 531.574C250.168 527.252 255.901 522.974 261.678 518.74C264.368 508.73 253.652 503.879 250.432 495.72C235.791 467.055 237.864 433.715 240.598 402.668C246.11 362.272 259.252 323.288 275.966 286.199C256.033 272.264 240.245 250.787 239.275 225.782ZM260.178 199.718C252.549 220.269 251.932 244.568 263.883 263.664C260.972 238.703 257.18 211.625 271.071 188.958C287.124 159.455 322.977 142.917 355.832 150.238C369.988 152.355 379.955 163.688 392.215 170.083C381.851 151.296 359.184 142.388 338.545 142.167C304.191 143.27 271.292 166.996 260.178 199.718ZM166.245 520.593C171.757 537.439 192.087 541.937 205.759 550.449C208.36 548.949 213.564 545.862 216.166 544.319C202.275 536.116 189.353 526.237 175.065 518.696C172.86 519.181 168.45 520.108 166.245 520.593ZM214.226 549.037C241.612 559.798 269.043 571.484 298.017 577.306C304.191 581.098 310.409 584.759 316.583 588.551C257.621 592.653 198.261 588.948 139.52 596.886C138.417 600.811 137.315 604.736 136.212 608.661C205.009 610.998 273.85 607.382 342.646 606.809C332.635 594.328 320.596 580.922 303.926 578.364C286.727 571.044 268.293 567.163 250.961 560.195C238.922 555.785 227.412 548.949 214.226 549.037ZM848.257 551.507C848.301 555.388 848.433 563.105 848.477 566.986C837.937 569.853 826.956 571.926 817.563 577.791C825.986 577.262 834.586 577.085 842.788 574.704C850.859 569.544 854.122 559.577 848.257 551.507ZM188.427 585.112C198.085 577.218 201.922 565.134 204.832 553.536C193.675 559.974 192.308 574.042 188.427 585.112ZM811.168 602.046C812.932 605.486 814.696 608.926 816.46 612.41C847.463 612.057 878.818 616.908 909.556 611.351C876.525 609.94 844.376 600.37 811.168 602.046ZM136.212 614.923C136.036 641.251 133.699 670.225 148.34 693.51C161.173 711.9 186.134 711.503 206.155 712.473C238.261 712.076 271.38 714.237 302.603 705.373C319.229 695.23 326.505 675.87 335.766 659.641C344.322 645.661 342.161 628.859 342.293 613.247C273.629 613.115 204.921 616.864 136.212 614.923ZM822.767 622.068C826.912 627.801 829.073 636.312 836.394 639.002C857.165 639.399 877.848 635.562 897.958 630.579C904.926 628.286 913.481 627.492 917.45 620.215C885.874 620.392 854.343 622.861 822.767 622.068ZM610.115 654.702C613.334 653.732 619.685 651.88 622.86 650.953C623.698 651.527 625.373 652.629 626.211 653.202C624.888 654.922 622.154 658.406 620.831 660.126C618.45 660.523 613.731 661.361 611.35 661.758C606.895 660.92 602.485 660.082 598.075 659.244C587.271 648.881 583.478 671.284 596.708 661.714C588.241 671.681 583.919 684.293 592.034 696.289C592.431 699.64 592.96 702.992 593.621 706.343C609.189 706.608 624.712 706.52 640.279 706.343C638.912 700.169 637.677 694.039 636.619 687.865C643.014 691.923 643.675 699.287 644.822 706.035C662.021 706.343 679.264 706.211 696.507 705.373C693.773 699.155 691.833 692.319 686.982 687.38C679.264 686.807 671.502 687.513 663.785 687.865C672.076 684.558 680.367 681.162 688.569 677.634C696.243 685.44 701.226 695.274 707.577 704.094C707.665 688.924 703.916 674.062 698.712 659.95C678.955 655.231 664.094 641.34 647.821 630.27C632.871 633.931 620.919 644.25 610.115 654.702ZM523.369 647.91C518.342 645.97 514.858 641.516 510.624 638.429C498.541 646.896 485.664 656.51 481.562 671.592C484.737 673.18 491.132 676.399 494.351 678.031C492.72 674.944 489.544 668.858 487.913 665.771C493.028 668.02 498.144 670.313 503.26 672.651C503.701 681.471 508.155 689.541 517.151 692.099C527.868 697.479 537.746 686.895 540.833 677.414C554.151 677.149 567.514 678.031 580.7 680.016C581.009 676.664 581.626 669.961 581.935 666.653C567.823 661.273 557.327 650.38 545.993 640.943C537.834 639.223 517.151 630.27 523.369 647.91ZM706.959 644.338C707.312 650.865 707.929 657.392 708.856 663.831C709.958 668.02 711.105 672.166 712.339 676.355C714.103 686.101 715.735 695.936 717.455 705.726C726.452 705.638 735.404 705.638 744.4 705.638C741.534 694.128 739.814 682.309 736.11 671.063C731.788 661.802 721.159 671.24 714.897 665.771C711.634 658.847 710.046 651.306 706.959 644.338ZM714.677 642.354C715.294 645.705 716.441 652.409 717.014 655.76C725.966 655.981 737.124 654.57 737.609 643.28C729.98 642.927 722.35 642.574 714.677 642.354ZM401.123 663.831C388.378 669.784 375.104 683.014 378.72 698.361C384.541 702.463 389.569 696.068 394.817 694.26C393.273 696.377 390.142 700.61 388.599 702.727C420.263 707.578 452.412 705.461 484.341 706.74C518.254 705.02 552.211 707.578 586.168 705.991C583.963 699.42 581.935 692.805 579.112 686.498C569.807 684.161 559.973 683.235 550.491 684.911C539.29 690.203 529.235 697.611 518.518 703.786C509.742 696.509 501.892 688.13 492.411 681.824C478.475 675.561 469.435 690.776 462.908 700.346C461.541 700.522 458.851 700.787 457.527 700.963C454.485 690.114 445.047 683.103 435.61 678.075C424.761 675.429 416.338 683.808 407.518 688.395C412.986 677.237 426.128 676.576 436.58 673.004C443.856 678.913 450.957 685.087 458.762 690.291C465.598 687.072 471.816 682.617 478.122 678.516C471.728 674.15 465.333 669.784 458.586 666.08C441.431 655.099 419.601 659.112 401.123 663.831ZM736.506 659.465C738.932 661.537 738.932 661.537 736.506 659.465ZM335.546 672.298C331.797 679.575 327.784 686.763 324.477 694.304C339.427 702.286 356.67 703.256 373.208 704.535C368.224 690.159 374.795 676.664 383.88 665.683C369.283 674.812 352.039 675.738 335.546 672.298ZM236.276 719.838C236.144 730.466 236.055 741.05 236.011 751.723C257.135 751.546 279.053 751.899 298.502 742.373C299.031 732.759 299.604 723.19 300.266 713.62C279.097 716.883 257.709 719 236.276 719.838ZM177.182 717.721C178.46 727.953 176.299 739.683 181.9 748.856C197.468 751.899 213.476 750.664 229.264 751.061C229.264 740.565 229.22 730.069 229.264 719.574C211.888 719.529 194.513 718.912 177.182 717.721Z"></path>
<path fill="#2F1724" d="M976.104 470.098C978.309 470.362 982.719 470.891 984.924 471.2C984.836 475.301 984.747 479.403 984.659 483.548C982.101 483.857 977.074 484.43 974.516 484.695C975.001 479.8 975.53 474.949 976.104 470.098Z"></path>
<path fill="#5A3B44" d="M260.179 199.718C271.292 166.996 304.191 143.27 338.545 142.167C359.184 142.388 381.852 151.296 392.215 170.083C379.955 163.688 369.989 152.355 355.832 150.238C322.978 142.917 287.124 159.455 271.071 188.958C257.18 211.626 260.972 238.703 263.883 263.664C251.932 244.569 252.549 220.269 260.179 199.718Z"></path>
<path fill="#2F1A25" d="M696.86 171.759C735.051 123.204 822.282 131.804 847.948 188.958C869.954 228.825 848.036 278.394 811.609 301.017C822.855 329.021 830.352 358.348 835.776 387.983C833.307 391.202 830.793 394.466 828.323 397.729C819.151 324.787 788.986 251.492 732.449 202.629C705.68 179.212 670.312 171.053 636.619 163.203C641.735 161.969 646.806 160.734 651.922 159.499C667.401 161.395 682.131 166.864 696.86 171.759ZM727.731 157.25L727.995 158.705C743.43 154.119 759.836 151.649 775.844 154.78C798.291 160.028 817.563 175.728 827.353 196.631C841.377 220.357 836.438 248.979 829.514 274.116C832.425 265.56 835.027 256.873 836.526 247.92C844.067 210.126 821.003 167.834 784.091 155.486C765.833 149.179 745.944 152.311 727.731 157.25ZM714.853 165.1C710.09 165.761 703.74 171.318 706.386 176.478C712.251 180.579 723.056 167.613 714.853 165.1Z"></path>
<path fill="#573E46" d="M714.853 165.1C723.056 167.613 712.252 180.579 706.386 176.478C703.74 171.318 710.091 165.761 714.853 165.1Z"></path>
<path fill="#301A25" d="M634.635 340.663C653.289 331.005 675.56 338.238 692.538 348.248C722.35 366.638 745.856 401.478 738.535 437.772C725.173 476.448 672.429 477.154 644.249 454.883C623.08 436.67 613.952 407.696 614.128 380.486C613.908 365.007 620.39 348.292 634.635 340.663ZM644.734 402.007C651.084 410.077 659.022 417.177 670.091 414.708C666.211 406.329 659.596 399.934 651.878 395.083C650.114 396.847 646.542 400.287 644.734 402.007Z"></path>
<path fill="#421B1E" d="M145.826 421.323C157.645 422.16 167.833 430.628 180.092 430.363C197.38 431.113 216.652 436.449 225.163 453.075C226.795 464.188 229.044 476.316 225.163 487.253C220.268 489.149 213.344 491.442 209.243 486.723C213.079 480.637 223.443 476.977 221.811 468.73C215.726 463.923 208.096 459.69 214.623 451.267C203.951 439.492 185.693 434.994 171.096 438.654C173.036 450.164 159.894 451.708 151.604 448.621C152.75 443.108 157.557 440.065 161.526 436.669C161.703 430.363 152.662 431.422 149.046 428.379C143.798 434.95 138.77 441.785 132.464 447.474C132.244 437.243 136.257 426.218 145.826 421.323Z"></path>
<path fill="#3A1E29" d="M510.669 429.437C514.285 423.263 521.694 421.808 528.265 421.675C541.803 421.146 557.239 421.675 566.941 432.656C561.296 441.785 552.211 447.165 543.303 452.546C537.085 471.465 559.885 487.209 577.172 482.402C590.975 481.343 598.605 468.863 602.177 456.868C603.985 457.617 607.557 459.073 609.365 459.778C603.103 494 552.564 500.306 536.335 470.539C517.857 498.057 463.746 491.927 462.643 454.839C472.61 458.058 473.227 470.715 481.474 476.139C499.864 487.782 531.396 478.565 533.116 454.53C525.31 446.68 509.698 442.932 510.669 429.437Z"></path>
<path fill="#F9CECF" d="M738.535 437.772C757.101 439.095 777.299 443.593 789.339 459.073C800.32 473.361 792.734 494.088 780.43 505.025C747.135 534.308 692.671 533.029 658.802 505.466C643.896 493.162 643.014 472.656 644.248 454.883C672.429 477.154 725.173 476.448 738.535 437.772ZM759.086 461.366C753.397 466.79 762.967 475.743 768.391 470.583C774.212 465.159 764.554 456.162 759.086 461.366Z"></path>
<path fill="#F9EEEC" d="M307.146 455.148C312.79 448.136 322.051 447.607 330.254 446.372C328.093 453.516 325.712 463.924 316.098 463.439C309.571 464.806 306.572 462.027 307.146 455.148Z"></path>
<path fill="#F9F0EE" d="M759.086 461.366C764.554 456.162 774.212 465.159 768.391 470.583C762.967 475.743 753.397 466.79 759.086 461.366Z"></path>
<path fill="#DAC6C8" d="M166.245 520.593C168.45 520.107 172.86 519.181 175.065 518.696C189.354 526.237 202.275 536.116 216.167 544.319C213.565 545.862 208.361 548.949 205.759 550.448C192.088 541.937 171.757 537.439 166.245 520.593Z"></path>
<path fill="#7C5D65" d="M188.427 585.111C192.308 574.042 193.675 559.974 204.833 553.536C201.922 565.134 198.085 577.217 188.427 585.111Z"></path>
<path fill="#DDD8DD" d="M408.488 574.527C428.201 576.512 445.973 586.038 465.289 589.786C498.982 596.754 533.821 598.738 568.087 595.299C600.81 591.506 633.047 584.538 665.593 579.334C650.555 591.991 645.748 611.439 638.031 628.55C623.125 630.535 607.866 627.58 593.136 631.02C582.288 633.886 577.128 644.911 570.998 653.246C556.401 638.781 535.938 626.654 514.638 632.122C495.542 635.474 483.767 652.232 474.065 667.447C448.752 646.543 413.957 652.805 385.159 661.978C396.272 652.232 410.164 644.647 417.705 631.505C425.555 612.586 418.852 591.109 408.488 574.527Z"></path>
<path fill="#935E5E" d="M298.017 577.306L303.926 578.364C320.596 580.922 332.635 594.328 342.646 606.809C273.85 607.382 205.009 610.998 136.212 608.661C137.315 604.736 138.417 600.811 139.52 596.886C198.262 588.948 257.621 592.653 316.583 588.551C310.409 584.759 304.191 581.098 298.017 577.306Z"></path>
<path fill="#E2BDB4" d="M751.016 602.311C765.392 599.4 780.342 595.431 795.072 598.253C814.432 615.761 829.999 637.326 839.437 661.758C837.717 664.095 834.277 668.77 832.557 671.107C834.453 672.871 838.246 676.399 840.186 678.163C832.778 684.646 825.369 691.217 818.092 697.832C816.24 685.175 813.373 672.562 807.552 661.096L806.229 668.593C792.955 642.442 771.434 622.685 751.016 602.311Z"></path>
<path fill="#95434B" d="M811.168 602.046C844.376 600.37 876.525 609.94 909.556 611.351C878.818 616.908 847.463 612.057 816.46 612.41C814.696 608.926 812.932 605.486 811.168 602.046Z"></path>
<path fill="#9A6062" d="M682.616 641.295C696.728 619.863 723.144 615.761 745.591 608C761.468 619.863 776.329 633.49 787.355 650.116C795.689 662.375 803.451 677.017 800.1 692.364C787.928 705.726 768.744 700.699 753.353 697.744C752.868 696.597 751.942 694.26 751.501 693.113C745.106 666.962 742.108 639.84 745.768 613.027C731.788 616.379 716.662 617.922 704.534 626.301C695.979 632.034 699.198 643.589 697.831 652.321C692.759 648.616 687.688 644.956 682.616 641.295Z"></path>
<path fill="#9F6662" d="M136.212 614.923C204.921 616.864 273.629 613.115 342.293 613.247C342.161 628.859 344.322 645.661 335.766 659.641C326.505 675.87 319.229 695.23 302.603 705.373C271.38 714.237 238.261 712.076 206.155 712.473C186.134 711.503 161.173 711.9 148.34 693.51C133.699 670.225 136.036 641.251 136.212 614.923Z"></path>
<path fill="#BF8B98" d="M949.996 617.525C956.699 613.733 963.8 616.996 970.282 619.51C933.988 631.814 898.619 648.484 860.517 654.305C863.604 656.246 866.735 658.142 869.866 660.082C868.322 660.435 865.235 661.141 863.736 661.494C862.501 661.626 860.031 661.846 858.841 661.979C859.458 661.317 860.693 660.082 861.354 659.421C856.812 658.936 847.683 657.921 843.141 657.392C841.201 653.335 839.216 649.278 837.276 645.22C876.128 642.398 913.878 631.77 949.996 617.525Z"></path>
<path fill="#A05A60" d="M822.767 622.068C854.343 622.862 885.874 620.392 917.45 620.216C913.481 627.492 904.926 628.286 897.958 630.579C877.848 635.563 857.165 639.399 836.394 639.002C829.073 636.312 826.912 627.801 822.767 622.068Z"></path>
<path fill="#A85A5C" d="M610.115 654.702C620.919 644.25 632.871 633.93 647.821 630.27C664.094 641.339 678.955 655.231 698.712 659.95C703.916 674.062 707.665 688.924 707.577 704.094C701.226 695.274 696.243 685.44 688.569 677.634C680.367 681.162 672.076 684.558 663.785 687.865C671.503 687.512 679.264 686.807 686.982 687.38C691.833 692.319 693.773 699.155 696.507 705.373C679.264 706.211 662.021 706.343 644.822 706.035C643.675 699.287 643.014 691.922 636.619 687.865C634.899 686.057 633.179 684.293 631.459 682.529C634.15 680.5 639.53 676.443 642.176 674.371C627.887 666.432 611.835 669.387 596.797 673.18C595.121 680.853 593.357 688.527 592.034 696.288C583.919 684.293 588.241 671.68 596.708 661.714L598.075 659.244C602.485 660.082 606.896 660.92 611.35 661.758C613.731 661.361 618.45 660.523 620.831 660.126C626.917 666.035 635.473 656.466 626.211 653.202C625.374 652.629 623.698 651.527 622.86 650.953C619.685 651.879 613.334 653.732 610.115 654.702ZM630.048 645C643.94 641.78 655.759 648.616 667.048 655.672C665.858 645.926 657.17 640.987 650.599 635.077C643.543 637.944 636.663 641.295 630.048 645ZM668.636 664.492C672.737 675.429 692.935 673.841 695.89 663.654C686.982 660.92 677.633 663.875 668.636 664.492Z"></path>
<path fill="#B96E66" d="M523.369 647.911C517.151 630.27 537.834 639.223 545.993 640.943C539.025 644.559 531.704 649.542 523.369 647.911Z"></path>
<path fill="#341E21" d="M630.048 645C636.663 641.295 643.543 637.944 650.599 635.077C657.17 640.987 665.858 645.926 667.048 655.672C655.759 648.616 643.94 641.781 630.048 645Z"></path>
<path fill="#A25A5B" d="M481.562 671.592C485.664 656.51 498.541 646.896 510.624 638.429C514.858 641.516 518.342 645.97 523.369 647.911C531.704 649.542 539.025 644.559 545.993 640.943C557.327 650.38 567.823 661.273 581.935 666.653C581.626 669.961 581.009 676.664 580.7 680.016C567.514 678.031 554.151 677.149 540.833 677.414C537.746 686.895 527.868 697.479 517.151 692.099C508.155 689.541 503.701 681.471 503.26 672.651C498.144 670.313 493.028 668.02 487.913 665.771C489.544 668.858 492.72 674.944 494.351 678.031C491.132 676.399 484.737 673.18 481.562 671.592Z"></path>
<path fill="#D5CDCC" d="M706.959 644.338C710.046 651.306 711.634 658.847 714.898 665.771C721.16 671.239 731.788 661.802 736.11 671.063C739.814 682.309 741.534 694.127 744.401 705.638C735.404 705.638 726.452 705.638 717.455 705.726C715.735 695.935 714.104 686.101 712.34 676.355C711.105 672.165 709.958 668.02 708.856 663.83C707.93 657.392 707.312 650.865 706.959 644.338Z"></path>
<path fill="#8B4A57" d="M714.677 642.354C722.35 642.574 729.98 642.927 737.609 643.28C737.124 654.569 725.966 655.981 717.014 655.76C716.441 652.408 715.294 645.705 714.677 642.354Z"></path>
<path fill="#D17673" d="M626.212 653.202C635.473 656.466 626.917 666.036 620.831 660.126C622.154 658.406 624.889 654.922 626.212 653.202Z"></path>
<path fill="#A95C59" d="M401.123 663.831C419.601 659.112 441.431 655.099 458.586 666.08C465.334 669.784 471.728 674.15 478.123 678.516C471.816 682.617 465.598 687.071 458.763 690.291C450.957 685.087 443.857 678.913 436.58 673.003C426.128 676.576 412.986 677.237 407.518 688.394C416.338 683.808 424.761 675.429 435.61 678.075C445.047 683.102 454.485 690.114 457.528 700.963C458.851 700.787 461.541 700.522 462.908 700.346C469.435 690.776 478.475 675.561 492.411 681.824C501.893 688.13 509.743 696.509 518.519 703.785C529.235 697.611 539.29 690.203 550.491 684.911C559.973 683.235 569.807 684.161 579.112 686.498C581.935 692.805 583.963 699.42 586.169 705.99C552.211 707.578 518.254 705.02 484.341 706.74C452.412 705.461 420.263 707.578 388.599 702.727C390.142 700.61 393.274 696.377 394.817 694.26C389.569 696.068 384.542 702.463 378.72 698.361C375.104 683.014 388.378 669.784 401.123 663.831Z"></path>
<path fill="#BB807F" d="M596.708 661.714C583.478 671.284 587.271 648.881 598.075 659.244L596.708 661.714Z"></path>
<path fill="#815D5C" d="M736.507 659.465C738.936 661.54 738.936 661.54 736.507 659.465Z"></path>
<path fill="#46282D" d="M668.636 664.492C677.633 663.875 686.982 660.92 695.89 663.654C692.935 673.841 672.738 675.429 668.636 664.492Z"></path>
<path fill="#CCC2CC" d="M335.546 672.298C352.04 675.738 369.283 674.812 383.88 665.683C374.795 676.664 368.224 690.159 373.208 704.536C356.67 703.257 339.427 702.286 324.477 694.304C327.784 686.763 331.798 679.575 335.546 672.298Z"></path>
<path fill="#9C5256" d="M596.797 673.18C611.835 669.387 627.887 666.432 642.176 674.371C639.53 676.443 634.15 680.5 631.459 682.529C633.179 684.293 634.899 686.057 636.619 687.865C637.678 694.039 638.912 700.169 640.28 706.343C624.712 706.52 609.189 706.608 593.621 706.343C592.96 702.992 592.431 699.64 592.034 696.288C593.357 688.527 595.121 680.853 596.797 673.18Z"></path>
<path fill="#D49687" d="M839.04 706.476C837.32 698.582 840.98 695.407 849.977 696.906C848.919 699.42 846.802 704.359 845.743 706.873C862.898 708.019 880.23 708.46 897.208 705.241C891.564 711.547 886.272 720.456 876.658 720.323C863.648 721.249 841.069 724.557 839.04 706.476Z"></path>
<path fill="#9C6460" d="M236.276 719.838C257.709 719 279.098 716.883 300.266 713.62C299.604 723.19 299.031 732.759 298.502 742.373C279.053 751.899 257.136 751.546 236.011 751.723C236.056 741.05 236.144 730.466 236.276 719.838Z"></path>
<path fill="#9E645F" d="M177.182 717.721C194.513 718.912 211.889 719.529 229.264 719.573C229.22 730.069 229.264 740.565 229.264 751.061C213.476 750.664 197.468 751.899 181.901 748.856C176.3 739.683 178.461 727.952 177.182 717.721Z"></path>
<path fill="#3A1E21" d="M756.969 748.371C757.895 745.328 759.703 739.331 760.585 736.288C764.246 745.99 766.098 762.836 780.122 761.337C829.558 764.203 879.171 762.263 928.652 761.381C927.373 762.969 924.771 766.144 923.492 767.775C869.204 769.363 814.829 768.481 760.497 768.128C759.483 780.388 758.645 792.604 757.851 804.864C816.549 808.304 875.378 805.173 934.12 806.231C949.688 805.305 967.504 808.392 980.999 798.69C982.807 787.532 982.013 776.243 981.837 765.041C970.326 765.218 958.86 765.482 947.35 765.747L947.968 761.91C949.291 760.631 951.981 758.029 953.304 756.706C964.064 757.985 976.897 754.281 986.247 760.499C991.495 777.522 993.876 802.747 975.134 812.67C975.575 831.941 978.132 851.169 976.853 870.485C977.868 893.638 934.252 894.343 932.753 871.94C930.107 852.492 930.372 832.735 928.431 813.199C886.271 813.728 844.111 814.434 801.995 813.596C802.304 833.22 803.759 852.845 802.745 872.426C801.599 892.094 770.993 893.241 760.365 881.29C754.014 858.578 757.851 834.367 756.396 811.038C753.309 809.715 747.135 807.025 744.048 805.702C726.496 823.915 704.842 837.101 681.381 846.318C682.836 857.255 686.585 869.868 679.617 879.834C671.723 888.919 658.449 888.346 647.468 888.963C581.317 889.228 515.167 889.316 449.016 888.39C437.153 887.949 421.189 887.287 415.764 874.498C412.854 864.355 414.662 853.639 414.397 843.319C416.205 843.76 419.733 844.687 421.542 845.172C421.85 854.477 421.321 864.002 423.35 873.219C428.024 881.025 438.388 879.923 446.238 880.893C513.314 881.598 580.391 881.599 647.468 881.246C654.656 880.893 662.065 881.069 668.901 878.644C678.735 872.029 672.958 857.961 674.545 848.259C664.358 849.582 654.171 851.081 644.028 852.536C630.886 853.198 616.73 857.035 604.117 851.919C604.205 851.125 604.338 849.582 604.426 848.788C650.511 846.495 703.74 841.6 734.478 802.438C745.944 791.061 735.139 774.92 738.094 761.469C741.578 754.634 750.354 753.707 756.528 750.312L756.969 748.371ZM746.032 761.866C736.683 775.978 761.952 770.157 760.1 760.543C755.205 757.765 750.53 758.206 746.032 761.866ZM749.957 778.845C746.517 784.137 746.738 792.163 750.177 797.455C756.484 796.264 756.131 780.212 749.957 778.845ZM763.364 812.581C764.069 835.073 764.069 857.608 766.539 880.011C775.623 880.408 784.708 880.099 793.793 879.305C795.336 857.035 794.322 834.72 793.616 812.493C783.517 812.449 773.418 812.449 763.364 812.581ZM937.207 811.964C938.133 834.587 937.56 857.432 942.102 879.746C951.011 879.482 959.875 878.953 968.783 878.247C969.224 856.594 967.769 834.94 966.975 813.287C957.052 812.626 947.13 812.184 937.207 811.964Z"></path>
<path fill="#9D5E56" d="M939.148 766.981C941.441 759.881 943.91 752.825 946.645 745.945C946.997 749.914 947.659 757.941 947.968 761.91L947.35 765.746C958.86 765.482 970.326 765.217 981.837 765.041C982.013 776.242 982.807 787.532 980.999 798.689C967.504 808.391 949.688 805.304 934.12 806.23C875.378 805.172 816.549 808.303 757.851 804.863C758.645 792.603 759.483 780.388 760.497 768.128C814.829 768.481 869.204 769.363 923.492 767.775C928.696 767.466 933.9 767.202 939.148 766.981Z"></path>
<path fill="#BF7570" d="M746.032 761.865C750.531 758.205 755.205 757.764 760.1 760.542C761.953 770.156 736.683 775.978 746.032 761.865Z"></path>
<path fill="#884647" d="M749.957 778.844C756.131 780.212 756.484 796.264 750.178 797.455C746.738 792.163 746.517 784.137 749.957 778.844Z"></path>
<path fill="#A05D55" d="M763.364 812.581C773.419 812.449 783.518 812.449 793.617 812.493C794.322 834.719 795.337 857.034 793.793 879.305C784.708 880.099 775.624 880.407 766.539 880.01C764.069 857.607 764.069 835.072 763.364 812.581Z"></path>
<path fill="#A3675D" d="M937.207 811.964C947.13 812.184 957.052 812.625 966.975 813.287C967.769 834.94 969.224 856.593 968.783 878.246C959.875 878.952 951.011 879.481 942.102 879.746C937.56 857.431 938.133 834.587 937.207 811.964Z"></path>
<path fill="#AED9E0" d="M185.693 823.562C226.53 820.166 267.235 825.944 307.851 829.295C323.507 830.839 340.662 832.735 351.599 845.568C338.369 843.452 325.139 841.246 311.732 840.717L308.072 838.38C271.116 835.91 234.601 826.208 197.424 828.722C187.016 833.926 176.3 838.38 165.451 842.437C170.831 834.984 176.388 826.385 185.693 823.562Z"></path>
<path fill="#5E8471" d="M173.918 847.156C186.31 839.483 200.246 832.735 215.24 833.617C241.833 835.778 268.161 840.365 294.753 842.084C300.707 842.173 306.352 843.452 311.732 845.921C288.535 849.317 265.074 847.288 241.745 847.509C219.121 846.936 196.498 849.008 173.918 847.156Z"></path>
<path fill="#985E53" d="M118.881 853.286C136.653 852.051 155.396 848.788 172.683 854.697C175.77 861.444 178.284 868.501 181.371 875.336C181.856 868.456 182.209 861.665 182.474 854.829C238.79 851.963 295.326 855.491 351.687 852.845C351.643 861.4 351.599 869.956 351.554 878.555C273.409 879.746 195.263 878.732 117.117 878.82C117.602 870.264 118.175 861.753 118.881 853.286Z"></path>
</svg>
