<?xml version="1.0" standalone="no"?><!DOCTYPE svg PUBLIC "-//W3C//DTD SVG 1.1//EN" "http://www.w3.org/Graphics/SVG/1.1/DTD/svg11.dtd"><svg height="1024" node-id="1" sillyvg="true" template-height="1024" template-width="1101" version="1.1" viewBox="0 0 1101 1024" width="1101" xmlns="http://www.w3.org/2000/svg" xmlns:xlink="http://www.w3.org/1999/xlink"><defs node-id="46"></defs><path d="M 0.00 0.00 L 1100.60 0.00 L 1100.60 1024.00 L 0.00 1024.00 Z" fill="#ffffff" fill-rule="nonzero" node-id="48" stroke="none" target-height="1024" target-width="1100.6" target-x="0" target-y="0"></path><path d="M 606.50 313.60 L 612.70 309.50 L 619.10 305.90 L 625.50 302.80 L 632.10 300.10 L 641.10 297.10 L 650.30 294.80 L 659.70 293.00 L 678.70 290.90 L 688.40 290.40 L 703.00 290.10 L 746.10 290.60 L 745.00 293.00 L 754.60 294.30 L 764.10 296.00 L 773.50 298.20 L 782.90 300.70 L 792.20 303.70 L 801.20 307.20 L 810.10 311.00 L 818.80 315.30 L 827.30 320.00 L 835.50 325.10 L 843.40 330.60 L 851.10 336.50 L 858.30 342.90 L 865.20 349.60 L 871.70 356.80 L 877.80 364.50 L 883.60 372.20 L 889.00 380.20 L 893.90 388.40 L 898.50 396.80 L 903.90 408.30 L 908.90 420.00 L 913.30 432.00 L 917.30 444.20 L 924.30 468.90 L 933.40 506.10 L 925.40 506.40 L 917.60 507.20 L 909.80 508.70 L 902.20 510.70 L 894.80 513.30 L 887.50 516.40 L 886.90 511.10 L 884.70 500.70 L 883.00 495.70 L 880.20 489.10 L 876.90 482.80 L 873.00 476.80 L 868.60 471.20 L 863.80 465.90 L 858.60 461.10 L 854.30 457.80 L 845.30 452.20 L 840.60 449.80 L 835.70 448.20 L 830.50 447.20 L 823.50 446.80 L 816.60 447.80 L 813.40 448.80 L 810.30 450.30 L 807.50 452.10 L 805.00 454.50 L 802.70 457.30 L 798.10 465.20 L 794.90 473.60 L 793.50 479.40 L 792.60 485.40 L 792.20 491.50 L 792.80 503.70 L 794.80 515.80 L 798.00 527.30 L 799.80 532.10 L 801.90 536.70 L 804.40 541.00 L 807.20 545.10 L 810.40 549.00 L 813.90 552.60 L 817.60 555.90 L 821.70 558.90 L 825.90 561.60 L 830.40 563.90 L 835.00 565.80 L 839.90 567.40 L 845.40 577.00 L 836.10 579.70 L 826.70 581.80 L 817.10 583.40 L 807.50 584.30 L 797.80 584.70 L 788.10 584.50 L 778.50 583.70 L 768.90 582.40 L 759.40 580.40 L 742.60 576.10 L 692.60 561.20 L 675.90 556.50 L 659.00 552.30 L 662.60 567.10 L 652.70 558.20 L 643.20 548.80 L 634.10 539.10 L 616.80 518.90 L 583.90 476.80 L 557.90 437.10 L 531.20 398.00 L 535.70 389.80 L 540.60 381.70 L 545.80 373.90 L 551.50 366.20 L 563.80 351.60 L 577.30 338.00 L 586.70 329.40 L 596.50 321.20 L 606.50 313.60 Z M 625.30 393.60 L 618.90 395.60 L 612.80 398.20 L 606.80 401.40 L 602.50 404.20 L 594.60 410.60 L 591.10 414.10 L 587.80 418.00 L 584.90 422.10 L 582.40 426.30 L 580.30 430.80 L 578.70 435.50 L 577.60 440.30 L 577.00 445.40 L 576.90 450.60 L 577.60 454.90 L 580.10 463.00 L 581.90 466.90 L 584.70 471.80 L 588.10 476.40 L 591.90 480.60 L 596.20 484.50 L 600.70 487.80 L 605.70 490.70 L 610.80 493.10 L 616.20 494.90 L 621.70 496.00 L 626.00 496.50 L 630.20 496.60 L 634.50 496.20 L 638.80 495.40 L 643.90 494.10 L 648.70 492.30 L 653.30 490.10 L 657.60 487.60 L 665.70 481.50 L 669.40 478.00 L 672.90 474.20 L 677.10 468.80 L 681.00 463.20 L 684.50 457.20 L 687.60 451.00 L 690.30 444.70 L 692.50 438.40 L 694.40 428.50 L 694.70 423.20 L 694.50 418.10 L 693.90 414.70 L 691.80 408.40 L 690.20 405.50 L 688.10 402.90 L 685.50 400.40 L 681.10 397.40 L 676.50 395.00 L 671.70 393.20 L 666.70 391.90 L 661.60 391.00 L 651.10 390.40 L 640.60 391.00 L 625.30 393.60 Z M 709.00 494.10 L 710.50 498.50 L 712.50 502.50 L 715.00 506.20 L 717.80 509.80 L 724.10 516.40 L 722.30 519.50 L 720.10 522.20 L 717.60 524.60 L 714.70 526.70 L 711.70 528.30 L 708.50 529.60 L 705.10 530.40 L 701.70 530.70 L 698.30 530.50 L 694.90 529.80 L 691.60 528.50 L 686.30 525.30 L 684.50 523.70 L 683.10 522.00 L 681.30 519.00 L 678.90 512.40 L 676.30 502.10 L 674.70 504.50 L 673.70 506.90 L 673.10 509.40 L 672.90 511.80 L 673.20 515.10 L 674.00 518.30 L 675.50 521.50 L 677.40 524.50 L 679.60 527.20 L 682.30 529.70 L 685.20 531.80 L 688.10 533.50 L 695.10 536.00 L 698.90 536.60 L 702.70 536.60 L 706.50 536.10 L 710.30 535.20 L 714.00 533.80 L 719.30 531.30 L 724.20 528.20 L 725.90 532.30 L 728.20 536.00 L 730.90 539.50 L 734.10 542.60 L 737.70 545.20 L 741.50 547.30 L 747.60 549.40 L 754.00 550.10 L 757.20 549.90 L 760.40 549.20 L 763.50 548.10 L 768.90 545.00 L 770.70 543.40 L 772.00 541.50 L 773.50 538.20 L 774.40 534.50 L 775.40 527.20 L 765.30 538.80 L 763.40 540.50 L 759.30 542.90 L 757.00 543.60 L 754.50 543.80 L 748.30 543.30 L 745.50 542.50 L 743.00 541.30 L 740.70 539.70 L 738.70 537.70 L 736.90 535.40 L 734.70 531.70 L 732.90 527.50 L 730.30 519.10 L 737.20 517.30 L 740.80 516.00 L 744.00 514.30 L 746.00 513.00 L 747.60 511.40 L 748.70 509.70 L 749.50 507.70 L 749.60 505.40 L 749.20 502.60 L 745.40 499.60 L 741.40 497.30 L 737.10 495.40 L 732.50 494.00 L 727.90 493.10 L 723.10 492.70 L 718.30 492.70 L 713.60 493.20 L 709.00 494.10 Z" fill="#fdfdfd" fill-rule="nonzero" node-id="50" stroke="none" target-height="294.6" target-width="402.2" target-x="531.2" target-y="290.1"></path><path d="M 622.20 534.60 L 628.80 542.30 L 635.00 550.50 L 640.90 559.10 L 646.20 568.00 L 651.00 577.20 L 655.30 586.70 L 658.10 594.00 L 660.50 601.30 L 664.20 616.30 L 665.40 623.90 L 666.20 631.50 L 666.50 639.10 L 666.30 646.80 L 665.60 654.40 L 664.40 662.00 L 662.60 669.60 L 660.30 677.20 L 671.50 692.60 L 677.70 700.10 L 684.50 707.20 L 689.20 711.60 L 694.20 715.60 L 699.30 719.30 L 704.70 722.60 L 710.40 725.30 L 716.20 727.50 L 720.80 728.80 L 725.40 729.70 L 730.30 730.20 L 738.40 730.40 L 744.00 729.50 L 746.50 728.50 L 749.80 726.70 L 752.70 724.50 L 755.30 721.80 L 757.60 718.80 L 759.60 715.50 L 761.20 712.00 L 762.30 708.40 L 763.10 704.70 L 763.40 701.00 L 763.40 695.80 L 763.00 690.80 L 762.30 685.90 L 761.10 681.10 L 758.90 674.90 L 756.20 668.90 L 753.00 663.00 L 749.40 657.40 L 745.30 652.00 L 741.00 646.80 L 736.40 641.80 L 726.80 632.70 L 722.30 629.10 L 717.60 625.80 L 712.80 623.00 L 705.20 619.20 L 697.30 616.00 L 665.10 604.50 L 673.20 605.40 L 681.10 606.80 L 688.90 608.70 L 696.60 611.20 L 704.10 614.20 L 711.30 617.70 L 718.30 621.70 L 725.00 626.10 L 731.40 631.00 L 737.40 636.30 L 743.00 642.00 L 748.30 648.10 L 753.00 654.60 L 757.30 661.40 L 761.10 668.50 L 764.30 676.10 L 766.90 687.50 L 767.60 693.50 L 767.70 699.40 L 766.80 707.20 L 764.60 714.70 L 762.90 718.20 L 760.70 721.60 L 758.30 724.20 L 755.70 726.30 L 750.00 729.20 L 743.70 731.00 L 738.70 731.70 L 718.20 733.00 L 713.50 733.80 L 715.70 735.70 L 709.90 734.40 L 707.70 733.00 L 712.90 729.60 L 708.10 727.90 L 699.10 723.70 L 694.90 721.10 L 689.60 717.30 L 684.60 713.10 L 679.80 708.50 L 671.00 698.50 L 661.20 685.10 L 655.70 676.90 L 657.70 670.30 L 660.70 657.00 L 661.60 650.20 L 662.20 643.40 L 662.30 636.60 L 662.00 629.80 L 661.20 623.00 L 658.40 608.80 L 656.40 601.50 L 653.90 594.50 L 647.90 580.70 L 639.00 564.10 L 622.20 534.60 Z" fill="#a26a69" fill-rule="nonzero" node-id="52" stroke="none" target-height="201.10004" target-width="145.5" target-x="622.2" target-y="534.6"></path><path d="M 246.70 621.40 L 264.10 635.10 L 244.50 629.90 L 246.70 621.40 Z" fill="#facfd1" fill-rule="nonzero" node-id="54" stroke="none" target-height="13.699951" target-width="19.600006" target-x="244.5" target-y="621.4"></path><path d="M 821.60 497.40 L 823.40 497.40 L 825.00 497.90 L 826.40 498.80 L 828.80 501.60 L 830.90 506.40 L 831.60 509.40 L 831.90 514.90 L 830.00 515.20 L 828.10 515.20 L 824.40 513.90 L 821.20 511.50 L 819.30 509.20 L 818.00 506.60 L 817.50 504.80 L 817.80 501.40 L 818.50 500.00 L 819.80 498.60 L 821.60 497.40 Z" fill="#fefdfe" fill-rule="nonzero" node-id="56" stroke="none" target-height="17.800018" target-width="14.400024" target-x="817.5" target-y="497.4"></path><path d="M 242.70 512.70 L 255.30 516.40 L 261.50 518.60 L 281.40 530.40 L 291.20 536.70 L 307.00 547.80 L 318.60 557.90 L 324.00 563.30 L 329.10 569.20 L 333.80 575.40 L 346.20 598.00 L 353.60 613.40 L 356.70 621.40 L 358.30 636.60 L 359.30 641.60 L 362.50 646.10 L 366.10 650.20 L 370.00 653.80 L 374.30 657.10 L 378.90 659.90 L 383.70 662.50 L 393.90 666.60 L 407.10 670.20 L 415.10 671.70 L 401.40 633.80 L 409.70 633.90 L 412.10 644.50 L 415.40 654.80 L 420.70 668.60 L 422.40 671.90 L 424.40 674.80 L 426.00 676.50 L 430.10 679.20 L 433.20 679.80 L 436.10 679.80 L 438.90 679.30 L 444.40 677.30 L 447.00 675.90 L 461.70 665.60 L 465.30 651.50 L 469.50 643.40 L 470.40 657.80 L 470.80 672.30 L 487.80 672.00 L 489.50 655.80 L 498.50 668.10 L 503.40 674.00 L 508.60 679.60 L 512.30 682.10 L 516.20 684.20 L 520.20 685.90 L 526.40 687.80 L 532.80 689.30 L 545.80 691.40 L 553.30 693.00 L 539.70 696.00 L 535.10 696.60 L 528.90 696.60 L 521.70 694.90 L 517.80 693.20 L 514.10 691.20 L 508.90 687.60 L 494.40 675.20 L 490.10 677.00 L 486.00 678.30 L 481.80 679.00 L 477.60 679.20 L 473.40 678.90 L 469.20 678.00 L 465.10 676.50 L 460.90 674.50 L 451.90 680.10 L 447.10 682.60 L 438.90 685.80 L 431.90 687.10 L 425.20 682.90 L 416.40 679.40 L 393.90 673.90 L 388.40 672.20 L 381.30 669.20 L 373.30 664.30 L 369.00 661.10 L 364.80 657.70 L 352.90 646.60 L 343.10 654.10 L 339.60 656.40 L 332.30 659.90 L 328.50 661.00 L 324.40 661.60 L 315.90 661.60 L 311.80 661.20 L 307.90 660.30 L 302.20 658.40 L 296.70 655.90 L 280.50 647.20 L 275.00 644.70 L 263.10 642.10 L 239.00 638.40 L 234.80 645.40 L 230.90 652.60 L 226.60 662.80 L 223.60 673.30 L 222.60 678.60 L 222.00 684.00 L 221.90 689.40 L 222.40 694.80 L 223.30 700.30 L 224.90 704.50 L 227.00 708.20 L 229.50 711.50 L 232.40 714.40 L 235.70 717.10 L 239.30 719.40 L 247.10 723.20 L 251.20 724.60 L 257.50 726.40 L 263.60 727.70 L 277.70 729.70 L 291.80 731.20 L 305.90 732.20 L 334.30 732.90 L 348.50 732.90 L 391.10 731.90 L 461.10 731.30 L 601.00 729.30 L 615.80 735.80 L 566.00 736.90 L 348.30 739.50 L 310.20 739.00 L 279.80 736.90 L 265.40 734.90 L 258.20 733.50 L 246.50 730.20 L 237.70 726.40 L 233.50 724.00 L 229.60 721.30 L 225.80 718.20 L 223.20 715.30 L 221.00 712.30 L 219.10 709.20 L 217.70 705.80 L 216.30 701.10 L 215.30 696.20 L 214.90 691.20 L 215.40 681.20 L 217.30 671.00 L 220.40 660.70 L 223.40 653.10 L 237.00 623.60 L 239.80 616.00 L 240.90 612.30 L 242.00 604.80 L 242.10 599.10 L 240.90 587.70 L 238.10 570.80 L 243.10 565.80 L 246.90 583.20 L 248.40 592.00 L 249.90 604.30 L 250.60 607.50 L 253.20 613.40 L 257.00 618.70 L 264.10 625.80 L 271.50 632.40 L 278.20 637.60 L 285.30 642.70 L 290.30 645.70 L 295.50 648.40 L 300.70 650.70 L 306.20 652.50 L 311.70 653.70 L 317.30 654.30 L 321.50 654.30 L 325.70 653.80 L 330.00 652.90 L 334.30 651.50 L 342.10 646.70 L 347.30 639.80 L 348.80 637.30 L 350.00 634.70 L 350.70 632.00 L 350.60 628.20 L 347.70 619.00 L 345.00 611.90 L 341.90 604.90 L 338.50 598.10 L 334.70 591.50 L 326.10 578.90 L 321.40 572.90 L 314.60 565.20 L 307.40 558.10 L 295.30 547.70 L 285.80 541.30 L 263.10 528.50 L 255.80 523.90 L 251.20 520.50 L 246.80 516.80 L 242.70 512.70 Z M 246.70 621.40 L 244.50 629.90 L 264.10 635.10 L 246.70 621.40 Z" fill="#2e1923" fill-rule="nonzero" node-id="58" stroke="none" target-height="226.79999" target-width="400.9" target-x="214.9" target-y="512.7"></path><path d="M 288.10 282.70 L 316.00 280.00 L 350.90 278.20 L 371.90 277.70 L 455.90 277.00 L 461.80 288.30 L 475.40 287.90 L 479.90 277.30 L 531.30 277.90 L 557.00 277.30 L 551.00 285.80 L 546.40 295.10 L 543.20 305.00 L 542.20 310.00 L 541.70 315.10 L 541.50 320.30 L 541.80 325.30 L 542.50 330.30 L 543.70 335.30 L 545.30 340.10 L 547.50 344.80 L 550.20 349.30 L 553.40 353.60 L 532.80 378.40 L 522.80 391.10 L 517.50 385.90 L 511.90 381.20 L 506.10 377.10 L 500.10 373.40 L 493.90 370.00 L 487.40 367.10 L 480.80 364.60 L 474.00 362.40 L 464.80 360.10 L 455.50 358.30 L 445.90 357.00 L 436.30 356.30 L 426.60 356.00 L 417.00 356.10 L 407.30 356.60 L 388.60 358.50 L 378.80 360.10 L 369.10 362.00 L 359.60 364.40 L 350.20 367.20 L 340.90 370.40 L 329.50 374.90 L 318.30 380.00 L 307.40 385.60 L 296.80 391.80 L 286.50 398.50 L 276.50 405.60 L 266.80 413.20 L 257.50 421.20 L 248.50 429.70 L 239.90 438.50 L 231.70 447.70 L 224.00 457.20 L 178.70 507.70 L 180.00 474.50 L 180.70 424.50 L 181.40 407.90 L 183.00 385.70 L 184.20 374.70 L 185.60 367.20 L 187.60 360.00 L 190.10 353.00 L 193.20 346.30 L 196.70 339.90 L 200.70 333.70 L 205.10 327.80 L 210.00 322.20 L 215.20 317.00 L 220.70 312.00 L 226.60 307.40 L 232.70 303.10 L 239.10 299.20 L 245.70 295.70 L 252.50 292.50 L 259.40 289.70 L 266.50 287.30 L 273.70 285.30 L 280.90 283.80 L 288.10 282.70 Z" fill="#f8ba6e" fill-rule="nonzero" node-id="60" stroke="none" target-height="230.70001" target-width="378.3" target-x="178.7" target-y="277"></path><path d="M 565.20 269.80 L 575.50 267.60 L 561.80 282.30 L 557.70 287.50 L 555.30 291.20 L 553.20 295.10 L 551.40 299.30 L 550.00 304.30 L 549.00 309.40 L 548.20 319.80 L 548.60 330.20 L 550.90 345.60 L 552.40 341.90 L 554.20 334.30 L 554.90 328.30 L 555.70 316.20 L 556.90 306.40 L 559.00 299.00 L 560.60 295.50 L 562.80 292.10 L 568.60 285.10 L 571.90 281.70 L 575.50 278.70 L 579.30 276.20 L 583.50 274.00 L 587.70 272.30 L 592.10 270.90 L 601.40 269.30 L 610.70 269.20 L 620.10 270.70 L 629.00 273.50 L 633.30 275.50 L 637.40 277.80 L 641.20 280.50 L 644.80 283.50 L 648.20 286.90 L 648.50 274.50 L 654.50 285.00 L 666.50 283.20 L 674.80 281.50 L 691.30 277.40 L 701.90 275.70 L 712.50 274.40 L 723.20 273.70 L 734.00 273.30 L 755.50 273.70 L 787.60 276.00 L 796.90 277.20 L 806.10 279.10 L 815.40 281.50 L 822.20 283.80 L 828.80 286.50 L 835.30 289.50 L 841.50 292.80 L 847.60 296.60 L 853.30 300.70 L 858.80 305.20 L 863.90 310.00 L 868.60 315.20 L 872.90 320.80 L 876.70 326.80 L 880.10 333.20 L 892.50 333.10 L 904.90 334.30 L 911.00 335.50 L 916.90 337.10 L 922.70 339.30 L 928.30 342.00 L 933.60 345.30 L 941.10 350.90 L 947.60 357.60 L 951.40 362.60 L 954.70 367.90 L 957.40 373.50 L 959.10 377.90 L 961.30 387.00 L 961.80 391.60 L 962.00 396.30 L 961.70 400.90 L 961.00 405.50 L 958.60 414.60 L 957.00 418.70 L 952.70 426.50 L 949.20 431.30 L 945.30 435.80 L 941.00 440.00 L 936.40 443.90 L 926.80 450.90 L 937.10 487.70 L 941.00 506.40 L 945.70 507.80 L 954.70 511.60 L 959.00 514.00 L 964.40 517.70 L 969.30 521.90 L 973.90 526.50 L 978.00 531.60 L 981.50 536.90 L 984.50 542.60 L 987.80 551.70 L 989.70 561.10 L 990.00 566.00 L 989.90 570.90 L 989.30 575.80 L 988.30 580.80 L 982.30 575.50 L 982.50 569.40 L 982.30 563.20 L 981.40 557.10 L 979.10 548.10 L 975.40 539.80 L 972.90 536.00 L 970.10 532.40 L 966.90 529.10 L 958.80 523.00 L 954.20 520.40 L 949.60 518.20 L 944.70 516.60 L 939.70 515.30 L 934.70 514.50 L 929.60 514.10 L 919.30 514.60 L 909.10 516.60 L 904.10 518.10 L 897.50 520.70 L 891.30 523.80 L 885.30 527.50 L 881.00 530.60 L 873.30 537.50 L 866.60 545.50 L 863.80 549.80 L 861.40 554.30 L 859.30 559.00 L 857.70 563.90 L 856.50 568.90 L 855.80 574.10 L 855.50 586.00 L 855.80 592.40 L 856.70 598.80 L 858.60 608.20 L 861.10 617.50 L 872.80 654.50 L 875.70 666.90 L 876.60 673.30 L 877.10 679.60 L 877.10 686.10 L 876.10 698.00 L 875.00 703.30 L 872.60 710.10 L 869.10 716.30 L 866.90 719.00 L 864.40 721.50 L 861.60 723.60 L 858.50 725.30 L 855.00 726.70 L 848.60 728.50 L 835.50 730.90 L 825.60 732.00 L 815.70 732.70 L 769.60 733.10 L 763.60 733.60 L 739.60 737.80 L 733.60 738.40 L 727.60 738.40 L 723.70 737.90 L 719.70 737.10 L 715.70 735.70 L 713.50 733.80 L 723.30 732.60 L 738.70 731.70 L 746.90 730.20 L 752.90 727.90 L 755.70 726.30 L 758.30 724.20 L 760.70 721.60 L 762.90 718.20 L 764.60 714.70 L 765.90 711.00 L 767.40 703.40 L 767.70 699.40 L 767.60 693.50 L 766.90 687.50 L 764.30 676.10 L 761.10 668.50 L 757.30 661.40 L 753.00 654.60 L 748.30 648.10 L 743.00 642.00 L 737.40 636.30 L 731.40 631.00 L 725.00 626.10 L 718.30 621.70 L 711.30 617.70 L 704.10 614.20 L 696.60 611.20 L 688.90 608.70 L 681.10 606.80 L 673.20 605.40 L 665.10 604.50 L 697.30 616.00 L 705.20 619.20 L 712.80 623.00 L 717.60 625.80 L 722.30 629.10 L 731.60 637.10 L 741.00 646.80 L 745.30 652.00 L 749.40 657.40 L 753.00 663.00 L 756.20 668.90 L 758.90 674.90 L 761.10 681.10 L 762.30 685.90 L 763.00 690.80 L 763.40 695.80 L 763.10 704.70 L 762.30 708.40 L 761.20 712.00 L 759.60 715.50 L 757.60 718.80 L 755.30 721.80 L 752.70 724.50 L 749.80 726.70 L 746.50 728.50 L 744.00 729.50 L 738.40 730.40 L 730.30 730.20 L 725.40 729.70 L 716.20 727.50 L 710.40 725.30 L 704.70 722.60 L 699.30 719.30 L 694.20 715.60 L 689.20 711.60 L 684.50 707.20 L 677.70 700.10 L 671.50 692.60 L 660.30 677.20 L 662.60 669.60 L 664.40 662.00 L 665.60 654.40 L 666.30 646.80 L 666.50 639.10 L 666.20 631.50 L 665.40 623.90 L 664.20 616.30 L 662.50 608.70 L 658.10 594.00 L 655.30 586.70 L 651.00 577.20 L 646.20 568.00 L 640.90 559.10 L 635.00 550.50 L 628.80 542.30 L 622.20 534.60 L 639.00 564.10 L 647.90 580.70 L 653.90 594.50 L 656.40 601.50 L 658.40 608.80 L 661.20 623.00 L 662.00 629.80 L 662.30 636.60 L 662.20 643.40 L 661.60 650.20 L 660.70 657.00 L 657.70 670.30 L 655.70 676.90 L 661.20 685.10 L 671.00 698.50 L 679.80 708.50 L 684.60 713.10 L 689.60 717.30 L 694.90 721.10 L 699.10 723.70 L 708.10 727.90 L 712.90 729.60 L 707.70 733.00 L 689.40 733.40 L 645.20 735.70 L 630.50 736.10 L 615.80 735.80 L 601.00 729.30 L 615.20 728.80 L 657.80 728.40 L 676.70 727.30 L 686.10 726.20 L 687.00 723.30 L 664.70 699.90 L 659.60 693.70 L 654.70 687.30 L 650.20 690.60 L 645.60 693.40 L 640.90 695.70 L 636.10 697.60 L 629.50 699.50 L 622.80 700.80 L 615.90 701.50 L 609.00 701.70 L 602.00 701.50 L 594.90 700.80 L 584.30 699.30 L 573.80 697.40 L 545.80 691.40 L 548.20 688.70 L 551.80 682.90 L 553.70 678.20 L 555.10 673.20 L 557.10 662.90 L 566.00 606.20 L 567.40 594.60 L 568.80 575.10 L 568.50 559.50 L 567.70 548.40 L 566.40 537.50 L 564.60 526.60 L 560.00 505.00 L 552.90 478.40 L 537.10 424.90 L 534.90 419.40 L 532.10 414.20 L 528.90 409.20 L 525.30 404.40 L 521.30 399.80 L 512.60 391.40 L 508.00 387.50 L 500.80 382.00 L 493.50 377.00 L 479.10 371.00 L 468.10 367.80 L 462.00 366.50 L 446.50 364.50 L 437.10 363.90 L 418.30 363.40 L 406.90 363.70 L 395.50 364.50 L 379.20 366.90 L 363.20 370.50 L 347.40 375.20 L 337.70 378.50 L 329.30 382.00 L 313.10 390.00 L 297.50 399.20 L 277.80 412.90 L 272.20 417.20 L 261.60 426.50 L 254.10 434.00 L 234.60 455.20 L 226.10 463.90 L 224.00 457.20 L 231.70 447.70 L 239.90 438.50 L 248.50 429.70 L 257.50 421.20 L 266.80 413.20 L 276.50 405.60 L 286.50 398.50 L 296.80 391.80 L 307.40 385.60 L 318.30 380.00 L 329.50 374.90 L 340.90 370.40 L 350.20 367.20 L 359.60 364.40 L 369.10 362.00 L 378.80 360.10 L 388.60 358.50 L 407.30 356.60 L 417.00 356.10 L 426.60 356.00 L 436.30 356.30 L 445.90 357.00 L 455.50 358.30 L 464.80 360.10 L 474.00 362.40 L 480.80 364.60 L 487.40 367.10 L 493.90 370.00 L 500.10 373.40 L 506.10 377.10 L 511.90 381.20 L 517.50 385.90 L 522.80 391.10 L 532.80 378.40 L 553.40 353.60 L 550.20 349.30 L 547.50 344.80 L 545.30 340.10 L 543.70 335.30 L 542.50 330.30 L 541.80 325.30 L 541.50 320.30 L 541.70 315.10 L 543.20 305.00 L 544.60 300.00 L 546.40 295.10 L 551.00 285.80 L 557.00 277.30 L 531.30 277.90 L 479.90 277.30 L 482.20 272.40 L 489.10 271.60 L 502.90 271.00 L 544.60 271.70 L 558.40 270.80 L 565.20 269.80 Z M 695.10 283.20 L 708.70 284.30 L 749.90 285.60 L 746.10 290.60 L 751.20 287.50 L 760.90 288.70 L 770.50 290.40 L 780.00 292.60 L 789.40 295.30 L 798.70 298.50 L 807.80 302.10 L 816.70 306.20 L 825.50 310.60 L 834.00 315.50 L 842.30 320.80 L 850.30 326.40 L 860.20 334.00 L 862.50 335.30 L 865.00 336.20 L 868.90 336.90 L 873.00 337.20 L 870.80 332.30 L 868.20 327.60 L 865.40 323.20 L 862.20 319.10 L 857.40 314.00 L 852.30 309.20 L 846.60 304.90 L 840.70 301.00 L 834.60 297.40 L 821.60 291.40 L 808.40 286.90 L 796.00 284.50 L 783.50 282.50 L 770.90 281.00 L 758.20 280.00 L 745.50 279.60 L 732.80 279.60 L 720.20 280.30 L 707.60 281.40 L 695.10 283.20 Z M 606.50 313.60 L 596.50 321.20 L 586.70 329.40 L 577.30 338.00 L 563.80 351.60 L 551.50 366.20 L 545.80 373.90 L 540.60 381.70 L 535.70 389.80 L 531.20 398.00 L 557.90 437.10 L 583.90 476.80 L 616.80 518.90 L 634.10 539.10 L 643.20 548.80 L 652.70 558.20 L 662.60 567.10 L 711.40 605.10 L 727.10 618.40 L 734.70 625.30 L 742.00 632.50 L 748.90 640.10 L 762.70 656.60 L 766.80 660.10 L 769.20 661.30 L 771.90 661.90 L 780.00 662.90 L 788.20 663.40 L 796.40 663.50 L 804.50 663.10 L 812.60 662.30 L 820.70 661.00 L 826.20 659.40 L 831.80 657.20 L 838.80 653.40 L 845.00 648.50 L 847.60 645.70 L 849.90 642.60 L 851.80 639.30 L 853.30 635.70 L 854.30 631.80 L 850.50 610.40 L 849.00 599.60 L 848.00 588.80 L 847.70 574.30 L 848.10 567.00 L 839.90 567.40 L 835.00 565.80 L 830.40 563.90 L 825.90 561.60 L 821.70 558.90 L 817.60 555.90 L 813.90 552.60 L 810.40 549.00 L 807.20 545.10 L 804.40 541.00 L 801.90 536.70 L 799.80 532.10 L 798.00 527.30 L 794.80 515.80 L 793.60 509.80 L 792.80 503.70 L 792.20 491.50 L 792.60 485.40 L 793.50 479.40 L 794.90 473.60 L 798.10 465.20 L 802.70 457.30 L 805.00 454.50 L 807.50 452.10 L 810.30 450.30 L 813.40 448.80 L 816.60 447.80 L 823.50 446.80 L 830.50 447.20 L 835.70 448.20 L 840.60 449.80 L 849.90 454.80 L 858.60 461.10 L 863.80 465.90 L 868.60 471.20 L 873.00 476.80 L 876.90 482.80 L 880.20 489.10 L 883.00 495.70 L 886.00 505.90 L 887.50 516.40 L 894.80 513.30 L 902.20 510.70 L 909.80 508.70 L 917.60 507.20 L 925.40 506.40 L 933.40 506.10 L 924.30 468.90 L 920.90 456.50 L 913.30 432.00 L 908.90 420.00 L 903.90 408.30 L 898.50 396.80 L 893.90 388.40 L 889.00 380.20 L 883.60 372.20 L 871.70 356.80 L 865.20 349.60 L 858.30 342.90 L 851.10 336.50 L 843.40 330.60 L 835.50 325.10 L 827.30 320.00 L 818.80 315.30 L 810.10 311.00 L 801.20 307.20 L 792.20 303.70 L 782.90 300.70 L 773.50 298.20 L 764.10 296.00 L 754.60 294.30 L 745.00 293.00 L 746.10 290.60 L 703.00 290.10 L 688.40 290.40 L 678.70 290.90 L 659.70 293.00 L 650.30 294.80 L 641.10 297.10 L 632.10 300.10 L 625.50 302.80 L 619.10 305.90 L 612.70 309.50 L 606.50 313.60 Z M 821.60 497.40 L 819.80 498.60 L 818.50 500.00 L 817.80 501.40 L 817.50 504.80 L 818.00 506.60 L 819.30 509.20 L 821.20 511.50 L 822.80 512.90 L 826.20 514.70 L 828.10 515.20 L 830.00 515.20 L 831.90 514.90 L 832.00 512.40 L 830.90 506.40 L 829.70 503.40 L 828.80 501.60 L 826.40 498.80 L 825.00 497.90 L 823.40 497.40 L 821.60 497.40 Z M 837.80 661.60 L 832.50 664.30 L 827.10 666.50 L 821.60 668.20 L 810.10 670.40 L 804.30 670.90 L 795.50 671.30 L 786.60 671.10 L 769.20 669.80 L 770.90 676.10 L 772.30 682.40 L 773.10 688.80 L 773.50 695.20 L 773.30 701.60 L 772.50 707.90 L 771.40 712.50 L 770.00 717.10 L 768.10 721.60 L 765.80 726.00 L 783.50 726.40 L 801.20 726.20 L 818.80 725.40 L 840.60 723.40 L 849.20 721.60 L 855.80 718.80 L 860.40 715.60 L 862.30 713.70 L 864.00 711.30 L 865.40 708.60 L 867.40 703.10 L 868.90 697.50 L 869.70 691.80 L 870.10 686.10 L 870.00 680.30 L 869.60 674.40 L 868.30 665.70 L 866.40 657.10 L 861.60 640.40 L 857.70 643.90 L 846.50 655.40 L 840.90 659.80 L 837.80 661.60 Z" fill="#301925" fill-rule="nonzero" node-id="62" stroke="none" target-height="470.80002" target-width="766" target-x="224" target-y="267.6"></path><path d="M 246.90 441.90 L 254.10 434.00 L 261.60 426.50 L 266.80 421.70 L 277.80 412.90 L 283.10 417.80 L 288.80 422.20 L 294.80 426.20 L 313.20 437.50 L 319.20 441.50 L 333.00 452.20 L 340.70 459.00 L 348.00 466.10 L 355.00 473.70 L 361.50 481.50 L 367.70 489.70 L 373.40 498.20 L 378.70 507.00 L 383.60 516.00 L 388.00 525.20 L 391.90 534.70 L 395.30 544.40 L 398.00 554.10 L 402.30 573.80 L 404.70 588.70 L 406.70 603.80 L 409.70 633.90 L 401.40 633.80 L 415.10 671.70 L 407.10 670.20 L 399.10 668.20 L 388.70 664.70 L 378.90 659.90 L 374.30 657.10 L 370.00 653.80 L 366.10 650.20 L 362.50 646.10 L 359.30 641.60 L 357.60 631.50 L 356.00 611.60 L 365.70 616.80 L 366.40 609.20 L 366.70 601.50 L 366.60 593.90 L 365.20 578.80 L 362.20 563.90 L 360.20 556.60 L 357.00 546.90 L 353.20 537.50 L 348.80 528.30 L 343.90 519.40 L 338.50 510.90 L 332.60 502.60 L 326.80 495.90 L 320.80 489.40 L 314.50 483.20 L 301.00 471.60 L 293.90 466.30 L 286.60 461.40 L 279.10 456.70 L 271.30 452.50 L 263.40 448.60 L 255.20 445.00 L 246.90 441.90 Z" fill="#aed9e0" fill-rule="nonzero" node-id="64" stroke="none" target-height="258.80002" target-width="168.20001" target-x="246.9" target-y="412.9"></path><path d="M 555.10 201.70 L 556.80 200.60 L 559.70 197.80 L 561.30 195.20 L 565.60 186.80 L 567.10 184.10 L 568.90 181.90 L 571.90 179.70 L 573.70 179.00 L 583.30 192.20 L 588.40 198.60 L 596.80 203.40 L 614.30 211.80 L 602.80 220.90 L 597.40 225.80 L 592.50 231.10 L 589.50 235.00 L 586.90 239.10 L 583.00 246.80 L 579.90 249.40 L 575.20 251.30 L 567.50 253.10 L 563.30 237.80 L 561.90 234.10 L 560.00 230.60 L 556.30 227.00 L 540.30 213.80 L 536.50 210.30 L 555.10 201.70 Z" fill="#efa07c" fill-rule="nonzero" node-id="66" stroke="none" target-height="74.100006" target-width="77.79999" target-x="536.5" target-y="179"></path><path d="M 662.10 254.30 L 668.70 250.80 L 674.30 246.20 L 677.50 242.60 L 680.40 238.70 L 683.00 234.40 L 692.20 246.70 L 705.50 252.10 L 698.90 259.40 L 696.00 263.50 L 693.70 267.70 L 692.50 270.70 L 691.70 274.00 L 691.30 277.40 L 674.80 281.50 L 658.10 284.50 L 675.60 279.30 L 684.50 277.10 L 672.80 266.20 L 667.30 260.40 L 662.10 254.30 Z" fill="#efa16f" fill-rule="nonzero" node-id="68" stroke="none" target-height="50.100006" target-width="47.400024" target-x="658.1" target-y="234.4"></path><path d="M 569.20 268.90 L 572.10 265.90 L 575.30 263.30 L 578.70 261.20 L 582.40 259.50 L 586.20 258.20 L 590.20 257.30 L 596.30 256.50 L 602.50 256.30 L 608.70 256.60 L 614.70 257.30 L 621.00 258.50 L 627.40 260.20 L 635.40 263.50 L 639.20 265.60 L 642.70 268.10 L 645.80 271.00 L 648.50 274.50 L 648.20 286.90 L 644.80 283.50 L 641.20 280.50 L 637.40 277.80 L 633.30 275.50 L 624.60 271.90 L 615.40 269.80 L 606.00 269.10 L 596.70 269.90 L 592.10 270.90 L 587.70 272.30 L 583.50 274.00 L 579.40 276.20 L 575.50 278.70 L 571.90 281.70 L 568.60 285.10 L 562.80 292.10 L 560.60 295.50 L 559.00 299.00 L 556.90 306.40 L 556.30 310.30 L 554.20 334.30 L 553.40 338.20 L 550.90 345.60 L 549.60 337.90 L 548.30 325.00 L 548.40 314.60 L 549.00 309.40 L 550.00 304.30 L 551.40 299.30 L 553.20 295.10 L 555.30 291.20 L 557.70 287.50 L 561.80 282.30 L 575.50 267.60 L 569.20 268.90 Z" fill="#38242b" fill-rule="nonzero" node-id="70" stroke="none" target-height="89.30002" target-width="100.20001" target-x="548.3" target-y="256.3"></path><path d="M 453.00 271.80 L 461.60 264.40 L 462.70 267.10 L 463.70 268.40 L 464.40 268.90 L 465.10 268.90 L 465.90 268.50 L 466.90 267.20 L 468.00 264.60 L 480.50 268.80 L 489.10 270.30 L 529.40 270.60 L 547.30 270.40 L 565.20 269.80 L 558.40 270.80 L 544.60 271.70 L 502.90 271.00 L 489.10 271.60 L 482.20 272.40 L 475.40 287.90 L 465.30 288.20 L 465.70 284.90 L 465.40 283.30 L 464.90 282.60 L 464.00 282.50 L 462.60 283.10 L 460.10 285.10 L 453.00 271.80 Z" fill="#d5a885" fill-rule="nonzero" node-id="72" stroke="none" target-height="23.800018" target-width="112.20001" target-x="453" target-y="264.4"></path><path d="M 461.60 264.40 L 468.00 264.60 L 466.90 267.20 L 465.90 268.50 L 465.10 268.90 L 464.40 268.90 L 463.70 268.40 L 462.70 267.10 L 461.60 264.40 Z" fill="#ad7a61" fill-rule="nonzero" node-id="74" stroke="none" target-height="4.5" target-width="6.399994" target-x="461.6" target-y="264.4"></path><path d="M 288.30 276.20 L 306.50 274.50 L 324.80 273.10 L 343.10 272.20 L 370.60 271.40 L 398.10 271.20 L 453.00 271.80 L 455.90 277.00 L 371.90 277.70 L 350.90 278.20 L 329.90 279.10 L 302.10 281.20 L 288.10 282.70 L 280.90 283.80 L 273.70 285.30 L 266.50 287.30 L 259.40 289.70 L 252.50 292.50 L 245.70 295.70 L 239.10 299.20 L 232.70 303.10 L 226.60 307.40 L 220.70 312.00 L 215.20 317.00 L 210.00 322.20 L 205.10 327.80 L 200.70 333.70 L 196.70 339.90 L 193.20 346.30 L 190.10 353.00 L 187.60 360.00 L 185.60 367.20 L 184.20 374.70 L 183.00 385.70 L 181.40 407.90 L 180.70 424.50 L 180.00 474.50 L 178.70 507.70 L 224.00 457.20 L 226.10 463.90 L 185.40 509.10 L 195.30 513.20 L 214.70 522.30 L 220.20 528.10 L 225.30 534.30 L 230.00 540.70 L 234.40 547.50 L 238.30 554.40 L 241.90 561.60 L 243.10 565.80 L 238.10 570.80 L 233.40 558.90 L 230.60 553.10 L 227.40 547.50 L 223.80 542.20 L 219.80 537.30 L 213.00 530.60 L 209.20 527.60 L 201.30 522.50 L 193.00 518.80 L 188.70 517.50 L 182.80 516.30 L 176.80 515.70 L 170.70 515.80 L 164.70 516.40 L 158.80 517.60 L 153.00 519.40 L 147.40 521.70 L 142.10 524.60 L 137.20 528.00 L 130.50 534.10 L 127.60 537.60 L 122.30 545.80 L 120.10 550.40 L 118.50 555.30 L 117.30 560.30 L 116.70 565.40 L 116.70 570.60 L 117.10 575.70 L 118.10 580.70 L 119.50 585.70 L 121.50 590.40 L 124.10 594.80 L 127.20 599.10 L 130.50 602.90 L 134.20 606.30 L 138.20 609.20 L 142.50 611.70 L 151.60 615.90 L 165.80 620.90 L 168.20 663.50 L 170.40 727.50 L 171.80 757.00 L 172.20 781.50 L 173.70 792.30 L 174.90 797.60 L 201.80 798.60 L 255.60 799.20 L 470.40 799.60 L 878.40 799.20 L 896.50 799.80 L 902.50 799.70 L 908.40 799.20 L 916.10 797.50 L 919.90 796.20 L 921.40 792.70 L 922.50 788.90 L 923.10 785.10 L 924.00 773.40 L 927.50 706.70 L 930.60 639.90 L 931.30 630.20 L 932.10 625.40 L 933.40 620.70 L 938.70 617.90 L 955.20 610.20 L 958.70 608.20 L 962.10 606.00 L 968.10 601.00 L 972.70 595.40 L 975.70 590.70 L 978.20 585.80 L 982.30 575.50 L 988.30 580.80 L 986.20 586.30 L 983.60 591.40 L 980.60 596.20 L 977.10 600.70 L 973.30 604.90 L 969.20 608.80 L 964.70 612.30 L 960.00 615.50 L 955.00 618.30 L 949.80 620.80 L 944.50 622.80 L 939.00 624.50 L 937.10 652.20 L 931.50 763.10 L 929.50 790.80 L 928.40 793.70 L 927.10 796.20 L 923.90 800.00 L 921.30 801.90 L 918.30 803.40 L 915.00 804.50 L 909.80 805.50 L 904.20 806.00 L 882.50 805.80 L 881.30 820.40 L 880.60 825.20 L 879.60 829.90 L 878.10 834.60 L 875.60 837.10 L 872.90 839.20 L 869.80 840.90 L 866.60 842.10 L 863.20 843.00 L 856.10 843.50 L 849.00 842.60 L 842.40 840.20 L 839.40 838.60 L 836.90 836.60 L 834.90 834.30 L 833.40 831.90 L 831.10 826.50 L 829.70 819.00 L 828.60 805.40 L 641.00 806.00 L 265.70 805.00 L 263.60 821.20 L 262.50 826.60 L 261.50 830.10 L 260.00 833.30 L 258.30 836.20 L 254.70 839.90 L 249.70 842.80 L 240.50 844.20 L 235.70 844.20 L 231.00 843.60 L 227.90 842.90 L 222.40 840.40 L 219.90 838.60 L 217.80 836.40 L 215.90 833.70 L 214.50 828.90 L 213.80 824.00 L 213.00 804.20 L 204.50 804.00 L 190.20 805.00 L 185.40 805.00 L 180.90 804.60 L 176.70 803.70 L 174.10 802.70 L 171.80 801.30 L 169.80 799.60 L 168.10 797.50 L 166.70 794.80 L 165.60 791.40 L 159.90 626.70 L 146.30 621.20 L 141.90 619.10 L 133.50 614.10 L 129.70 611.20 L 126.10 608.00 L 119.90 600.80 L 117.50 597.20 L 113.70 589.50 L 111.90 584.00 L 110.70 578.40 L 110.10 572.60 L 110.10 566.80 L 110.60 561.10 L 111.70 555.30 L 113.40 549.80 L 115.60 544.40 L 118.40 539.30 L 120.80 535.70 L 126.40 529.10 L 133.70 522.80 L 138.00 519.80 L 142.50 517.30 L 152.00 513.20 L 164.60 509.70 L 172.30 508.20 L 172.80 490.70 L 173.80 420.60 L 174.70 403.20 L 176.80 379.90 L 178.30 368.30 L 180.20 360.70 L 182.60 353.50 L 185.50 346.50 L 188.90 339.70 L 192.90 333.20 L 197.20 327.10 L 201.90 321.20 L 207.10 315.60 L 212.60 310.30 L 218.50 305.40 L 224.60 300.80 L 231.00 296.50 L 237.70 292.60 L 244.50 289.10 L 251.50 285.90 L 258.70 283.20 L 266.00 280.80 L 273.40 278.80 L 280.80 277.30 L 288.30 276.20 Z M 219.90 805.10 L 220.30 822.60 L 221.50 831.30 L 223.50 833.60 L 225.80 835.40 L 228.50 836.90 L 231.40 837.90 L 234.40 838.60 L 237.50 838.90 L 240.60 838.70 L 243.70 838.20 L 246.60 837.30 L 249.40 836.00 L 251.80 834.30 L 253.90 832.20 L 255.70 827.80 L 257.00 823.30 L 260.10 804.70 L 240.00 804.60 L 219.90 805.10 Z M 834.20 804.70 L 835.30 819.70 L 836.00 823.40 L 837.10 826.80 L 839.60 831.00 L 841.40 832.80 L 844.60 834.50 L 847.90 835.80 L 851.50 836.80 L 855.10 837.30 L 858.80 837.40 L 862.40 837.10 L 865.90 836.30 L 869.20 835.00 L 872.40 833.20 L 873.80 828.60 L 874.70 823.90 L 876.20 804.90 L 834.20 804.70 Z" fill="#1e0e14" fill-rule="nonzero" node-id="76" stroke="none" target-height="573" target-width="878.2" target-x="110.1" target-y="271.2"></path><path d="M 460.10 285.10 L 462.60 283.10 L 464.00 282.50 L 464.90 282.60 L 465.40 283.30 L 465.70 284.90 L 465.30 288.20 L 461.80 288.30 L 460.10 285.10 Z" fill="#9c6f61" fill-rule="nonzero" node-id="78" stroke="none" target-height="5.799988" target-width="5.600006" target-x="460.1" target-y="282.5"></path><path d="M 695.10 283.20 L 707.60 281.40 L 720.20 280.30 L 732.80 279.60 L 745.50 279.60 L 758.20 280.00 L 770.90 281.00 L 783.50 282.50 L 796.00 284.50 L 808.40 286.90 L 821.60 291.40 L 834.60 297.40 L 840.70 301.00 L 846.60 304.90 L 852.30 309.20 L 857.40 314.00 L 862.20 319.10 L 865.40 323.20 L 868.20 327.60 L 870.80 332.30 L 873.00 337.20 L 868.90 336.90 L 865.00 336.20 L 862.50 335.30 L 860.20 334.00 L 850.30 326.40 L 842.30 320.80 L 834.00 315.50 L 825.50 310.60 L 816.70 306.20 L 807.80 302.10 L 798.70 298.50 L 789.40 295.30 L 780.00 292.60 L 770.50 290.40 L 760.90 288.70 L 751.20 287.50 L 746.10 290.60 L 749.90 285.60 L 708.70 284.30 L 695.10 283.20 Z" fill="#f6c370" fill-rule="nonzero" node-id="80" stroke="none" target-height="57.600006" target-width="177.90002" target-x="695.1" target-y="279.6"></path><path d="M 659.00 552.30 L 675.90 556.50 L 742.60 576.10 L 759.40 580.40 L 768.90 582.40 L 778.50 583.70 L 788.10 584.50 L 797.80 584.70 L 807.50 584.30 L 817.10 583.40 L 826.70 581.80 L 836.10 579.70 L 845.40 577.00 L 839.90 567.40 L 848.10 567.00 L 847.70 574.30 L 848.00 588.80 L 849.00 599.60 L 850.50 610.40 L 854.30 631.80 L 853.30 635.70 L 851.80 639.30 L 849.90 642.60 L 847.60 645.70 L 845.00 648.50 L 838.80 653.40 L 831.80 657.20 L 826.20 659.40 L 820.70 661.00 L 812.60 662.30 L 804.50 663.10 L 796.40 663.50 L 788.20 663.40 L 780.00 662.90 L 771.90 661.90 L 769.20 661.30 L 766.80 660.10 L 764.60 658.50 L 762.70 656.60 L 748.90 640.10 L 742.00 632.50 L 734.70 625.30 L 727.10 618.40 L 711.40 605.10 L 662.60 567.10 L 659.00 552.30 Z" fill="#e0dde0" fill-rule="nonzero" node-id="82" stroke="none" target-height="111.20001" target-width="195.29999" target-x="659" target-y="552.3"></path><path d="M 347.40 375.20 L 363.20 370.50 L 371.20 368.50 L 379.20 366.90 L 395.50 364.50 L 399.80 370.90 L 404.60 377.00 L 415.10 388.30 L 431.40 404.70 L 444.30 419.40 L 451.50 428.70 L 458.40 438.40 L 464.80 448.30 L 470.70 458.50 L 476.30 468.90 L 481.50 479.50 L 486.30 490.30 L 490.70 501.30 L 498.40 523.70 L 501.70 535.00 L 505.90 555.80 L 507.40 566.20 L 509.30 582.00 L 510.60 597.80 L 511.50 613.70 L 513.10 661.40 L 510.50 647.70 L 508.40 634.00 L 500.80 644.10 L 497.70 644.50 L 494.90 644.30 L 492.20 643.60 L 489.60 642.60 L 484.60 639.60 L 477.80 634.20 L 470.80 640.70 L 472.30 635.50 L 473.40 630.30 L 474.10 625.00 L 474.50 617.00 L 473.80 600.90 L 471.50 576.90 L 469.90 564.70 L 467.80 552.70 L 465.10 540.80 L 461.80 529.00 L 458.00 517.40 L 453.70 506.10 L 448.90 494.90 L 443.50 483.90 L 437.70 473.10 L 431.50 462.70 L 424.80 452.50 L 417.70 442.50 L 410.10 432.90 L 402.20 423.50 L 394.00 414.60 L 385.30 405.90 L 376.30 397.60 L 367.00 389.80 L 357.30 382.30 L 347.40 375.20 Z" fill="#b0dae2" fill-rule="nonzero" node-id="84" stroke="none" target-height="296.90002" target-width="165.69998" target-x="347.4" target-y="364.5"></path><path d="M 249.60 600.80 L 255.50 604.30 L 261.00 608.30 L 266.30 612.60 L 276.00 622.20 L 290.00 637.40 L 293.40 640.50 L 298.40 643.90 L 303.90 646.10 L 318.30 647.80 L 326.40 649.40 L 334.30 651.50 L 330.00 652.90 L 325.70 653.80 L 321.50 654.30 L 317.30 654.30 L 311.70 653.70 L 306.20 652.50 L 300.70 650.70 L 290.30 645.70 L 285.30 642.70 L 278.20 637.60 L 271.50 632.40 L 260.40 622.30 L 257.00 618.70 L 254.90 616.10 L 251.70 610.50 L 250.60 607.50 L 249.90 604.30 L 249.60 600.80 Z" fill="#b0dae2" fill-rule="nonzero" node-id="86" stroke="none" target-height="53.5" target-width="84.69998" target-x="249.6" target-y="600.8"></path><path d="M 395.50 364.50 L 406.90 363.70 L 418.30 363.40 L 427.60 376.50 L 432.70 382.70 L 445.60 396.60 L 459.60 413.10 L 466.30 421.80 L 472.50 430.70 L 478.40 439.80 L 484.00 449.10 L 489.10 458.70 L 494.50 469.70 L 504.50 492.30 L 509.00 503.70 L 513.10 515.30 L 516.90 527.00 L 520.20 538.90 L 523.00 550.80 L 525.30 562.90 L 527.00 575.00 L 528.10 587.30 L 528.50 599.60 L 529.80 651.80 L 530.00 677.80 L 514.90 669.00 L 513.10 661.40 L 511.50 613.70 L 510.60 597.80 L 509.30 582.00 L 507.40 566.20 L 503.90 545.40 L 501.70 535.00 L 494.70 512.40 L 490.70 501.30 L 486.30 490.30 L 481.50 479.50 L 476.30 468.90 L 470.70 458.50 L 464.80 448.30 L 458.40 438.40 L 451.50 428.70 L 444.30 419.40 L 431.40 404.70 L 415.10 388.30 L 404.60 377.00 L 399.80 370.90 L 395.50 364.50 Z" fill="#f6f9f9" fill-rule="nonzero" node-id="88" stroke="none" target-height="314.4" target-width="134.5" target-x="395.5" target-y="363.4"></path><path d="M 418.30 363.40 L 437.10 363.90 L 446.50 364.50 L 462.00 366.50 L 474.20 369.40 L 456.90 369.50 L 467.40 378.20 L 477.40 387.20 L 483.90 393.50 L 496.00 406.80 L 501.60 413.90 L 506.90 421.20 L 517.20 437.10 L 526.90 454.20 L 540.70 480.20 L 545.60 488.80 L 550.90 497.10 L 549.70 489.30 L 548.10 481.70 L 546.10 474.20 L 542.50 463.10 L 538.40 452.10 L 529.30 430.60 L 525.90 423.80 L 522.10 417.30 L 517.90 411.00 L 513.20 405.10 L 508.20 399.40 L 502.90 394.10 L 497.30 389.00 L 491.40 384.30 L 493.50 377.00 L 500.80 382.00 L 512.60 391.40 L 521.30 399.80 L 525.30 404.40 L 528.90 409.20 L 532.10 414.20 L 534.90 419.40 L 537.10 424.90 L 552.90 478.40 L 560.00 505.00 L 564.60 526.60 L 566.40 537.50 L 567.70 548.40 L 568.80 567.30 L 568.40 582.90 L 567.40 594.60 L 566.00 606.20 L 557.10 662.90 L 555.10 673.20 L 553.70 678.20 L 551.80 682.90 L 548.20 688.70 L 545.80 691.40 L 532.80 689.30 L 526.40 687.80 L 520.20 685.90 L 516.20 684.20 L 512.30 682.10 L 508.60 679.60 L 514.90 669.00 L 530.00 677.80 L 529.80 651.80 L 528.10 587.30 L 527.00 575.00 L 525.30 562.90 L 523.00 550.80 L 520.20 538.90 L 516.90 527.00 L 513.10 515.30 L 509.00 503.70 L 499.60 480.90 L 489.10 458.70 L 484.00 449.10 L 478.40 439.80 L 472.50 430.70 L 466.30 421.80 L 459.60 413.10 L 445.60 396.60 L 432.70 382.70 L 427.60 376.50 L 418.30 363.40 Z" fill="#afd9e0" fill-rule="nonzero" node-id="90" stroke="none" target-height="328.00003" target-width="150.5" target-x="418.3" target-y="363.4"></path><path d="M 289.90 404.30 L 305.20 394.50 L 313.10 390.00 L 321.10 385.80 L 337.70 378.50 L 338.00 381.60 L 338.70 384.40 L 339.80 386.90 L 342.80 391.40 L 348.00 396.10 L 362.40 406.20 L 374.90 417.70 L 383.80 426.90 L 392.40 436.50 L 400.60 446.40 L 408.30 456.80 L 415.50 467.40 L 422.20 478.40 L 428.40 489.70 L 432.90 498.90 L 437.10 508.30 L 440.90 517.80 L 444.30 527.50 L 447.30 537.30 L 449.90 547.20 L 452.00 557.20 L 453.70 567.40 L 455.00 577.60 L 457.00 600.90 L 457.20 620.60 L 458.10 631.40 L 459.90 639.80 L 461.20 643.80 L 463.10 647.70 L 465.30 651.50 L 461.70 665.60 L 450.80 673.40 L 444.40 677.30 L 438.90 679.30 L 436.10 679.80 L 433.20 679.80 L 430.10 679.20 L 426.00 676.50 L 424.40 674.80 L 422.40 671.90 L 420.70 668.60 L 415.40 654.90 L 418.50 647.60 L 421.10 640.20 L 422.00 628.20 L 422.20 616.30 L 421.80 604.40 L 420.90 592.40 L 419.30 580.40 L 417.20 568.60 L 414.50 556.90 L 411.20 545.30 L 407.40 533.80 L 403.00 522.60 L 398.20 511.70 L 392.70 500.90 L 386.80 490.50 L 380.30 480.40 L 373.40 470.70 L 366.00 461.30 L 359.70 454.10 L 353.10 447.30 L 346.20 440.70 L 339.00 434.40 L 331.50 428.50 L 323.80 422.90 L 315.70 417.70 L 307.40 412.80 L 298.80 408.40 L 289.90 404.30 Z" fill="#afd9e0" fill-rule="nonzero" node-id="92" stroke="none" target-height="301.3" target-width="175.4" target-x="289.9" target-y="378.5"></path><path d="M 456.90 369.50 L 474.20 369.40 L 484.00 372.80 L 493.50 377.00 L 491.40 384.30 L 497.30 389.00 L 502.90 394.10 L 508.20 399.40 L 513.20 405.10 L 517.90 411.00 L 522.10 417.30 L 525.90 423.80 L 529.30 430.60 L 538.40 452.10 L 542.50 463.10 L 546.10 474.20 L 548.10 481.70 L 549.70 489.30 L 550.90 497.10 L 545.60 488.80 L 540.70 480.20 L 526.90 454.20 L 517.20 437.10 L 506.90 421.20 L 501.60 413.90 L 496.00 406.80 L 483.90 393.50 L 477.40 387.20 L 467.40 378.20 L 456.90 369.50 Z" fill="#f8fcf9" fill-rule="nonzero" node-id="94" stroke="none" target-height="127.70001" target-width="94.00003" target-x="456.9" target-y="369.4"></path><path d="M 337.70 378.50 L 347.40 375.20 L 357.30 382.30 L 367.00 389.80 L 376.30 397.60 L 385.30 405.90 L 394.00 414.60 L 402.20 423.50 L 410.10 432.90 L 417.70 442.50 L 424.80 452.50 L 431.50 462.70 L 437.70 473.10 L 443.50 483.90 L 448.90 494.90 L 453.70 506.10 L 458.00 517.40 L 461.80 529.00 L 465.10 540.80 L 467.80 552.70 L 469.90 564.70 L 471.50 576.90 L 473.80 600.90 L 474.40 609.00 L 474.50 617.00 L 474.10 625.00 L 473.40 630.30 L 472.30 635.50 L 470.80 640.70 L 465.30 651.50 L 463.10 647.70 L 461.20 643.80 L 459.90 639.80 L 458.10 631.40 L 457.20 620.60 L 457.00 600.90 L 456.60 594.30 L 453.70 567.40 L 452.00 557.20 L 449.90 547.20 L 447.30 537.30 L 444.30 527.50 L 440.90 517.80 L 437.10 508.30 L 432.90 498.90 L 428.40 489.70 L 422.20 478.40 L 415.50 467.40 L 408.30 456.80 L 400.60 446.40 L 392.40 436.50 L 383.80 426.90 L 374.90 417.70 L 362.40 406.20 L 348.00 396.10 L 342.80 391.40 L 339.80 386.90 L 338.70 384.40 L 338.00 381.60 L 337.70 378.50 Z" fill="#f9fafa" fill-rule="nonzero" node-id="96" stroke="none" target-height="276.3" target-width="136.79999" target-x="337.7" target-y="375.2"></path><path d="M 625.30 393.60 L 640.60 391.00 L 651.10 390.40 L 661.60 391.00 L 666.70 391.90 L 671.70 393.20 L 676.50 395.00 L 681.10 397.40 L 685.50 400.40 L 688.10 402.90 L 690.20 405.50 L 691.80 408.40 L 693.90 414.70 L 694.50 418.10 L 694.70 423.20 L 694.40 428.50 L 692.50 438.40 L 690.30 444.70 L 687.60 451.00 L 684.50 457.20 L 681.00 463.20 L 677.10 468.80 L 672.90 474.20 L 665.70 481.50 L 657.60 487.60 L 653.30 490.10 L 648.70 492.30 L 643.90 494.10 L 638.80 495.40 L 634.50 496.20 L 630.20 496.60 L 626.00 496.50 L 621.70 496.00 L 616.20 494.90 L 610.80 493.10 L 605.70 490.70 L 600.70 487.80 L 596.20 484.50 L 591.90 480.60 L 588.10 476.40 L 584.70 471.80 L 581.90 466.90 L 580.10 463.00 L 577.60 454.90 L 576.90 450.60 L 577.00 445.40 L 577.60 440.30 L 578.70 435.50 L 580.30 430.80 L 582.40 426.30 L 584.90 422.10 L 587.80 418.00 L 591.10 414.10 L 594.60 410.60 L 602.50 404.20 L 606.80 401.40 L 612.80 398.20 L 618.90 395.60 L 625.30 393.60 Z M 652.40 440.90 L 650.30 441.20 L 648.10 442.10 L 645.90 443.40 L 644.00 445.10 L 642.40 447.00 L 641.40 449.00 L 641.00 451.60 L 641.90 453.90 L 643.00 454.90 L 644.80 455.90 L 648.20 455.50 L 651.50 454.60 L 654.70 453.20 L 657.60 451.40 L 660.20 449.10 L 662.30 446.40 L 662.40 443.10 L 662.10 442.20 L 660.70 440.70 L 658.20 440.10 L 652.40 440.90 Z" fill="#311a26" fill-rule="nonzero" node-id="98" stroke="none" target-height="106.20001" target-width="117.79999" target-x="576.9" target-y="390.4"></path><path d="M 277.80 412.90 L 289.90 404.30 L 298.80 408.40 L 307.40 412.80 L 315.70 417.70 L 323.80 422.90 L 331.50 428.50 L 339.00 434.40 L 346.20 440.70 L 353.10 447.30 L 359.70 454.10 L 366.00 461.30 L 373.40 470.70 L 380.30 480.40 L 386.80 490.50 L 392.70 500.90 L 398.20 511.70 L 403.00 522.60 L 407.40 533.80 L 411.20 545.30 L 414.50 556.90 L 417.20 568.60 L 419.30 580.40 L 420.90 592.40 L 421.80 604.40 L 422.20 616.30 L 422.00 628.20 L 421.10 640.20 L 418.50 647.60 L 415.40 654.80 L 412.10 644.50 L 409.70 633.90 L 406.70 603.80 L 404.70 588.70 L 402.30 573.80 L 398.00 554.10 L 395.30 544.40 L 391.90 534.70 L 388.00 525.20 L 383.60 516.00 L 378.70 507.00 L 373.40 498.20 L 367.70 489.70 L 361.50 481.50 L 355.00 473.70 L 348.00 466.10 L 340.70 459.00 L 333.00 452.20 L 319.20 441.50 L 313.20 437.50 L 294.80 426.20 L 288.80 422.20 L 283.10 417.80 L 277.80 412.90 Z" fill="#fafcfc" fill-rule="nonzero" node-id="100" stroke="none" target-height="250.5" target-width="144.40002" target-x="277.8" target-y="404.3"></path><path d="M 652.40 440.90 L 658.20 440.10 L 660.70 440.70 L 662.10 442.20 L 662.40 443.10 L 662.30 446.40 L 660.20 449.10 L 657.60 451.40 L 654.70 453.20 L 651.50 454.60 L 648.20 455.50 L 644.80 455.90 L 643.00 454.90 L 641.90 453.90 L 641.00 451.60 L 641.40 449.00 L 642.40 447.00 L 644.00 445.10 L 645.90 443.40 L 648.10 442.10 L 650.30 441.20 L 652.40 440.90 Z" fill="#fffcfd" fill-rule="nonzero" node-id="102" stroke="none" target-height="15.799988" target-width="21.400024" target-x="641" target-y="440.1"></path><path d="M 234.60 455.20 L 246.90 441.90 L 255.20 445.00 L 263.40 448.60 L 271.30 452.50 L 279.10 456.70 L 286.60 461.40 L 293.90 466.30 L 301.00 471.60 L 314.50 483.20 L 320.80 489.40 L 326.80 495.90 L 332.60 502.60 L 338.50 510.90 L 343.90 519.40 L 348.80 528.30 L 353.20 537.50 L 357.00 546.90 L 360.20 556.60 L 363.90 571.30 L 366.10 586.40 L 366.60 593.90 L 366.70 601.50 L 366.40 609.20 L 365.70 616.80 L 356.00 611.60 L 354.10 600.10 L 351.60 588.70 L 348.60 577.30 L 345.30 566.10 L 337.80 543.90 L 335.00 537.30 L 331.90 531.00 L 328.50 524.90 L 324.70 519.10 L 320.50 513.60 L 311.40 503.20 L 306.40 498.30 L 299.40 492.20 L 292.00 486.40 L 284.30 481.00 L 276.40 475.90 L 259.90 466.80 L 247.20 460.70 L 234.60 455.20 Z" fill="#fcfcfa" fill-rule="nonzero" node-id="104" stroke="none" target-height="174.9" target-width="132.1" target-x="234.6" target-y="441.9"></path><path d="M 226.10 463.90 L 234.60 455.20 L 247.20 460.70 L 259.90 466.80 L 268.30 471.20 L 284.30 481.00 L 292.00 486.40 L 299.40 492.20 L 306.40 498.30 L 311.40 503.20 L 320.50 513.60 L 324.70 519.10 L 328.50 524.90 L 331.90 531.00 L 335.00 537.30 L 337.80 543.90 L 320.60 546.00 L 326.80 555.00 L 329.60 559.70 L 331.70 564.70 L 332.80 568.10 L 333.50 571.70 L 333.80 575.40 L 329.10 569.20 L 324.00 563.30 L 318.60 557.90 L 307.00 547.80 L 291.20 536.70 L 281.40 530.40 L 261.50 518.60 L 260.00 511.90 L 259.20 509.90 L 257.90 508.10 L 228.70 486.40 L 220.20 478.90 L 216.20 474.80 L 226.10 463.90 Z" fill="#acd8dd" fill-rule="nonzero" node-id="106" stroke="none" target-height="120.20001" target-width="121.59999" target-x="216.2" target-y="455.2"></path><path d="M 185.40 509.10 L 216.20 474.80 L 220.20 478.90 L 228.70 486.40 L 257.90 508.10 L 259.20 509.90 L 260.00 511.90 L 261.50 518.60 L 255.30 516.40 L 242.70 512.70 L 246.80 516.80 L 251.20 520.50 L 255.80 523.90 L 263.10 528.50 L 285.80 541.30 L 290.60 544.40 L 299.80 551.40 L 298.40 554.00 L 297.70 556.50 L 297.60 558.80 L 298.70 563.50 L 299.80 565.70 L 304.40 572.20 L 319.20 591.00 L 323.80 597.70 L 328.10 604.60 L 333.40 614.10 L 338.30 623.80 L 342.90 633.60 L 335.40 638.20 L 327.90 628.00 L 306.40 596.40 L 296.40 582.70 L 284.10 568.20 L 276.80 560.70 L 269.00 553.50 L 263.00 548.30 L 250.30 539.00 L 243.60 534.90 L 236.70 531.10 L 229.60 527.70 L 222.20 524.80 L 214.70 522.30 L 195.30 513.20 L 185.40 509.10 Z" fill="#e2f3f2" fill-rule="nonzero" node-id="108" stroke="none" target-height="163.40002" target-width="157.5" target-x="185.4" target-y="474.8"></path><path d="M 709.00 494.10 L 713.60 493.20 L 718.30 492.70 L 723.10 492.70 L 727.90 493.10 L 732.50 494.00 L 737.10 495.40 L 741.40 497.30 L 745.40 499.60 L 749.20 502.60 L 749.60 505.40 L 749.50 507.70 L 748.70 509.70 L 747.60 511.40 L 746.00 513.00 L 744.00 514.30 L 740.80 516.00 L 737.20 517.30 L 730.30 519.10 L 732.90 527.50 L 734.70 531.70 L 736.90 535.40 L 738.70 537.70 L 740.70 539.70 L 743.00 541.30 L 745.50 542.50 L 748.30 543.30 L 754.50 543.80 L 757.00 543.60 L 759.30 542.90 L 763.40 540.50 L 765.30 538.80 L 775.40 527.20 L 774.40 534.50 L 773.50 538.20 L 772.00 541.50 L 770.70 543.40 L 768.90 545.10 L 763.50 548.10 L 760.40 549.20 L 757.20 549.90 L 754.00 550.10 L 750.80 549.90 L 744.60 548.50 L 741.50 547.30 L 737.70 545.20 L 734.10 542.60 L 730.90 539.50 L 728.20 536.00 L 725.90 532.30 L 724.20 528.20 L 719.30 531.30 L 714.00 533.80 L 710.30 535.20 L 706.50 536.10 L 702.70 536.60 L 698.90 536.60 L 695.10 536.00 L 688.10 533.50 L 685.20 531.80 L 682.30 529.70 L 679.60 527.20 L 677.40 524.50 L 675.50 521.50 L 674.00 518.30 L 673.20 515.10 L 672.90 511.80 L 673.10 509.40 L 673.70 506.90 L 674.70 504.50 L 676.30 502.10 L 678.90 512.40 L 681.30 519.00 L 683.10 522.00 L 686.30 525.30 L 691.60 528.50 L 694.90 529.80 L 698.30 530.50 L 701.70 530.70 L 705.10 530.40 L 708.50 529.60 L 711.70 528.30 L 714.70 526.70 L 717.60 524.60 L 720.10 522.20 L 722.30 519.50 L 724.10 516.40 L 717.80 509.80 L 715.00 506.20 L 712.50 502.50 L 710.50 498.50 L 709.00 494.10 Z" fill="#401e2e" fill-rule="nonzero" node-id="110" stroke="none" target-height="57.399963" target-width="102.5" target-x="672.9" target-y="492.7"></path><path d="M 124.90 541.30 L 127.60 537.60 L 133.70 530.90 L 137.20 528.00 L 142.10 524.60 L 147.40 521.70 L 153.00 519.40 L 158.80 517.60 L 164.70 516.40 L 170.70 515.80 L 176.80 515.70 L 182.80 516.30 L 188.70 517.50 L 193.00 518.80 L 201.30 522.50 L 205.20 524.90 L 209.20 527.60 L 216.50 533.80 L 219.80 537.30 L 223.80 542.20 L 227.40 547.50 L 230.60 553.10 L 233.40 558.90 L 238.10 570.80 L 241.70 593.40 L 242.10 599.10 L 242.00 604.80 L 240.90 612.30 L 239.80 616.00 L 237.00 623.60 L 223.40 653.10 L 218.70 665.80 L 217.30 671.00 L 215.40 681.20 L 214.90 691.20 L 215.30 696.20 L 216.30 701.10 L 217.70 705.80 L 219.10 709.20 L 221.00 712.30 L 223.20 715.30 L 225.80 718.20 L 229.60 721.30 L 233.50 724.00 L 237.70 726.40 L 246.50 730.20 L 258.20 733.50 L 265.40 734.90 L 279.80 736.90 L 295.00 738.10 L 325.40 739.40 L 348.30 739.50 L 566.00 736.90 L 615.80 735.80 L 630.50 736.10 L 645.20 735.70 L 689.40 733.40 L 704.10 733.00 L 707.70 733.00 L 709.90 734.40 L 723.70 737.90 L 727.60 738.40 L 733.60 738.40 L 739.60 737.80 L 763.60 733.60 L 769.60 733.10 L 815.70 732.70 L 825.60 732.00 L 835.50 730.90 L 848.60 728.50 L 855.00 726.70 L 858.50 725.30 L 861.60 723.60 L 864.40 721.50 L 866.90 719.00 L 869.10 716.30 L 871.00 713.30 L 874.00 706.70 L 875.00 703.30 L 876.10 698.00 L 876.60 692.70 L 877.10 686.10 L 877.10 679.60 L 876.60 673.30 L 874.40 660.70 L 870.10 645.20 L 861.10 617.50 L 858.60 608.20 L 856.70 598.80 L 855.80 592.40 L 855.50 586.00 L 855.80 574.10 L 856.50 568.90 L 857.70 563.90 L 859.30 559.00 L 861.40 554.30 L 863.80 549.80 L 866.60 545.50 L 873.30 537.50 L 881.00 530.60 L 885.30 527.50 L 891.30 523.80 L 897.50 520.70 L 904.10 518.10 L 909.10 516.60 L 919.30 514.60 L 929.60 514.10 L 934.70 514.50 L 939.70 515.30 L 944.70 516.60 L 949.60 518.20 L 954.20 520.40 L 958.80 523.00 L 966.90 529.10 L 970.10 532.40 L 972.90 536.00 L 975.40 539.80 L 977.40 543.90 L 980.40 552.50 L 981.40 557.10 L 982.30 563.20 L 982.50 569.40 L 982.30 575.50 L 978.20 585.80 L 975.70 590.70 L 972.70 595.40 L 968.10 601.00 L 962.10 606.00 L 958.70 608.20 L 955.20 610.20 L 938.70 617.90 L 933.40 620.70 L 932.10 625.40 L 931.30 630.20 L 930.60 639.90 L 927.50 706.70 L 924.00 773.40 L 922.50 788.90 L 921.40 792.70 L 919.90 796.20 L 916.10 797.50 L 908.40 799.20 L 902.50 799.70 L 896.50 799.80 L 878.40 799.20 L 470.40 799.60 L 255.60 799.20 L 201.80 798.60 L 174.90 797.60 L 173.70 792.30 L 172.20 781.50 L 171.80 757.00 L 170.40 727.50 L 168.20 663.50 L 165.80 620.90 L 151.60 615.90 L 146.90 613.90 L 138.20 609.20 L 134.20 606.30 L 130.50 602.90 L 127.20 599.10 L 124.10 594.80 L 121.50 590.40 L 119.50 585.70 L 118.10 580.70 L 117.10 575.70 L 116.70 570.60 L 116.70 565.40 L 117.30 560.30 L 118.50 555.30 L 120.10 550.40 L 122.30 545.80 L 124.90 541.30 Z" fill="#f9bb6d" fill-rule="nonzero" node-id="112" stroke="none" target-height="285.7" target-width="865.8" target-x="116.7" target-y="514.1"></path><path d="M 214.70 522.30 L 222.20 524.80 L 229.60 527.70 L 236.70 531.10 L 243.60 534.90 L 250.30 539.00 L 263.00 548.30 L 269.00 553.50 L 276.80 560.70 L 284.10 568.20 L 291.00 576.10 L 301.50 589.40 L 327.90 628.00 L 342.10 646.70 L 334.30 651.50 L 326.40 649.40 L 318.30 647.80 L 310.20 646.70 L 302.90 638.50 L 296.10 629.90 L 270.70 594.30 L 264.10 585.60 L 252.40 571.80 L 241.90 561.60 L 238.30 554.40 L 234.40 547.50 L 230.00 540.70 L 225.30 534.30 L 220.20 528.10 L 214.70 522.30 Z" fill="#9dd2dd" fill-rule="nonzero" node-id="114" stroke="none" target-height="129.20001" target-width="127.40001" target-x="214.7" target-y="522.3"></path><path d="M 320.60 546.00 L 337.80 543.90 L 345.30 566.10 L 351.60 588.70 L 354.10 600.10 L 356.00 611.60 L 356.70 621.40 L 353.60 613.40 L 350.00 605.60 L 346.20 598.00 L 333.80 575.40 L 333.50 571.70 L 332.80 568.10 L 331.70 564.70 L 329.60 559.70 L 326.80 555.00 L 320.60 546.00 Z" fill="#97d0d6" fill-rule="nonzero" node-id="116" stroke="none" target-height="77.5" target-width="36.100006" target-x="320.6" target-y="543.9"></path><path d="M 309.10 578.30 L 301.90 569.00 L 298.70 563.50 L 297.60 558.80 L 297.70 556.50 L 298.40 554.00 L 299.80 551.40 L 307.40 558.10 L 314.60 565.20 L 321.40 572.90 L 326.10 578.90 L 334.70 591.50 L 341.90 604.90 L 345.00 611.90 L 347.70 619.00 L 350.10 626.20 L 350.80 630.20 L 350.00 634.70 L 348.80 637.30 L 347.30 639.80 L 342.10 646.70 L 335.40 638.20 L 342.90 633.60 L 338.30 623.80 L 333.40 614.10 L 328.10 604.60 L 323.80 597.70 L 314.30 584.60 L 309.10 578.30 Z" fill="#b8e2e4" fill-rule="nonzero" node-id="118" stroke="none" target-height="95.29999" target-width="53.19998" target-x="297.6" target-y="551.4"></path><path d="M 241.90 561.60 L 252.40 571.80 L 264.10 585.60 L 270.70 594.30 L 296.10 629.90 L 302.90 638.50 L 310.20 646.70 L 306.90 646.60 L 303.90 646.10 L 301.10 645.20 L 295.90 642.30 L 290.00 637.40 L 276.00 622.20 L 266.30 612.60 L 261.00 608.30 L 255.50 604.30 L 249.60 600.80 L 246.90 583.20 L 245.20 574.40 L 241.90 561.60 Z" fill="#e8f2f1" fill-rule="nonzero" node-id="120" stroke="none" target-height="85.10004" target-width="68.30002" target-x="241.9" target-y="561.6"></path><path d="M 477.80 634.20 L 484.60 639.60 L 489.60 642.60 L 492.20 643.60 L 494.90 644.30 L 497.70 644.50 L 500.80 644.10 L 508.40 634.00 L 510.50 647.70 L 514.90 669.00 L 508.60 679.60 L 503.40 674.00 L 498.50 668.10 L 489.50 655.80 L 487.80 672.00 L 470.80 672.30 L 470.40 657.80 L 469.50 643.40 L 470.80 640.70 L 477.80 634.20 Z" fill="#9dced5" fill-rule="nonzero" node-id="122" stroke="none" target-height="45.599976" target-width="45.400024" target-x="469.5" target-y="634"></path><path d="M 239.00 638.40 L 263.10 642.10 L 275.00 644.60 L 280.50 647.20 L 296.70 655.90 L 302.20 658.40 L 307.90 660.30 L 311.80 661.20 L 315.90 661.60 L 324.40 661.60 L 328.50 661.00 L 332.30 659.90 L 339.60 656.40 L 343.10 654.10 L 352.90 646.60 L 364.80 657.70 L 369.00 661.10 L 373.30 664.30 L 381.30 669.20 L 388.40 672.20 L 393.90 673.90 L 416.40 679.40 L 421.80 681.40 L 428.60 684.90 L 431.90 687.10 L 424.30 692.90 L 429.30 693.10 L 434.20 692.70 L 439.00 691.90 L 443.70 690.60 L 449.80 688.30 L 455.60 685.40 L 461.30 681.90 L 466.80 683.90 L 472.10 686.30 L 475.40 688.20 L 481.30 692.90 L 483.80 695.70 L 485.90 698.90 L 487.70 702.60 L 484.60 707.00 L 494.60 723.60 L 459.90 724.20 L 442.60 724.90 L 425.30 726.20 L 413.90 727.50 L 402.50 729.40 L 391.10 731.90 L 348.50 732.90 L 334.30 732.90 L 305.90 732.20 L 291.80 731.20 L 277.70 729.70 L 263.60 727.70 L 257.50 726.40 L 251.20 724.60 L 247.10 723.20 L 239.30 719.40 L 235.70 717.10 L 232.40 714.40 L 229.50 711.50 L 227.00 708.20 L 224.90 704.50 L 223.30 700.30 L 222.40 694.80 L 221.90 689.40 L 222.00 684.00 L 222.60 678.60 L 223.60 673.20 L 224.90 668.00 L 228.60 657.70 L 230.90 652.60 L 234.80 645.40 L 239.00 638.40 Z" fill="#ba6e60" fill-rule="nonzero" node-id="124" stroke="none" target-height="94.5" target-width="272.7" target-x="221.9" target-y="638.4"></path><path d="M 837.80 661.60 L 840.90 659.80 L 846.50 655.40 L 857.70 643.90 L 861.60 640.40 L 866.40 657.10 L 868.30 665.70 L 869.60 674.40 L 870.10 680.30 L 870.10 686.10 L 869.70 691.80 L 868.90 697.50 L 867.50 703.10 L 865.40 708.60 L 864.00 711.30 L 862.30 713.70 L 860.40 715.60 L 855.80 718.80 L 849.20 721.60 L 840.60 723.40 L 818.80 725.40 L 801.20 726.20 L 783.50 726.40 L 765.80 726.00 L 768.10 721.60 L 770.00 717.10 L 771.40 712.50 L 772.50 707.90 L 773.30 701.60 L 773.50 695.20 L 773.10 688.80 L 772.30 682.40 L 770.90 676.10 L 769.20 669.80 L 786.60 671.10 L 795.50 671.30 L 804.30 670.90 L 810.10 670.40 L 821.60 668.20 L 827.10 666.50 L 832.50 664.30 L 837.80 661.60 Z" fill="#b76f60" fill-rule="nonzero" node-id="126" stroke="none" target-height="86" target-width="104.29999" target-x="765.8" target-y="640.4"></path><path d="M 431.90 687.10 L 438.90 685.80 L 447.10 682.60 L 451.90 680.10 L 460.90 674.50 L 465.10 676.50 L 469.20 678.00 L 473.40 678.90 L 477.60 679.20 L 481.80 679.00 L 486.00 678.30 L 490.10 677.00 L 494.40 675.20 L 508.90 687.60 L 514.10 691.20 L 517.80 693.20 L 521.70 694.90 L 525.80 696.10 L 528.90 696.60 L 535.10 696.60 L 539.70 696.00 L 553.30 693.00 L 573.80 697.40 L 584.30 699.30 L 594.90 700.80 L 602.00 701.50 L 609.00 701.70 L 615.90 701.50 L 622.80 700.80 L 629.50 699.50 L 636.10 697.60 L 640.90 695.70 L 645.60 693.40 L 650.20 690.60 L 654.70 687.30 L 659.60 693.70 L 664.70 699.90 L 687.00 723.30 L 686.10 726.20 L 676.70 727.30 L 657.80 728.40 L 615.20 728.80 L 601.00 729.30 L 461.10 731.30 L 391.10 731.90 L 402.50 729.40 L 413.90 727.50 L 425.30 726.20 L 442.60 724.90 L 459.90 724.20 L 494.60 723.60 L 484.60 707.00 L 487.70 702.60 L 485.90 698.90 L 483.80 695.70 L 481.30 692.90 L 475.40 688.20 L 472.10 686.30 L 466.80 683.90 L 461.30 681.90 L 455.60 685.40 L 449.80 688.30 L 443.70 690.60 L 439.00 691.90 L 434.20 692.70 L 429.30 693.10 L 424.30 692.90 L 431.90 687.10 Z" fill="#c27465" fill-rule="nonzero" node-id="128" stroke="none" target-height="57.400024" target-width="295.9" target-x="391.1" target-y="674.5"></path><path d="M 219.90 805.10 L 240.00 804.60 L 260.10 804.70 L 257.00 823.30 L 255.70 827.80 L 253.90 832.20 L 251.80 834.30 L 249.40 836.00 L 246.60 837.30 L 243.70 838.20 L 240.60 838.70 L 237.50 838.90 L 234.40 838.60 L 231.40 837.90 L 228.50 836.90 L 225.80 835.40 L 223.50 833.60 L 221.50 831.30 L 220.30 822.60 L 219.90 805.10 Z" fill="#a36663" fill-rule="nonzero" node-id="130" stroke="none" target-height="34.30005" target-width="40.200012" target-x="219.9" target-y="804.6"></path><path d="M 834.20 804.70 L 876.20 804.90 L 874.70 823.90 L 873.80 828.60 L 872.40 833.20 L 869.20 835.00 L 865.90 836.30 L 862.40 837.10 L 858.80 837.40 L 855.10 837.30 L 851.50 836.80 L 847.90 835.80 L 844.60 834.50 L 841.40 832.80 L 839.60 831.00 L 837.10 826.80 L 836.00 823.40 L 835.30 819.70 L 834.20 804.70 Z" fill="#9e6860" fill-rule="nonzero" node-id="132" stroke="none" target-height="32.700012" target-width="42" target-x="834.2" target-y="804.7"></path></svg>