<svg xmlns="http://www.w3.org/2000/svg" fill="none" viewBox="0 0 1101 1024" height="1024" width="1101">
<rect fill="white" height="1024" width="1100.6"></rect>
<path fill="#FDFDFD" d="M353.483 126.92C445.474 98.3698 545.671 97.5345 638.793 121.515C692.209 134.144 732.75 175.029 764.347 217.683C804.495 275.915 827.689 345.94 827.689 416.85C827.296 425.548 826.018 434.835 819.925 441.568C799.335 466.728 774.273 487.809 753.585 512.87C743.806 524.271 735.403 537.686 721.349 544.32C687.294 562.797 653.044 581.569 623.952 607.368C538.153 612.871 451.518 611.938 366.849 595.918C330.927 572.134 291.418 554.689 251.467 539.013C216.086 525.401 182.031 500.094 171.22 462.108C157.265 411.69 164.93 357.685 180.213 308.495C195.692 256.455 229.796 212.179 268.912 175.471C292.794 152.965 321.934 136.11 353.483 126.92ZM267.438 409.774C246.209 410.412 220.558 414.098 209.206 434.639C197.314 454.098 207.388 479.406 224.636 491.986C249.993 511.298 284.391 510.069 314.219 504.615C333.974 500.143 355.448 493.263 368.225 476.506C375.498 462.207 374.515 445.45 376.284 429.872C401.198 409.38 411.469 374.736 407.93 343.385C405.572 323.09 389.552 305.104 368.667 303.483C312.843 299.306 257.167 352.721 267.438 409.774ZM589.505 309.232C570.635 321.812 565.082 346.726 568.964 367.955C573.682 393.361 586.212 419.258 608.768 433.312C604.591 445.351 595.844 459.111 604.05 471.494C620.807 500.045 656.336 510.659 687.737 509.873C716.238 511.544 746.46 502.158 765.772 480.536C775.649 464.664 776.386 440.29 760.661 427.71C748.376 414.688 729.998 412.28 713.487 408.693C719.678 368.201 694.125 326.775 657.171 310.559C636.336 300.976 609.8 295.718 589.505 309.232ZM462.28 407.366C460.118 420.437 474.27 423.975 483.312 428.447C481.985 449.627 458.84 465.008 439.184 455.081C425.621 451.052 426.702 433.705 415.695 426.727C413.975 442.943 422.574 459.504 439.38 463.238C457.219 470.708 475.253 461.076 487.047 447.759C489.651 450.904 494.909 457.145 497.514 460.241C522.281 479.111 568.03 460.487 561.986 426.678C553.288 435.425 551.618 450.069 539.48 455.474C526.408 464.221 510.929 458.324 498.546 451.641C497.907 443.484 495.401 435.572 494.221 427.562C502.526 424.368 514.516 422.943 516.187 412.083C521.838 399.503 504.246 398.815 496.433 397.538C485.179 396.997 467.489 394.638 462.28 407.366Z"></path>
<path fill="#A26A69" d="M134.463 568.006C147.976 544.763 169.991 527.564 192.301 513.313C174.119 532.576 153.677 549.726 134.463 568.006Z"></path>
<path fill="#A26A69" d="M185.422 722.651C189.402 707.516 189.795 690.17 201.048 678.13C190.532 715.035 183.407 752.775 177.657 790.662C174.856 813.856 172.35 840.785 189.009 859.705C209.255 882.948 236.97 898.476 264.735 911.007C282.523 919.509 302.573 918.133 321.541 921.573C280.853 929.189 242.572 908.108 210.827 885.061C191.417 870.81 171.908 850.761 171.957 825.06C171.269 790.465 179.328 756.509 185.422 722.651Z"></path>
<path fill="#FACFD1" d="M130.876 571.938C132.055 571.495 134.463 570.66 135.643 570.267C124.832 585.304 118.64 605.894 126.601 623.486C140.655 645.108 164.93 656.951 188.272 666.14C221.491 677.147 255.644 685.157 290.14 691.103C261.491 692.578 234.268 682.012 207.044 674.838C176.675 665.256 144.242 652.577 125.421 625.402C114.709 608.645 122.719 587.957 130.876 571.938Z"></path>
<path fill="#FACFD1" d="M811.079 645.55C823.07 636.213 828.917 621.963 835.306 608.695C831.522 636.115 807.345 653.511 785.723 667.369C758.499 683.143 729.064 696.558 697.811 701.57C738.008 688.99 778.598 673.167 811.079 645.55Z"></path>
<path fill="#301A27" d="M589.505 309.232C609.8 295.718 636.335 300.976 657.171 310.559C694.125 326.775 719.678 368.201 713.486 408.692C707.884 422.894 698.351 436.85 683.314 442.01C658.744 450.02 631.127 445.892 608.768 433.312C586.212 419.257 573.681 393.36 568.964 367.955C565.082 346.726 570.635 321.812 589.505 309.232ZM604.886 372.427C609.947 377.095 614.861 382.255 620.856 385.793C624.542 389.331 634.075 386.579 630.832 380.486C629.407 368.25 613.387 362.009 604.886 372.427Z"></path>
<path fill="#FEFDFE" d="M604.886 372.427C613.387 362.009 629.407 368.25 630.832 380.486C634.075 386.579 624.542 389.331 620.856 385.793C614.861 382.255 609.947 377.095 604.886 372.427Z"></path>
<path fill="#FEFDFE" d="M360.706 371.1C372.107 365.94 374.121 380.093 365.62 385.203C361.247 391.69 343.753 396.899 345.079 385.105C348.175 378.618 353.974 373.508 360.706 371.1Z"></path>
<path fill="#2E1923" d="M799.482 706.73C796.091 699.31 802.43 693.315 805.133 687.074C810.096 718.131 815.502 749.089 819.04 780.392C816.042 783.537 813.094 786.731 810.195 789.974C807.738 762.062 804.003 734.347 799.482 706.73Z"></path>
<path fill="#2E1923" d="M276.135 727.418C278.887 724.961 281.639 722.504 284.44 720.047C286.701 722.209 291.271 726.583 293.531 728.745C313.482 738.819 335.399 743.978 357.217 748.401C407.734 758.278 459.381 761.767 510.88 761.079C569.898 760.44 629.604 755.035 686.017 736.46C688.327 737.393 692.946 739.261 695.255 740.195C641.839 762.947 582.822 766.534 525.524 768.942C463.312 770.121 400.412 767.664 339.625 753.217C317.119 748.45 294.612 741.62 276.135 727.418Z"></path>
<path fill="#2F1724" d="M539.48 455.474C551.617 450.069 553.288 435.425 561.986 426.678C568.03 460.487 522.281 479.111 497.514 460.241C497.759 458.128 498.3 453.803 498.546 451.641C510.929 458.324 526.408 464.221 539.48 455.474Z"></path>
<path fill="#301925" d="M668.817 121.417C692.945 88.7875 738.105 77.8783 775.944 89.5246C833.094 106.036 866.51 176.159 844.446 231.197C837.91 249.772 822.971 263.531 807.885 275.325C826.558 323.188 839.335 374.392 836.239 426.088C866.755 391.886 897.665 358.029 927.886 323.581C935.896 313.851 946.117 306.333 957.96 301.812C973.046 305.989 989.165 316.751 990 333.901C986.609 340.633 981.548 346.333 976.24 351.591C939.975 385.94 902.874 419.405 867.148 454.246C860.613 459.799 865.134 469.184 864.102 476.457C864.937 503.534 846.559 526.138 828.524 544.32C842.283 568.252 849.9 597.687 840.613 624.616C833.831 643.978 816.681 656.508 800.465 667.614C803.954 672.823 804.199 692.823 795.452 683.437C795.059 681.128 794.322 676.607 793.929 674.346L791.865 673.757C792.946 681.816 791.03 690.71 795.256 698.081C803.069 730.121 804.789 763.291 808.966 795.969C810.047 827.075 814.666 864.815 789.015 888.009C752.897 910.909 709.211 917.346 667.196 913.661C667.736 916.56 668.866 922.31 669.407 925.209C659.775 920 651.569 912.875 644.443 904.717C639.579 914.742 630.488 921.916 619.431 923.931C561.936 938.428 502.182 941.18 443.115 938.477L442.427 929.926C496.285 934.644 550.831 930.713 603.706 919.754C616.532 917.592 628.325 911.793 638.792 904.275C637.318 900.639 634.37 893.317 632.895 889.68C546.998 907.076 457.267 910.319 371.861 888.255C372.745 897.494 370.239 908.108 375.399 916.462C396.087 925.651 419.183 926.88 441.346 929.828L441.739 936.904C431.468 935.725 421.247 934.742 411.075 933.464C397.217 930.713 381.935 929.582 370.19 921.179C365.079 913.759 361.443 905.553 357.512 897.543C363.654 887.174 368.274 876.118 371.959 864.717C365.423 879.017 353.433 893.12 358.544 909.779C345.571 902.211 334.317 911.99 323.85 918.772C331.959 915.528 339.772 911.499 347.438 907.273C350.435 909.091 353.433 911.057 356.431 913.022C341.541 920.639 326.946 930.811 309.698 931.843C282.523 934.251 256.921 922.162 233.53 909.828C209.648 895.528 184.635 879.557 170.778 854.594C159.279 834.446 161.441 810.22 165.127 788.254C172.154 751.546 178.149 714.543 188.37 678.523C161.441 667.712 132.694 654.543 116.674 629.039C105.961 612.921 109.352 591.545 118.345 575.476C133.529 546.532 161.146 527.76 185.765 507.514C156.33 473.312 151.269 425.941 155.495 382.648C158.935 345.989 167.534 309.576 182.866 276.013C159.328 261.123 146.404 233.408 146.404 205.988C149.647 142.203 217.412 93.5541 278.789 102.596C283.703 105.495 288.617 108.444 293.482 111.49C250.582 106.871 204.144 123.677 180.753 161.368C164.684 184.808 163.357 214.784 169.697 241.811C171.466 218.076 168.91 192.621 181.048 171.098C196.773 140.139 230.434 120.385 264.538 117.535C283.309 115.029 299.87 125.495 315.939 133.456C311.516 127.117 307.093 120.729 302.769 114.291L310.386 115.667C315.349 119.156 319.821 123.382 324.391 127.412C434.024 86.527 557.809 85.0037 668.817 121.417ZM676.434 128.493C681.495 126.282 686.41 123.776 691.176 120.925C731.963 91.441 797.615 105.594 821.595 150.459C841.546 183.432 832.996 224.366 815.256 256.209C835.944 237.634 842.038 207.511 839.286 180.828C833.045 132.13 784.494 95.274 736.238 98.1242C713.584 100.434 690.144 109.427 676.434 128.493ZM353.482 126.921C321.934 136.11 292.794 152.965 268.911 175.471C229.795 212.179 195.692 256.455 180.213 308.495C164.93 357.685 157.264 411.69 171.22 462.108C182.031 500.094 216.085 525.401 251.466 539.013C291.418 554.689 330.927 572.134 366.848 595.918C385.571 610.66 400.706 629.678 409.06 652.135C444.147 644.125 480.363 641.078 516.187 645.403C543.754 644.125 571.371 645.206 598.694 649.678C604.885 634.346 613.976 620.488 623.952 607.368C653.043 581.569 687.294 562.797 721.348 544.32C735.403 537.686 743.806 524.271 753.585 512.87C774.273 487.809 799.335 466.728 819.924 441.568C826.018 434.835 827.295 425.548 827.689 416.85C827.689 345.94 804.494 275.915 764.346 217.683C732.749 175.029 692.208 134.144 638.792 121.515C545.671 97.5345 445.473 98.3699 353.482 126.921ZM936.437 327.119C903.611 364.466 870.048 401.174 835.551 436.997C806.558 469.823 773.929 499.259 746.705 533.657C759.137 531.593 771.767 530.659 784.003 527.564C805.035 509.873 821.939 487.809 841.448 468.497C884.741 423.091 932.505 382.255 977.272 338.372C987.838 330.166 974.521 319.011 966.855 314.834C955.11 306.529 944.004 319.208 936.437 327.119ZM797.025 530.659C814.077 537.49 819.089 557.588 830.735 570.414C827.345 557.932 819.482 547.515 810.882 538.08C840.268 529.971 857.713 495.77 855.207 466.433C833.831 485.991 818.254 510.856 797.025 530.659ZM134.463 568.006C153.677 549.726 174.119 532.576 192.301 513.313C169.991 527.563 147.976 544.763 134.463 568.006ZM130.876 571.937C122.718 587.957 114.708 608.645 125.421 625.402C144.242 652.577 176.675 665.255 207.043 674.838C234.267 682.012 261.491 692.578 290.14 691.103C255.643 685.157 221.491 677.147 188.272 666.14C164.93 656.951 140.654 645.108 126.6 623.486C118.639 605.894 124.831 585.304 135.642 570.267C134.463 570.66 132.055 571.495 130.876 571.937ZM811.079 645.55C778.597 673.167 738.007 688.99 697.81 701.57C729.064 696.558 758.499 683.142 785.722 667.368C807.344 653.511 831.521 636.115 835.305 608.695C828.917 621.962 823.069 636.213 811.079 645.55ZM413.434 660.784C410.682 666.435 407.881 672.086 405.227 677.835C412.5 677.54 419.773 677.295 427.095 677.049C428.962 672.676 430.879 668.302 432.795 663.978L437.218 663.339C435.793 670.808 434.515 678.376 433.041 685.894C422.918 684.813 412.647 683.192 402.574 685.206C393.188 691.349 385.227 699.359 377.168 707.074C394.023 704.617 410.78 701.177 427.291 696.853C441.64 702.602 456.284 708.548 471.911 709.777C483.557 702.258 497.513 684.813 510.535 700.194C508.275 701.668 503.754 704.568 501.543 706.042L499.479 697.295C496.039 699.359 492.648 701.472 489.258 703.585C484.933 708.45 480.609 713.315 476.383 718.229C459.233 715.674 443.115 709.334 426.358 705.305C404.687 701.865 384.637 713.118 364.391 718.868C349.305 723.438 333.629 718.278 318.298 718.622C309.698 721.128 301.737 725.404 293.531 728.745C299.034 720.784 305.324 713.413 311.713 706.239C302.425 703.929 293.138 701.57 283.899 699.212C280.754 708.155 274.562 716.312 272.793 725.551C282.425 756.755 283.408 792.529 306.258 818.033C335.055 852.039 380.854 861.572 422.426 869.533C510.879 883.783 606.114 876.609 686.164 834.004C723.462 814.102 730.341 765.06 716.828 728.352C709.653 732.381 702.822 736.951 695.255 740.195C692.945 739.261 688.326 737.394 686.016 736.46C691.274 733.659 696.434 730.711 701.496 727.566C696.778 722.701 692.11 717.934 687.343 713.167C679.972 712.725 672.65 712.135 665.377 711.447C674.616 707.467 684.739 706.976 694.714 706.386L693.928 701.57C678.989 702.602 664.1 704.912 649.112 704.322C634.37 703.782 622.232 694.494 609.21 688.794C621.937 706.681 645.181 709.04 665.083 712.578C660.709 715.084 656.385 717.59 652.109 720.145C635.549 715.723 619.578 709.334 605.033 700.293C591.47 705.354 577.956 701.374 564.836 697.344C562.87 700.145 558.939 705.796 557.022 708.597C561.052 708.892 569.111 709.531 573.141 709.826C573.239 710.907 573.386 713.118 573.484 714.249C558.349 715.33 544.934 722.602 530.536 726.484C517.612 726.484 504.639 724.421 492.304 720.588C491.567 715.379 493.778 711.595 498.987 709.236C507.538 714.494 517.415 716.902 526.359 721.374C533.926 718.475 541.494 715.379 548.914 712.086C553.632 705.452 555.548 693.265 564.983 692.381C576.63 694.69 588.276 697.295 600.217 697.688C595.794 685.206 594.271 672.086 595.549 658.916C585.377 660.39 575.057 660.096 565.032 657.737C563.067 666.386 556.138 674.739 546.359 671.791C549.455 666.582 552.895 661.57 554.713 655.722C551.47 655.28 545.081 654.346 541.838 653.904C542.673 656.41 544.393 661.422 545.229 663.929C541.985 664.273 535.548 664.961 532.305 665.255C531.715 657.295 527.44 653.167 519.577 652.872C522.182 658.327 524.983 663.732 527.882 669.138C532.649 670.219 536.629 672.577 539.823 676.115C520.56 685.01 518.889 650.955 501.1 658.769C491.715 665.403 481.887 670.366 470.879 663.879C469.159 665.354 465.621 668.4 463.852 669.924C459.626 667.909 451.125 663.879 446.898 661.865C449.699 660.243 455.301 657 458.103 655.427C463.999 658.032 470.289 659.26 476.972 659.162C480.265 660.734 494.565 657.589 486.801 652.823C477.66 650.611 467.832 652.135 458.987 654.887C443.557 654.346 428.323 656.951 413.434 660.784ZM185.421 722.652C179.328 756.509 171.269 790.465 171.957 825.06C171.908 850.761 191.417 870.81 210.827 885.061C242.572 908.108 280.852 929.189 321.541 921.573C302.573 918.133 282.523 919.509 264.734 911.007C236.97 898.477 209.255 882.948 189.009 859.705C172.35 840.786 174.856 813.856 177.657 790.662C183.407 752.775 190.532 715.035 201.048 678.13C189.795 690.17 189.402 707.516 185.421 722.652ZM289.403 691.3C311.32 706.73 339.87 702.406 364.932 700.194C339.723 697.541 314.612 694.003 289.403 691.3ZM369.797 693.266C384.048 684.862 371.419 709.433 369.797 693.266ZM324.342 708.352C339.231 715.084 357.02 715.28 371.91 708.45C356.087 706.681 340.165 706.73 324.342 708.352ZM698.449 713.118C696.533 719.85 699.039 722.504 705.967 721.03C707.835 714.249 705.329 711.595 698.449 713.118ZM376.529 869.778C376.726 872.973 377.021 879.41 377.168 882.653C459.97 905.209 547.44 899.312 631.028 884.471C628.669 879.459 626.36 874.447 624.05 869.533C543.361 891.204 457.464 889.68 376.529 869.778ZM632.355 865.896C634.37 879.41 639.235 892.874 650.39 901.523C647.146 888.403 641.544 875.921 632.355 865.896Z"></path>
<path fill="#594049" d="M676.434 128.493C690.145 109.426 713.585 100.434 736.238 98.1241C784.494 95.274 833.045 132.129 839.286 180.828C842.038 207.511 835.945 237.634 815.256 256.209C832.996 224.366 841.547 183.432 821.596 150.459C797.615 105.594 731.963 91.441 691.176 120.925C686.41 123.775 681.496 126.282 676.434 128.493Z"></path>
<path fill="#604149" d="M278.789 102.596C290.091 104.807 301 108.935 310.386 115.667L302.769 114.291C307.094 120.729 311.516 127.117 315.939 133.456C299.87 125.495 283.31 115.028 264.538 117.535C230.434 120.385 196.773 140.139 181.048 171.098C168.91 192.621 171.466 218.076 169.697 241.811C163.358 214.784 164.684 184.808 180.753 161.368C204.144 123.677 250.582 106.871 293.482 111.49C288.617 108.444 283.703 105.495 278.789 102.596Z"></path>
<path fill="#CC6F5F" d="M413.434 660.784C428.324 656.951 443.557 654.346 458.987 654.887L458.103 655.427C455.302 657 449.7 660.243 446.899 661.865C444.491 662.209 439.626 662.946 437.218 663.339L432.795 663.978C430.879 668.302 428.962 672.676 427.095 677.049C419.773 677.295 412.5 677.54 405.228 677.835C407.881 672.086 410.682 666.435 413.434 660.784Z"></path>
<path fill="#311B29" d="M267.437 409.774C257.167 352.721 312.843 299.306 368.667 303.483C389.552 305.104 405.571 323.09 407.93 343.385C411.468 374.736 401.198 409.38 376.284 429.872C353.532 447.661 321.099 455.229 294.219 442.796C280.46 436.801 272.204 423.386 267.437 409.774ZM360.706 371.1C353.974 373.508 348.175 378.618 345.079 385.105C343.753 396.899 361.247 391.69 365.62 385.203C374.121 380.093 372.107 365.94 360.706 371.1Z"></path>
<path fill="#9D5E53" d="M936.437 327.119C944.005 319.208 955.111 306.529 966.855 314.834C974.521 319.011 987.838 330.166 977.273 338.373C932.506 382.255 884.741 423.091 841.448 468.497C821.94 487.809 805.035 509.873 784.003 527.564C771.767 530.66 759.138 531.593 746.705 533.657C773.929 499.259 806.559 469.823 835.552 436.998C870.048 401.174 903.611 364.466 936.437 327.119Z"></path>
<path fill="#341824" d="M462.28 407.366C467.488 394.638 485.179 396.997 496.432 397.538C504.246 398.815 521.838 399.503 516.187 412.083C514.516 422.944 502.526 424.369 494.221 427.563C495.4 435.573 497.906 443.484 498.545 451.642C498.299 453.804 497.759 458.128 497.513 460.241C494.909 457.145 489.651 450.904 487.046 447.759C475.253 461.076 457.218 470.708 439.38 463.239C422.574 459.504 413.974 442.944 415.694 426.727C426.702 433.705 425.621 451.052 439.183 455.081C458.84 465.008 481.985 449.627 483.312 428.447C474.27 423.975 460.117 420.437 462.28 407.366Z"></path>
<path fill="#F8CDCE" d="M713.486 408.692C729.997 412.28 748.376 414.688 760.661 427.71C776.386 440.29 775.649 464.663 765.771 480.536C746.459 502.158 716.238 511.544 687.736 509.873C656.335 510.659 620.807 500.045 604.05 471.494C595.843 459.111 604.59 445.351 608.767 433.312C631.126 445.892 658.743 450.02 683.313 442.01C698.35 436.85 707.884 422.894 713.486 408.692ZM728.277 437.833C723.51 449.233 738.302 452.378 746.607 450.757C749.211 440.486 736.975 433.115 728.277 437.833Z"></path>
<path fill="#F8CECE" d="M209.206 434.639C220.557 414.098 246.209 410.412 267.437 409.774C272.204 423.385 280.46 436.801 294.219 442.796C321.099 455.229 353.532 447.661 376.284 429.872C374.515 445.45 375.498 462.206 368.225 476.506C355.448 493.263 333.974 500.143 314.219 504.615C284.391 510.069 249.993 511.298 224.636 491.986C207.388 479.406 197.314 454.098 209.206 434.639ZM237.019 433.115C227.339 435.13 230.484 445.597 229.255 452.772C237.609 450.855 246.16 449.184 254.071 445.695C256.97 436.162 245.029 428.25 237.019 433.115Z"></path>
<path fill="#FBE9E7" d="M237.019 433.115C245.029 428.251 256.97 436.162 254.071 445.695C246.159 449.184 237.609 450.855 229.255 452.772C230.484 445.597 227.339 435.13 237.019 433.115Z"></path>
<path fill="#F9E7E6" d="M728.278 437.833C736.976 433.115 749.212 440.487 746.607 450.757C738.303 452.379 723.511 449.234 728.278 437.833Z"></path>
<path fill="#B4B5C3" d="M797.025 530.659C818.254 510.856 833.831 485.991 855.208 466.433C857.714 495.77 840.269 529.972 810.883 538.08C819.482 547.515 827.345 557.933 830.735 570.414C819.089 557.589 814.077 537.49 797.025 530.659Z"></path>
<path fill="#EBE7E9" d="M366.849 595.918C451.518 611.938 538.153 612.872 623.952 607.368C613.977 620.488 604.886 634.346 598.694 649.678C571.372 645.206 543.755 644.125 516.187 645.403C480.363 641.078 444.147 644.125 409.06 652.135C400.707 629.678 385.571 610.66 366.849 595.918Z"></path>
<path fill="#DF835D" d="M458.987 654.887C467.833 652.135 477.661 650.612 486.801 652.823C494.565 657.59 480.265 660.735 476.973 659.162C470.29 659.26 464 658.032 458.103 655.427L458.987 654.887Z"></path>
<path fill="#E0A36B" d="M519.578 652.872C527.44 653.167 531.716 657.295 532.305 665.256C535.549 664.961 541.986 664.273 545.229 663.929C544.394 661.423 542.674 656.41 541.838 653.904C545.082 654.346 551.47 655.28 554.713 655.722C552.895 661.57 549.455 666.582 546.359 671.791C556.138 674.74 563.067 666.386 565.033 657.737C575.057 660.096 585.377 660.391 595.549 658.916C594.271 672.086 595.795 685.207 600.217 697.688C588.276 697.295 576.63 694.691 564.984 692.381C555.549 693.266 553.632 705.453 548.915 712.086C541.494 715.379 533.927 718.475 526.359 721.374C517.416 716.902 507.538 714.494 498.988 709.236C496.58 707.811 491.715 705.01 489.258 703.585C492.649 701.472 496.039 699.359 499.479 697.295L501.543 706.042C503.755 704.568 508.275 701.669 510.536 700.194C497.514 684.813 483.558 702.258 471.911 709.777C456.285 708.548 441.641 702.602 427.292 696.853C410.781 701.177 394.024 704.617 377.168 707.074C385.228 699.359 393.188 691.349 402.574 685.207C412.648 683.192 422.918 684.814 433.041 685.895C434.515 678.376 435.793 670.808 437.218 663.339C439.626 662.946 444.491 662.209 446.899 661.865C451.125 663.88 459.626 667.909 463.852 669.924C465.621 668.401 469.16 665.354 470.88 663.88C481.887 670.366 491.715 665.403 501.101 658.769C518.89 650.956 520.561 685.01 539.824 676.116C536.63 672.577 532.649 670.219 527.882 669.138C524.983 663.732 522.182 658.327 519.578 652.872Z"></path>
<path fill="#796361" d="M289.403 691.3C314.612 694.002 339.723 697.54 364.932 700.194C339.87 702.405 311.32 706.73 289.403 691.3Z"></path>
<path fill="#695457" d="M369.797 693.266C384.048 684.863 371.419 709.433 369.797 693.266Z"></path>
<path fill="#A1524E" d="M609.21 688.794C622.232 694.494 634.37 703.781 649.112 704.322C664.1 704.912 678.989 702.602 693.928 701.57L694.714 706.386C684.739 706.976 674.616 707.467 665.377 711.447C672.65 712.135 679.972 712.725 687.343 713.167C692.11 717.934 696.778 722.7 701.496 727.565C696.434 730.71 691.275 733.659 686.017 736.46C629.603 755.035 569.897 760.44 510.88 761.079C459.38 761.767 407.734 758.278 357.217 748.401C335.399 743.978 313.482 738.819 293.531 728.745C301.737 725.403 309.698 721.128 318.298 718.622C333.629 718.278 349.305 723.438 364.392 718.868C384.637 713.118 404.687 701.865 426.358 705.305C443.115 709.334 459.233 715.673 476.383 718.229C480.609 713.315 484.933 708.45 489.258 703.585C491.715 705.01 496.58 707.811 498.987 709.236C493.779 711.595 491.567 715.379 492.304 720.588C504.639 724.42 517.612 726.484 530.536 726.484C544.934 722.602 558.349 715.329 573.485 714.248C573.386 713.118 573.239 710.907 573.141 709.826C569.111 709.531 561.052 708.892 557.023 708.597C558.939 705.796 562.87 700.145 564.836 697.344C577.956 701.374 591.47 705.354 605.033 700.292C619.578 709.334 635.549 715.723 652.109 720.145C656.385 717.59 660.709 715.084 665.083 712.578C645.181 709.039 621.937 706.681 609.21 688.794Z"></path>
<path fill="#E1DFE3" d="M272.794 725.551C274.563 716.312 280.755 708.155 283.9 699.211C293.138 701.57 302.426 703.929 311.713 706.238C305.325 713.413 299.035 720.784 293.531 728.745C291.271 726.583 286.701 722.209 284.44 720.047C281.639 722.504 278.887 724.961 276.135 727.418C294.612 741.62 317.119 748.45 339.625 753.217C400.412 767.664 463.312 770.121 525.524 768.942C582.822 766.534 641.839 762.947 695.255 740.195C702.823 736.951 709.653 732.381 716.828 728.352C730.342 765.06 723.462 814.102 686.164 834.004C606.114 876.609 510.88 883.783 422.427 869.533C380.854 861.572 335.055 852.039 306.259 818.033C283.408 792.529 282.425 756.755 272.794 725.551Z"></path>
<path fill="#9A776F" d="M324.342 708.352C340.165 706.73 356.087 706.681 371.91 708.45C357.02 715.28 339.231 715.084 324.342 708.352Z"></path>
<path fill="#725150" d="M698.45 713.118C705.329 711.595 707.836 714.248 705.968 721.03C699.039 722.504 696.533 719.85 698.45 713.118Z"></path>
<path fill="#5F4747" d="M811.129 796.313C814.372 793.119 817.616 789.974 820.908 786.829C821.891 818.082 825.675 851.4 811.964 880.638C799.876 903.095 775.06 914.398 751.62 921.13C725.133 928.206 696.975 934.201 669.752 927.174L669.408 925.209C668.867 922.309 667.737 916.56 667.196 913.661C709.211 917.346 752.897 910.909 789.016 888.009L794.569 885.061C815.797 860.54 811.276 826.191 811.129 796.313Z"></path>
<path fill="#EFECEE" d="M376.53 869.778C457.464 889.68 543.362 891.204 624.051 869.533C626.36 874.447 628.67 879.459 631.029 884.471C547.441 899.312 459.97 905.209 377.169 882.653C377.021 879.41 376.726 872.972 376.53 869.778Z"></path>
<path fill="#604249" d="M632.355 865.896C641.545 875.921 647.147 888.403 650.39 901.523C639.235 892.874 634.37 879.41 632.355 865.896Z"></path>
<path fill="#D6CFD4" d="M371.861 888.255C457.267 910.319 546.998 907.076 632.895 889.68C634.369 893.317 637.318 900.638 638.792 904.275C628.325 911.793 616.532 917.592 603.706 919.754C550.831 930.713 496.285 934.644 442.427 929.926L443.114 938.477C432.254 937.936 421.443 936.806 411.075 933.464C421.247 934.742 431.468 935.725 441.738 936.904L441.345 929.828C419.183 926.88 396.087 925.651 375.399 916.462C370.239 908.108 372.745 897.494 371.861 888.255Z"></path>
</svg>
