<svg xmlns="http://www.w3.org/2000/svg" fill="none" viewBox="0 0 1101 1024" height="1024" width="1101">
<rect fill="white" height="1024" width="1100.6"></rect>
<path fill="#FDFDFD" d="M363.137 206.237C402.311 171.865 456.113 163.284 506.225 158.882C573.144 154.257 641.797 157.014 706.004 177.913C764.031 195.387 809.207 242.609 834.818 296.278C858.34 351.058 872.702 409.929 876.348 469.467C876.615 510.019 872.124 556.218 839.932 584.987C793.6 625.583 730.06 635.632 671.366 645.325L675.057 651.106C640.953 624.338 596.443 622.782 555.002 621.848C560.205 626.428 565.674 630.696 571.499 634.52C573.5 639.545 575.59 644.614 577.101 649.816C568.119 650.705 559.137 650.839 550.156 651.595C558.382 648.971 566.341 645.77 574.256 642.213C565.274 640.301 556.247 639.456 547.177 638.967C548.599 636.921 551.445 632.831 552.913 630.785C550.423 623.715 548.021 616.69 545.887 609.531C532.948 596.192 523.077 580.229 517.652 562.354C526.011 564.533 534.326 566.801 542.686 569.246C536.505 558.797 524.722 555.373 513.205 556.351C509.337 565.378 515.429 574.004 519.075 581.963C525.967 596.147 536.327 608.197 546.865 619.802C509.915 628.829 468.296 623.004 435.037 644.258L438.594 639.9C383.813 632.43 324.631 621.359 283.19 581.741C253.888 554.662 245.973 512.554 246.462 474.314C247.84 414.554 263.092 355.371 288.348 301.302C306.578 265.108 332.501 232.693 363.137 206.237ZM349.931 486.764C324.675 480.317 289.193 494.234 287.147 523.225C287.636 556.173 318.984 582.319 350.91 582.497C379.5 583.653 412.76 584.186 434.592 562.532C449.621 549.015 449.843 527.583 452.6 509.041C475.722 485.475 487.327 450.97 481.502 418.244C478.612 404.06 467.674 391.432 453.178 388.586C399.065 381.116 342.684 431.005 349.931 486.764ZM632.104 429.227C630.815 460.663 642.109 494.812 667.453 514.732C668.031 530.651 663.807 549.548 675.991 562.31C697.823 583.697 730.104 589.344 759.629 586.765C780.972 586.276 800.803 575.871 816.232 561.598C828.86 549.37 835.13 527.271 823.613 512.331C809.74 495.835 787.197 490.099 766.387 490.81C777.503 435.007 721.256 381.383 666.564 387.519C646.466 390.187 632.46 409.707 632.104 429.227ZM533.793 495.257C538.951 505.084 560.383 508.952 549.844 522.158C543.219 539.099 520.142 543.056 506.358 532.474C497.51 527.005 495.553 516.2 491.551 507.396C482.658 512.153 488.394 521.58 491.996 527.805C499.021 538.432 511.382 545.146 523.921 546.569C538.728 547.236 549.266 535.364 557.359 524.559C567.986 542.612 592.975 550.66 611.384 539.588C622.811 533.897 628.28 521.491 629.658 509.397C617.03 509.263 621.166 526.604 611.65 531.585C593.153 546.391 563.851 533.319 560.961 510.064C571.232 504.95 578.924 496.502 584.616 486.675C574.167 473.914 556.247 475.292 541.618 477.293C533.348 478.405 527.212 488.365 533.793 495.257Z"></path>
<path fill="#2F1925" d="M263.714 160.794C303.732 124.333 375.32 125.533 408.313 170.754C457.891 151.945 511.649 149.188 564.117 148.655C601.601 149.855 639.307 152.301 675.902 160.972C694.577 164.973 712.318 172.355 730.993 176.49C757.45 141.14 809.429 130.158 848.913 148.833C894.445 168.931 919.523 227.402 900.226 273.734C891.733 294.632 873.058 309.217 853.227 318.732C871.235 370.089 883.774 423.802 885.775 478.316C884.885 509.663 881.239 542.834 863.987 569.913C856.695 581.563 846.913 591.301 837.664 601.35C852.337 651.995 859.14 705.619 854.472 758.31C899.603 758.977 944.913 756.264 990 759.688C987.021 764.179 982.93 766.224 977.683 765.824C936.198 766.047 894.712 765.469 853.227 765.513C849.536 783.388 842.911 801.796 828.104 813.446C812.897 826.696 792.399 829.853 774.168 836.745C769.188 846.261 767.721 857.733 759.94 865.648C745.222 882.633 721.211 885.612 700.135 887.302C697.511 886.057 692.22 883.611 689.597 882.366C670.477 876.764 650.334 880.365 630.77 878.987C567.141 875.652 503.379 876.541 439.794 872.628C420.408 871.517 400.576 868.804 384.169 857.644C403.066 849.018 423.209 842.17 440.105 829.809C445.352 811.934 441.35 791.658 431.212 776.229C420.319 759.11 399.909 752.529 385.458 739.146C402.044 740.346 416.895 747.683 428.945 758.888C429.567 758.977 430.857 759.199 431.479 759.288L438.86 760.222C443.752 776.096 448.065 793.303 459.403 805.931C479.368 819.849 505.291 820.071 528.724 821.672C564.384 822.383 605.603 823.273 632.993 796.327C629.747 788.546 626.59 780.72 623.878 772.761C618.231 746.838 631.126 716.113 658.027 708.554C660.161 707.976 664.474 706.82 666.608 706.242C668.565 705.708 672.433 704.641 674.39 704.107C674.79 689.567 674.568 674.716 670.388 660.71L669.054 655.685C672.211 657.108 678.525 659.865 681.682 661.243C680.037 658.709 676.746 653.64 675.057 651.106L671.366 645.325C730.059 635.632 793.599 625.583 839.932 584.987C872.124 556.218 876.615 510.019 876.348 469.467C872.702 409.929 858.34 351.058 834.818 296.278C809.207 242.609 764.031 195.387 706.004 177.913C641.797 157.014 573.144 154.257 506.224 158.882C456.113 163.284 402.31 171.865 363.137 206.237C332.501 232.693 306.578 265.108 288.348 301.302C263.092 355.371 247.84 414.554 246.462 474.314C245.973 512.554 253.888 554.662 283.19 581.741C324.631 621.359 383.813 632.43 438.594 639.9L435.037 644.258C433.792 645.948 431.302 649.282 430.057 650.928C413.427 678.851 420.319 713.356 419.296 744.303C407.379 741.369 395.196 739.368 383.769 734.966C381.723 729.719 379.945 724.383 378.433 718.959C379.367 727.985 380.167 737.056 380.923 746.127C398.531 755.82 419.429 763.512 429.701 782.098C436.593 794.282 442.24 811.089 432.813 823.451C418.451 843.015 392.929 852.797 369.051 850.307C329.033 846.972 293.194 822.206 270.428 789.969C250.553 761.556 248.285 725.495 247.529 691.969C247.084 658.842 258.201 626.828 275.542 598.904C281.456 593.035 274.252 587.61 271.006 582.674C245.617 554.573 237.169 515.488 237.347 478.538C237.658 419.489 253.398 361.596 275.408 307.171C259.801 298.99 244.95 287.385 238.636 270.31C224.719 233.36 232.9 187.028 263.714 160.794ZM258.645 198.989C245.661 228.024 246.907 264.485 264.692 291.342C250.375 259.327 246.551 218.731 268.561 189.162C297.507 147.766 363.137 139.495 400.132 174.8C395.463 168.219 390.305 161.639 382.702 158.304C339.349 136.472 279.899 154.48 258.645 198.989ZM739.797 181.292C751.536 173.911 762.43 164.351 776.303 161.016C818.1 149.722 865.855 175.378 879.594 216.464C889.376 241.141 882.44 267.82 875.681 292.276C885.463 277.78 891.689 260.706 890.532 243.009C890.888 195.209 847.179 153.19 799.869 152.924C776.97 151.634 752.07 161.061 739.797 181.292ZM831.305 608.998C827.57 614.422 828.638 617.757 834.551 618.958C838.242 613.488 837.175 610.154 831.305 608.998ZM845.178 700.906C846.779 733.187 850.914 770.093 828.504 796.727C805.738 821.894 769.855 828.475 737.574 831.232C704.67 832.299 666.786 824.562 646.377 796.283C634.06 780.409 633.438 759.733 632.904 740.568C626.99 774.895 645.354 813.224 679.681 824.073C722.145 839.947 770.967 834.522 810.896 814.068C839.087 799.884 848.691 765.424 847.179 736.033C848.691 698.549 843.444 661.421 836.864 624.649C837.175 650.305 844.111 675.294 845.178 700.906ZM328.455 635.321C351.221 656.753 365.494 685.21 375.899 714.245C375.81 711.444 375.676 705.753 375.632 702.951C387.415 703.752 399.154 704.908 410.848 706.731C411.07 705.53 411.47 703.174 411.693 701.973C399.02 700.283 386.303 699.883 373.586 699.661C361.492 676.495 352.421 649.149 328.455 635.321ZM753.759 691.346C731.616 701.84 705.96 695.259 683.194 702.951C704.626 702.862 726.191 701.617 747.267 697.438C761.941 693.48 767.543 678.184 772.39 665.423C766.565 674.227 763.141 685.477 753.759 691.346ZM652.202 714.779L652.246 719.048C677.947 717.847 703.559 715.224 729.259 713.845C735.929 714.067 741.487 710.288 746.778 706.686C715.297 710.377 683.461 709.132 652.202 714.779ZM497.776 827.274C479.99 826.385 464.961 815.402 447.664 812.557C476.878 835.056 515.873 833.01 550.689 833.188C581.459 831.988 617.164 828.875 638.685 804.02C598.978 835.278 545.22 832.299 497.776 827.274ZM739.308 867.515C724.057 874.096 707.071 873.607 690.975 876.452C701.246 882.589 713.474 879.209 724.501 877.431C739.619 873.785 757.716 867.471 761.807 850.396C754.382 856.221 747.579 862.98 739.308 867.515Z"></path>
<path fill="#A26A69" d="M258.645 198.989C279.9 154.48 339.349 136.472 382.702 158.304C390.305 161.639 395.463 168.219 400.132 174.8C363.137 139.495 297.508 147.766 268.561 189.162C246.551 218.731 250.375 259.327 264.693 291.342C246.907 264.485 245.662 228.024 258.645 198.989Z"></path>
<path fill="#A26A69" d="M271.006 582.674C274.252 587.61 281.456 593.035 275.542 598.904C258.201 626.828 247.085 658.842 247.529 691.968C248.285 725.495 250.553 761.556 270.429 789.969C293.194 822.205 329.033 846.972 369.051 850.307C392.929 852.797 418.451 843.015 432.813 823.45C442.24 811.089 436.593 794.282 429.701 782.098C419.43 763.512 398.531 755.82 380.923 746.126C380.167 737.056 379.367 727.985 378.433 718.958C379.945 724.383 381.724 729.719 383.769 734.966C395.196 739.368 407.38 741.369 419.296 744.303C420.319 713.356 413.427 678.851 430.057 650.928C425.21 671.693 424.765 693.169 423.876 714.379C423.609 729.586 421.608 746.349 431.48 759.288C430.857 759.199 429.568 758.977 428.945 758.888C416.895 747.683 402.044 740.346 385.459 739.145C399.91 752.529 420.319 759.11 431.213 776.229C441.351 791.658 445.352 811.934 440.106 829.809C423.209 842.17 403.067 849.018 384.169 857.644C400.577 868.804 420.408 871.517 439.794 872.628C503.379 876.541 567.141 875.652 630.77 878.987C650.334 880.365 670.477 876.764 689.597 882.366C624.145 882.366 558.604 880.676 493.152 881.166L487.149 887.435C457.98 887.746 428.278 885.923 399.643 879.787C405.512 880.41 411.115 879.565 416.45 877.342C403.689 870.583 384.125 870.494 380.301 853.197C375.187 854.976 370.074 856.799 364.96 858.622C363.582 859.111 360.736 860.089 359.313 860.578L361.27 859.156C362.915 857.955 366.25 855.554 367.895 854.398C328.988 848.84 292.083 828.608 269.851 795.704C243.839 761.066 242.727 715.446 244.95 673.96C246.195 647.237 258.69 623.271 270.206 599.749C270.162 598.593 270.028 596.236 269.939 595.08L268.383 593.968C269.183 590.189 270.028 586.409 271.006 582.674ZM425.921 879.254C426.5 880.365 427.611 882.588 428.189 883.7C448.065 885.078 468.029 885.034 487.905 886.635L487.372 878.942C467.051 880.365 444.863 875.163 425.921 879.254Z"></path>
<path fill="#644A51" d="M739.798 181.292C752.07 161.061 776.97 151.634 799.869 152.924C847.18 153.19 890.888 195.209 890.533 243.009C891.689 260.706 885.464 277.78 875.682 292.276C882.44 267.82 889.377 241.141 879.594 216.464C865.855 175.378 818.1 149.722 776.303 161.016C762.43 164.351 751.536 173.911 739.798 181.292Z"></path>
<path fill="#FACFD1" d="M845.179 700.906C844.112 675.294 837.175 650.305 836.864 624.649C843.445 661.421 848.692 698.549 847.18 736.033C848.692 765.424 839.087 799.884 810.897 814.068C770.967 834.522 722.145 839.947 679.681 824.073C645.355 813.224 626.991 774.895 632.905 740.568C633.438 759.733 634.061 780.409 646.377 796.283C666.787 824.562 704.671 832.299 737.574 831.232C769.856 828.475 805.739 821.894 828.504 796.727C850.915 770.093 846.779 733.187 845.179 700.906Z"></path>
<path fill="#FACFD1" d="M753.759 691.346C763.141 685.477 766.565 674.227 772.39 665.423C767.543 678.184 761.941 693.48 747.267 697.438C726.191 701.617 704.626 702.862 683.194 702.951C705.96 695.259 731.616 701.84 753.759 691.346Z"></path>
<path fill="#FACFD1" d="M497.776 827.274C545.22 832.299 598.978 835.278 638.685 804.019C617.164 828.875 581.459 831.988 550.689 833.188C515.873 833.01 476.878 835.056 447.664 812.557C464.961 815.402 479.99 826.385 497.776 827.274Z"></path>
<path fill="#311A27" d="M349.931 486.764C342.683 431.005 399.064 381.116 453.178 388.586C467.673 391.432 478.612 404.06 481.502 418.244C487.327 450.97 475.722 485.475 452.6 509.041C431.346 527.716 398.798 530.651 373.542 519.001C360.425 513.31 353.31 499.97 349.931 486.764ZM423.209 472.713C434.058 471.024 443.262 463.731 446.686 453.104C435.259 443.233 417.251 459.552 423.209 472.713Z"></path>
<path fill="#301A26" d="M632.104 429.227C632.46 409.707 646.466 390.187 666.564 387.519C721.255 381.383 777.503 435.007 766.387 490.81C754.604 532.118 698.356 537.098 667.453 514.732C642.108 494.812 630.814 460.663 632.104 429.227ZM670.566 451.148C670.966 462.175 678.614 473.603 690.797 472.224C699.245 460.975 682.171 447.413 670.566 451.148Z"></path>
<path fill="#FFF9FA" d="M423.209 472.713C417.251 459.552 435.259 443.233 446.686 453.104C443.263 463.731 434.058 471.024 423.209 472.713Z"></path>
<path fill="#FFFAF9" d="M670.566 451.148C682.171 447.413 699.246 460.975 690.798 472.224C678.614 473.603 670.966 462.175 670.566 451.148Z"></path>
<path fill="#351D27" d="M533.792 495.257C527.212 488.365 533.348 478.405 541.618 477.293C556.247 475.292 574.166 473.914 584.615 486.675C578.924 496.502 571.232 504.95 560.96 510.064C563.851 533.319 593.153 546.391 611.65 531.584C621.165 526.604 617.03 509.263 629.658 509.397C628.28 521.491 622.811 533.897 611.383 539.588C592.975 550.66 567.986 542.612 557.359 524.559C549.266 535.364 538.728 547.236 523.921 546.569C511.382 545.146 499.021 538.432 491.996 527.805C488.394 521.58 482.658 512.153 491.551 507.396C495.553 516.2 497.509 527.005 506.358 532.474C520.142 543.056 543.219 539.099 549.844 522.158C560.382 508.952 538.95 505.083 533.792 495.257Z"></path>
<path fill="#F9D1D2" d="M287.147 523.225C289.193 494.234 324.675 480.317 349.931 486.764C353.311 499.97 360.425 513.31 373.542 519.001C398.798 530.651 431.346 527.716 452.6 509.041C449.843 527.583 449.621 549.015 434.592 562.532C412.76 584.186 379.5 583.653 350.91 582.497C318.984 582.319 287.636 556.173 287.147 523.225ZM308.268 524.337C316.36 524.159 324.498 523.937 332.59 523.67C331.968 517.267 331.39 510.864 330.767 504.417C319.429 505.439 308.135 511.264 308.268 524.337Z"></path>
<path fill="#FACFD0" d="M766.387 490.81C787.196 490.099 809.74 495.835 823.613 512.331C835.129 527.271 828.86 549.37 816.232 561.598C800.802 575.871 780.971 586.276 759.628 586.765C730.104 589.344 697.822 583.697 675.99 562.31C663.807 549.548 668.031 530.651 667.453 514.732C698.356 537.098 754.604 532.118 766.387 490.81Z"></path>
<path fill="#FBEDEC" d="M308.268 524.337C308.134 511.264 319.428 505.439 330.767 504.417C331.389 510.864 331.967 517.267 332.59 523.67C324.497 523.937 316.36 524.159 308.268 524.337Z"></path>
<path fill="#431F2D" d="M513.205 556.351C524.722 555.373 536.505 558.797 542.685 569.246C534.326 566.801 526.011 564.533 517.652 562.354C523.077 580.229 532.948 596.192 545.887 609.531C548.021 616.69 550.422 623.715 552.912 630.785C551.445 632.831 548.599 636.921 547.176 638.967C556.247 639.456 565.274 640.301 574.255 642.213C566.341 645.77 558.381 648.971 550.155 651.595C559.137 650.839 568.119 650.705 577.101 649.816C575.589 644.614 573.5 639.545 571.499 634.52C565.674 630.696 560.205 626.428 555.002 621.848C596.443 622.782 640.952 624.338 675.057 651.106C676.746 653.64 680.037 658.709 681.682 661.243C678.525 659.865 672.211 657.108 669.054 655.685L670.388 660.71C662.518 653.818 653.758 648.126 645.088 642.479C653.402 650.305 665.941 656.619 666.786 669.38C668.076 681.608 667.142 693.969 666.608 706.242C664.474 706.82 660.161 707.976 658.027 708.554C658.205 694.325 658.027 680.141 657.449 665.957C624.145 675.161 589.329 676.806 555.002 677.206C514.806 676.806 474.388 674.005 435.125 664.934C434.192 681.742 433.969 698.549 434.681 715.401C435.17 730.386 436.682 745.371 438.86 760.222L431.479 759.288C421.608 746.349 423.609 729.586 423.876 714.379C424.765 693.169 425.21 671.693 430.057 650.928C431.302 649.282 433.792 645.948 435.037 644.258C468.296 623.004 509.915 628.829 546.865 619.802C536.327 608.197 525.967 596.147 519.075 581.963C515.429 574.004 509.337 565.378 513.205 556.351ZM440.906 658.709C463.538 665.112 487.06 667.335 510.449 669.069C557.448 670.848 605.203 671.159 651.135 659.554C632.415 645.458 608.004 646.392 585.816 644.213C582.348 649.994 581.503 659.42 573.277 660.354C557.937 666.446 543.086 655.73 536.238 642.524C504.268 643.413 469.852 644.036 440.906 658.709Z"></path>
<path fill="#2E1923" d="M268.383 593.968L269.939 595.08C270.028 596.236 270.162 598.593 270.206 599.749C258.69 623.271 246.195 647.237 244.95 673.96C242.727 715.446 243.839 761.067 269.851 795.705C292.083 828.608 328.988 848.84 367.895 854.398C366.25 855.554 362.915 857.955 361.27 859.156C307.957 854.442 265.004 813.357 244.683 765.735C199.774 764.757 154.865 766.002 110 765.291C111.156 763.646 113.424 760.355 114.535 758.71C157.133 757.554 199.819 757.998 242.416 758.31C231.566 706.419 232.5 649.193 260.78 602.728C262.692 600.549 266.471 596.192 268.383 593.968Z"></path>
<path fill="#2E1923" d="M364.96 858.622C370.074 856.799 375.187 854.976 380.301 853.197C384.125 870.494 403.689 870.583 416.451 877.342C411.115 879.565 405.512 880.41 399.643 879.787C386.481 875.696 375.854 866.67 364.96 858.622Z"></path>
<path fill="#866771" d="M831.306 608.997C837.175 610.154 838.242 613.488 834.552 618.958C828.638 617.757 827.571 614.422 831.306 608.997Z"></path>
<path fill="#E0CBC8" d="M328.455 635.321C352.421 649.149 361.492 676.495 373.587 699.661C386.303 699.883 399.02 700.283 411.693 701.973C411.47 703.174 411.07 705.53 410.848 706.731C399.154 704.908 387.415 703.752 375.632 702.951C375.676 705.753 375.81 711.444 375.899 714.245C365.494 685.21 351.221 656.753 328.455 635.321Z"></path>
<path fill="#E0CBC8" d="M645.088 642.479C653.758 648.126 662.518 653.818 670.388 660.71C674.568 674.716 674.79 689.567 674.39 704.107C672.434 704.641 668.565 705.708 666.609 706.242C667.142 693.969 668.076 681.608 666.787 669.38C665.942 656.619 653.403 650.305 645.088 642.479Z"></path>
<path fill="#CC8664" d="M440.906 658.709C469.853 644.036 504.268 643.413 536.238 642.524C543.086 655.73 557.937 666.446 573.277 660.354C581.503 659.42 582.348 649.994 585.816 644.213C608.004 646.392 632.415 645.458 651.135 659.554C605.203 671.159 557.448 670.848 510.449 669.069C487.06 667.335 463.539 665.112 440.906 658.709Z"></path>
<path fill="#FEFFFF" d="M435.125 664.934C474.387 674.005 514.806 676.806 555.002 677.206C589.329 676.806 624.144 675.161 657.448 665.957C658.026 680.141 658.204 694.325 658.026 708.554C631.125 716.113 618.231 746.838 623.878 772.761C600 774.806 579.28 788.768 555.535 791.436C529.123 795.705 498.398 792.814 478.567 773.028C457.269 748.794 451.31 715.935 446.775 685.077C441.35 694.547 436.637 704.552 434.681 715.401C433.969 698.549 434.191 681.742 435.125 664.934Z"></path>
<path fill="#E8E6E9" d="M434.681 715.401C436.637 704.552 441.35 694.547 446.775 685.076C451.311 715.935 457.269 748.794 478.568 773.028C498.399 792.814 529.124 795.705 555.536 791.436C579.28 788.768 600 774.806 623.878 772.761C626.59 780.72 629.747 788.546 632.993 796.327C605.603 823.273 564.384 822.383 528.724 821.672C505.291 820.071 479.368 819.849 459.403 805.931C448.065 793.303 443.752 776.096 438.86 760.222C436.682 745.371 435.17 730.386 434.681 715.401Z"></path>
<path fill="#7B5E63" d="M652.202 714.779C683.46 709.132 715.297 710.377 746.778 706.686C741.487 710.288 735.929 714.067 729.259 713.845C703.558 715.223 677.947 717.847 652.246 719.048L652.202 714.779Z"></path>
<path fill="#2F1724" d="M425.921 879.254C444.863 875.163 467.051 880.365 487.371 878.942L487.905 886.635C468.029 885.034 448.064 885.078 428.189 883.7C427.611 882.588 426.499 880.365 425.921 879.254Z"></path>
<path fill="#5F3F49" d="M739.308 867.515C747.578 862.98 754.381 856.221 761.807 850.396C757.716 867.47 739.619 873.784 724.501 877.431C713.474 879.209 701.246 882.588 690.975 876.452C707.071 873.607 724.057 874.096 739.308 867.515Z"></path>
<path fill="#280D1A" d="M493.152 881.166C558.604 880.676 624.145 882.366 689.597 882.366C692.22 883.611 697.512 886.057 700.135 887.302C629.258 891.437 558.071 889.258 487.149 887.435L493.152 881.166Z"></path>
</svg>
