<?xml version="1.0" standalone="no"?><!DOCTYPE svg PUBLIC "-//W3C//DTD SVG 1.1//EN" "http://www.w3.org/Graphics/SVG/1.1/DTD/svg11.dtd"><svg height="1024" node-id="1" sillyvg="true" template-height="1024" template-width="1101" version="1.1" viewBox="0 0 1101 1024" width="1101" xmlns="http://www.w3.org/2000/svg" xmlns:xlink="http://www.w3.org/1999/xlink"><defs node-id="39"></defs><g node-id="116"><path d="M 0.20 0.00 L 1100.80 0.00 L 1100.80 1024.00 L 0.20 1024.00 Z" fill="#ffffff" fill-rule="nonzero" group-id="1" node-id="43" stroke="none" target-height="1024" target-width="1100.6001" target-x="0.2" target-y="0"></path></g><path d="M 413.40 203.90 L 423.30 199.70 L 433.40 195.90 L 443.50 192.60 L 453.80 189.70 L 467.70 186.40 L 481.70 183.60 L 495.80 181.50 L 510.10 179.90 L 524.30 178.70 L 553.00 177.70 L 581.50 178.00 L 597.30 179.00 L 623.80 181.50 L 644.70 184.60 L 655.10 186.70 L 665.40 189.20 L 675.60 192.10 L 685.60 195.50 L 695.40 199.30 L 705.10 203.80 L 713.30 208.70 L 721.10 214.00 L 728.60 219.70 L 735.70 225.70 L 742.50 232.20 L 748.90 238.90 L 755.10 246.00 L 760.90 253.30 L 766.30 261.00 L 776.30 276.90 L 780.90 285.20 L 786.50 296.50 L 791.60 308.00 L 796.20 319.80 L 800.20 331.70 L 803.80 343.70 L 807.00 355.70 L 809.70 368.80 L 813.50 391.20 L 815.40 409.20 L 815.70 418.20 L 815.40 427.20 L 814.60 436.10 L 813.70 442.70 L 812.20 449.30 L 810.40 455.80 L 808.10 462.30 L 805.90 467.50 L 803.30 472.50 L 800.30 477.10 L 796.90 481.50 L 792.00 487.00 L 786.50 492.00 L 780.60 496.60 L 774.40 500.70 L 768.00 504.40 L 753.80 511.30 L 746.10 514.30 L 730.30 519.30 L 714.10 523.10 L 701.90 525.30 L 664.90 530.90 L 665.30 501.80 L 658.50 497.70 L 656.20 496.60 L 653.80 495.80 L 632.70 495.80 L 595.50 496.70 L 577.00 497.80 L 552.40 500.30 L 540.10 502.00 L 534.60 512.50 L 535.20 509.60 L 535.20 507.30 L 534.80 505.30 L 534.00 503.50 L 532.90 501.90 L 531.40 500.60 L 528.70 499.00 L 525.60 497.70 L 522.20 496.90 L 515.30 496.20 L 498.30 496.20 L 470.70 497.40 L 456.90 498.50 L 443.20 500.30 L 429.60 502.70 L 425.70 504.40 L 424.30 505.70 L 422.60 508.00 L 421.40 510.70 L 420.60 513.70 L 418.90 526.50 L 418.30 529.20 L 391.20 524.40 L 390.60 530.80 L 394.20 532.20 L 409.30 536.60 L 412.90 538.10 L 416.30 540.00 L 419.40 542.30 L 414.10 540.90 L 398.40 535.70 L 391.30 534.40 L 387.60 534.30 L 382.40 529.20 L 388.30 523.50 L 380.50 522.40 L 372.70 520.80 L 365.00 518.50 L 357.40 515.80 L 350.10 512.60 L 343.00 508.80 L 336.20 504.60 L 329.80 499.90 L 323.70 494.70 L 315.50 486.10 L 308.50 476.50 L 305.50 471.40 L 302.90 466.10 L 300.70 460.50 L 298.80 454.60 L 295.90 440.70 L 294.50 426.70 L 294.40 417.40 L 294.70 408.00 L 295.50 398.60 L 298.40 380.00 L 300.30 370.70 L 303.60 356.90 L 307.30 343.40 L 310.70 332.70 L 314.50 322.20 L 318.80 311.80 L 323.40 301.40 L 328.50 291.30 L 334.10 281.50 L 340.00 271.90 L 346.40 262.60 L 353.20 253.60 L 360.50 245.10 L 368.20 237.00 L 376.30 229.30 L 383.10 223.50 L 390.20 218.00 L 397.60 213.00 L 405.30 208.20 L 413.40 203.90 Z M 376.50 409.30 L 363.50 411.70 L 357.10 413.40 L 350.80 415.50 L 346.80 417.20 L 339.30 421.50 L 335.90 424.10 L 332.70 427.20 L 329.80 430.60 L 328.20 434.30 L 327.10 437.90 L 326.50 441.60 L 326.30 445.30 L 327.00 452.80 L 329.30 460.00 L 331.60 464.60 L 334.30 468.80 L 337.60 472.80 L 341.30 476.40 L 345.30 479.40 L 355.00 484.50 L 360.30 486.70 L 365.80 488.50 L 371.30 489.80 L 378.80 491.10 L 386.40 491.70 L 394.10 491.80 L 401.90 491.40 L 409.50 490.60 L 417.20 489.40 L 428.60 486.90 L 439.60 483.90 L 443.00 482.40 L 448.80 478.70 L 451.20 476.40 L 454.10 473.00 L 456.50 469.30 L 458.60 465.30 L 460.30 461.10 L 462.80 452.00 L 464.00 445.00 L 466.00 424.40 L 469.90 420.00 L 473.60 415.30 L 476.90 410.50 L 482.50 400.00 L 486.60 388.90 L 488.20 383.20 L 489.30 377.30 L 490.00 371.50 L 490.30 365.60 L 489.80 355.30 L 489.00 351.00 L 487.60 346.80 L 485.90 342.70 L 483.70 338.90 L 481.20 335.40 L 478.20 332.10 L 475.00 329.30 L 471.40 326.80 L 467.50 324.90 L 463.40 323.60 L 458.90 322.80 L 453.20 322.60 L 447.50 322.80 L 441.90 323.50 L 436.40 324.70 L 431.00 326.20 L 425.70 328.20 L 420.50 330.50 L 410.70 336.30 L 401.80 343.30 L 397.70 347.30 L 390.40 356.00 L 384.30 365.50 L 381.80 370.60 L 379.70 375.80 L 378.00 381.10 L 376.80 386.60 L 376.00 392.20 L 375.60 397.80 L 375.80 403.50 L 376.50 409.30 Z M 617.10 360.00 L 616.70 365.60 L 616.70 371.00 L 617.20 376.40 L 618.20 381.70 L 621.20 392.20 L 625.70 402.10 L 629.40 408.40 L 633.50 414.40 L 638.10 419.90 L 636.70 428.40 L 636.80 436.90 L 637.70 442.60 L 639.00 448.20 L 640.70 453.70 L 643.90 461.80 L 647.50 469.50 L 652.60 473.20 L 658.00 476.70 L 663.60 479.70 L 669.50 482.50 L 681.70 486.90 L 694.30 489.80 L 700.80 490.70 L 707.30 491.10 L 713.70 491.20 L 720.20 490.80 L 726.60 490.00 L 732.90 488.80 L 739.00 487.10 L 745.10 484.90 L 750.90 482.30 L 756.50 479.20 L 761.90 475.60 L 767.10 471.60 L 770.30 468.70 L 773.20 465.40 L 775.60 461.70 L 777.60 457.80 L 779.00 453.80 L 780.00 449.60 L 780.40 445.30 L 780.30 441.00 L 779.60 436.80 L 778.60 433.80 L 775.70 428.00 L 773.60 425.30 L 769.80 421.80 L 765.70 418.90 L 761.20 416.40 L 756.50 414.40 L 751.70 412.90 L 746.60 411.80 L 741.50 411.20 L 736.40 411.00 L 731.40 411.30 L 732.40 406.00 L 733.00 400.70 L 733.20 395.60 L 732.80 390.50 L 732.10 385.40 L 729.40 375.60 L 727.50 370.80 L 724.40 364.70 L 720.80 358.90 L 716.70 353.40 L 712.00 348.20 L 707.00 343.40 L 701.50 339.00 L 695.70 335.10 L 689.70 331.80 L 683.40 328.90 L 678.50 327.20 L 668.50 324.70 L 663.40 324.00 L 658.20 323.70 L 653.10 323.80 L 648.00 324.40 L 642.80 325.30 L 639.20 326.70 L 635.80 328.50 L 632.70 330.60 L 629.80 333.10 L 626.40 336.80 L 623.50 340.90 L 621.10 345.40 L 619.20 350.20 L 617.90 355.10 L 617.10 360.00 Z M 530.80 404.80 L 531.90 407.70 L 533.40 410.30 L 535.10 412.60 L 538.20 415.70 L 548.90 423.90 L 546.60 427.90 L 543.90 431.80 L 540.90 435.30 L 537.50 438.30 L 532.40 441.50 L 529.60 442.60 L 526.70 443.30 L 523.60 443.50 L 517.50 443.00 L 515.00 442.40 L 512.90 441.50 L 509.20 438.70 L 507.60 437.00 L 505.50 434.20 L 497.60 421.50 L 495.40 418.70 L 495.30 422.90 L 495.80 426.90 L 496.90 430.90 L 498.50 434.70 L 500.60 438.20 L 503.30 441.40 L 508.00 445.30 L 513.60 448.00 L 517.60 449.10 L 521.40 449.70 L 525.20 449.70 L 529.00 449.30 L 532.60 448.40 L 536.20 447.00 L 539.60 445.30 L 542.80 443.20 L 545.80 440.70 L 548.50 437.90 L 550.90 434.90 L 553.00 431.60 L 559.80 441.50 L 562.50 444.50 L 564.50 446.20 L 566.80 447.60 L 573.10 450.20 L 576.80 451.00 L 580.70 451.20 L 584.50 450.90 L 588.20 450.00 L 591.90 448.70 L 595.30 446.90 L 598.50 444.70 L 601.40 442.10 L 603.90 439.20 L 605.90 436.00 L 607.60 432.60 L 608.60 428.90 L 609.10 425.10 L 608.90 421.00 L 606.40 423.20 L 604.10 425.70 L 596.50 437.20 L 594.30 439.60 L 591.80 441.70 L 589.90 442.70 L 587.70 443.50 L 581.70 444.40 L 578.40 444.30 L 575.20 443.80 L 572.10 442.70 L 569.30 441.20 L 566.70 439.30 L 564.30 437.10 L 562.20 434.60 L 560.40 431.80 L 558.90 428.90 L 557.80 425.70 L 557.10 422.50 L 567.10 415.20 L 569.40 412.90 L 571.30 410.60 L 572.20 408.90 L 573.10 405.20 L 573.00 403.40 L 572.40 401.40 L 571.40 399.10 L 567.00 397.80 L 558.20 396.20 L 551.50 395.90 L 544.80 396.10 L 540.30 396.60 L 535.70 397.90 L 533.70 399.00 L 532.20 400.40 L 531.40 401.60 L 530.80 404.80 Z" fill="#fdfdfd" fill-rule="nonzero" node-id="46" stroke="none" target-height="364.59998" target-width="521.30005" target-x="294.4" target-y="177.7"></path><path d="M 441.50 394.40 L 439.30 392.40 L 438.20 390.60 L 437.70 388.80 L 437.80 387.00 L 438.30 385.20 L 439.50 383.50 L 442.70 380.50 L 444.80 379.20 L 448.20 377.70 L 451.70 376.90 L 454.10 376.70 L 458.30 377.50 L 454.50 385.00 L 451.10 389.30 L 446.80 392.60 L 444.30 393.70 L 441.50 394.40 Z" fill="#fdfdfd" fill-rule="nonzero" node-id="48" stroke="none" target-height="17.699982" target-width="20.599976" target-x="437.7" target-y="376.7"></path><path d="M 297.80 282.10 L 296.00 275.10 L 294.80 268.00 L 294.20 260.90 L 294.20 253.70 L 294.70 246.50 L 295.80 239.50 L 297.60 232.50 L 299.80 225.80 L 302.70 219.30 L 305.20 214.60 L 311.10 205.80 L 318.20 197.80 L 322.30 194.30 L 326.60 191.00 L 331.30 188.00 L 318.50 200.60 L 310.40 209.50 L 306.90 214.20 L 304.80 217.60 L 303.10 221.20 L 299.40 231.10 L 297.80 237.30 L 296.80 243.60 L 296.20 250.00 L 296.20 262.90 L 297.80 282.10 Z" fill="#a26a69" fill-rule="nonzero" node-id="50" stroke="none" target-height="94.100006" target-width="37.099976" target-x="294.2" target-y="188"></path><path d="M 793.50 502.90 L 798.70 510.20 L 804.30 517.20 L 808.60 521.10 L 810.10 524.00 L 804.70 519.60 L 811.60 550.30 L 812.80 558.10 L 813.30 565.80 L 813.30 571.00 L 812.70 576.20 L 810.40 586.10 L 808.80 590.60 L 806.80 594.90 L 804.40 599.10 L 800.70 604.30 L 796.60 609.20 L 792.00 613.70 L 787.10 617.80 L 781.80 621.40 L 776.30 624.70 L 769.50 628.10 L 762.50 631.10 L 755.30 633.50 L 748.00 635.60 L 733.20 638.60 L 721.80 640.10 L 710.40 641.00 L 687.70 641.80 L 688.40 648.60 L 688.50 655.40 L 688.10 662.30 L 687.20 669.10 L 685.70 675.80 L 683.70 682.30 L 681.20 688.70 L 678.20 694.70 L 674.70 700.50 L 670.70 706.00 L 666.20 711.00 L 661.20 715.70 L 653.00 721.60 L 643.60 726.40 L 664.60 704.60 L 671.00 696.70 L 673.80 692.50 L 676.40 687.50 L 678.60 682.30 L 680.40 676.90 L 681.80 671.40 L 682.70 665.80 L 683.30 660.10 L 683.40 654.50 L 683.10 648.80 L 682.30 643.20 L 680.90 637.80 L 678.80 632.50 L 671.50 617.30 L 669.50 612.10 L 667.80 604.90 L 665.20 570.80 L 664.10 540.50 L 681.70 536.50 L 690.60 534.80 L 699.50 533.50 L 711.50 532.70 L 717.50 532.80 L 704.90 536.00 L 692.20 538.60 L 666.70 543.20 L 671.30 575.40 L 673.90 591.50 L 676.80 607.50 L 680.30 623.40 L 684.40 639.20 L 711.50 637.00 L 720.60 636.00 L 738.40 633.00 L 747.20 630.90 L 755.90 628.30 L 764.40 625.00 L 769.60 622.70 L 779.50 617.00 L 784.10 613.70 L 788.50 610.00 L 792.50 606.00 L 796.30 601.70 L 799.60 597.10 L 802.40 592.30 L 804.80 587.10 L 806.60 581.70 L 807.80 576.10 L 808.60 569.70 L 808.80 563.50 L 808.50 557.30 L 807.80 551.10 L 805.40 538.80 L 802.90 529.70 L 800.00 520.60 L 793.50 502.90 Z" fill="#a26a69" fill-rule="nonzero" node-id="52" stroke="none" target-height="223.50003" target-width="169.70001" target-x="643.6" target-y="502.9"></path><path d="M 512.30 615.30 L 515.10 619.30 L 517.40 623.50 L 519.20 627.70 L 520.60 632.10 L 521.80 638.10 L 522.60 644.20 L 522.70 650.40 L 521.90 663.00 L 519.20 678.60 L 517.30 687.60 L 511.90 705.60 L 509.70 711.50 L 507.10 717.30 L 504.00 722.70 L 499.00 729.30 L 494.10 734.00 L 489.70 736.50 L 486.20 737.70 L 478.70 739.20 L 467.50 740.40 L 467.10 737.00 L 475.60 736.70 L 484.10 735.60 L 489.40 733.80 L 494.10 730.90 L 496.10 728.90 L 497.90 726.40 L 501.60 720.10 L 507.80 707.20 L 510.50 700.40 L 512.70 693.50 L 516.10 679.50 L 518.00 665.20 L 518.40 658.00 L 518.00 643.50 L 517.20 636.40 L 516.00 629.30 L 514.40 622.20 L 512.30 615.30 Z" fill="#a26a69" fill-rule="nonzero" node-id="54" stroke="none" target-height="125.10004" target-width="55.600006" target-x="467.1" target-y="615.3"></path><path d="M 292.30 539.20 L 298.90 522.80 L 306.60 507.00 L 295.90 532.90 L 292.90 541.70 L 291.30 547.60 L 290.10 553.70 L 289.40 559.90 L 289.30 564.90 L 289.60 569.70 L 291.40 579.20 L 293.40 585.30 L 295.90 591.20 L 298.90 596.90 L 302.40 602.30 L 306.30 607.50 L 310.70 612.40 L 315.30 617.00 L 320.20 621.20 L 325.30 625.10 L 331.80 629.30 L 338.40 632.90 L 345.30 636.00 L 352.40 638.50 L 359.60 640.70 L 367.00 642.40 L 378.30 644.40 L 389.60 645.90 L 412.40 647.60 L 416.10 635.10 L 418.40 629.00 L 421.10 623.00 L 424.20 617.40 L 427.70 612.00 L 430.70 608.20 L 434.00 604.60 L 437.60 601.30 L 441.60 598.20 L 438.60 604.70 L 434.30 608.90 L 430.50 613.40 L 427.10 618.10 L 424.10 623.10 L 421.50 628.30 L 419.40 633.70 L 417.70 639.20 L 416.40 644.90 L 415.50 650.60 L 415.10 656.40 L 415.10 662.20 L 415.50 668.10 L 416.40 673.90 L 417.70 679.60 L 419.50 685.10 L 423.50 694.90 L 427.90 702.80 L 431.90 708.30 L 436.30 713.40 L 446.00 723.10 L 456.00 732.30 L 450.50 729.10 L 445.40 725.60 L 440.70 721.60 L 436.30 717.30 L 432.30 712.70 L 428.60 707.80 L 425.30 702.70 L 422.40 697.30 L 417.60 685.90 L 414.20 674.00 L 412.30 661.70 L 411.90 649.40 L 399.40 648.70 L 378.50 646.70 L 370.20 645.40 L 362.10 643.60 L 350.20 640.00 L 344.30 637.60 L 333.10 632.20 L 327.80 629.10 L 322.70 625.70 L 317.90 622.00 L 313.30 617.90 L 309.10 613.50 L 305.10 608.90 L 301.40 603.90 L 298.10 598.80 L 295.20 593.40 L 292.70 587.90 L 290.50 582.10 L 289.20 572.00 L 288.20 556.80 L 287.60 551.70 L 286.60 546.80 L 285.10 541.90 L 286.40 536.10 L 292.30 539.20 Z" fill="#facfd1" fill-rule="nonzero" node-id="56" stroke="none" target-height="225.29999" target-width="170.9" target-x="285.1" target-y="507"></path><path d="M 376.50 409.30 L 375.80 403.50 L 375.60 397.80 L 376.00 392.20 L 376.80 386.60 L 378.00 381.10 L 379.70 375.80 L 381.80 370.60 L 384.30 365.50 L 390.40 356.00 L 397.70 347.30 L 406.10 339.70 L 415.50 333.30 L 420.50 330.50 L 425.70 328.20 L 431.00 326.20 L 436.40 324.70 L 441.90 323.50 L 447.50 322.80 L 453.20 322.60 L 458.90 322.80 L 463.40 323.60 L 467.50 324.90 L 471.40 326.80 L 475.00 329.30 L 478.20 332.10 L 481.20 335.40 L 483.70 338.90 L 485.90 342.70 L 487.60 346.80 L 489.00 351.00 L 489.80 355.30 L 490.30 365.60 L 490.00 371.50 L 489.30 377.30 L 488.20 383.20 L 484.70 394.50 L 479.90 405.30 L 476.90 410.50 L 473.60 415.30 L 469.90 420.00 L 466.00 424.40 L 460.90 428.20 L 455.40 431.40 L 449.60 434.20 L 443.60 436.40 L 437.50 438.10 L 431.20 439.20 L 424.90 439.80 L 418.50 439.70 L 412.20 439.00 L 407.60 438.00 L 398.60 435.00 L 394.20 432.80 L 391.30 431.10 L 388.70 429.00 L 386.30 426.70 L 383.20 422.80 L 380.60 418.50 L 376.50 409.30 Z M 441.50 394.40 L 444.30 393.70 L 446.80 392.60 L 451.10 389.30 L 454.50 385.00 L 458.30 377.50 L 454.10 376.70 L 451.70 376.90 L 448.20 377.70 L 444.80 379.20 L 440.90 381.90 L 438.30 385.20 L 437.80 387.00 L 437.70 388.80 L 438.20 390.60 L 439.30 392.40 L 441.50 394.40 Z" fill="#301a27" fill-rule="nonzero" node-id="58" stroke="none" target-height="117.19998" target-width="114.69998" target-x="375.6" target-y="322.6"></path><path d="M 617.10 360.00 L 617.90 355.10 L 619.20 350.20 L 621.10 345.40 L 623.50 340.90 L 626.40 336.80 L 629.80 333.10 L 632.70 330.60 L 635.80 328.50 L 639.20 326.70 L 642.80 325.30 L 648.00 324.40 L 653.10 323.80 L 658.20 323.70 L 663.40 324.00 L 668.50 324.70 L 678.50 327.20 L 683.40 328.90 L 689.70 331.80 L 695.70 335.10 L 701.50 339.00 L 707.00 343.40 L 712.00 348.20 L 716.70 353.40 L 720.80 358.90 L 724.40 364.70 L 727.50 370.80 L 729.40 375.60 L 730.90 380.50 L 732.80 390.50 L 733.10 395.60 L 733.00 400.70 L 732.40 406.00 L 731.40 411.30 L 729.20 415.80 L 726.70 419.80 L 723.90 423.40 L 720.80 426.60 L 717.40 429.40 L 713.80 431.90 L 709.90 434.00 L 705.80 435.80 L 700.10 437.60 L 694.30 438.70 L 688.20 439.30 L 682.00 439.30 L 675.90 438.70 L 669.80 437.60 L 663.80 435.90 L 658.00 433.70 L 652.50 431.00 L 647.30 427.80 L 642.50 424.10 L 638.10 419.90 L 633.50 414.40 L 629.40 408.40 L 625.70 402.10 L 623.30 397.20 L 619.50 387.00 L 618.20 381.70 L 617.20 376.40 L 616.70 371.00 L 616.70 365.60 L 617.10 360.00 Z M 649.70 383.80 L 652.40 387.20 L 655.70 390.00 L 658.00 391.60 L 660.50 392.70 L 665.10 393.50 L 669.20 392.60 L 671.40 391.50 L 668.00 386.50 L 665.70 383.90 L 663.10 381.50 L 660.40 379.50 L 657.80 378.20 L 656.00 377.80 L 654.40 377.80 L 653.00 378.40 L 651.80 379.40 L 650.70 381.10 L 649.70 383.80 Z" fill="#301a27" fill-rule="nonzero" node-id="60" stroke="none" target-height="115.599976" target-width="116.39996" target-x="616.7" target-y="323.7"></path><path d="M 649.70 383.80 L 650.70 381.10 L 651.80 379.40 L 653.00 378.40 L 654.40 377.80 L 656.00 377.80 L 657.80 378.20 L 660.40 379.50 L 663.10 381.50 L 668.00 386.50 L 671.40 391.50 L 667.10 393.20 L 663.10 393.30 L 660.50 392.70 L 658.00 391.60 L 655.70 390.00 L 652.40 387.20 L 649.70 383.80 Z" fill="#fefdfe" fill-rule="nonzero" node-id="62" stroke="none" target-height="15.5" target-width="21.700012" target-x="649.7" target-y="377.8"></path><path d="M 816.70 467.00 L 819.70 461.80 L 834.80 471.90 L 864.20 493.00 L 885.90 509.30 L 950.60 558.90 L 967.30 570.90 L 972.50 575.40 L 975.70 578.70 L 978.50 582.20 L 980.90 586.20 L 983.70 591.70 L 986.00 597.50 L 987.80 603.60 L 989.10 609.70 L 989.80 616.00 L 990.00 622.30 L 989.60 628.60 L 988.80 634.90 L 987.30 641.00 L 985.40 646.90 L 982.90 652.60 L 979.80 658.10 L 977.20 661.90 L 971.00 668.90 L 967.40 672.10 L 963.80 674.70 L 949.60 682.90 L 945.20 686.80 L 944.50 708.60 L 943.10 796.10 L 942.30 818.00 L 941.90 820.80 L 941.20 823.00 L 940.10 824.60 L 937.00 827.10 L 935.00 827.90 L 931.80 828.60 L 928.20 829.00 L 914.50 829.50 L 913.10 838.80 L 912.10 843.40 L 910.60 847.70 L 909.20 850.40 L 907.30 852.80 L 904.90 855.00 L 901.50 857.00 L 897.90 858.50 L 894.10 859.40 L 890.20 859.80 L 886.20 859.70 L 882.20 859.20 L 878.30 858.20 L 874.60 857.00 L 871.10 855.30 L 867.10 852.10 L 863.60 847.00 L 858.10 832.70 L 856.50 829.30 L 753.60 829.00 L 239.30 829.30 L 237.50 839.00 L 235.90 843.80 L 233.80 848.20 L 232.00 850.90 L 230.00 853.20 L 227.60 855.20 L 224.90 856.80 L 221.80 857.80 L 214.50 859.30 L 210.90 859.80 L 207.20 859.70 L 203.70 859.20 L 200.20 858.30 L 197.00 857.00 L 193.90 855.30 L 191.20 853.20 L 188.70 850.80 L 186.60 848.10 L 184.90 845.10 L 183.70 841.80 L 183.00 838.30 L 182.80 834.60 L 183.30 830.60 L 173.10 830.40 L 166.40 829.40 L 163.40 828.20 L 161.60 827.10 L 158.50 823.80 L 157.50 806.40 L 156.90 788.90 L 156.00 719.10 L 154.60 684.30 L 151.60 681.50 L 148.40 679.20 L 134.30 671.30 L 131.00 669.00 L 124.70 663.30 L 121.90 660.00 L 117.20 652.80 L 114.70 647.60 L 112.80 642.20 L 111.30 636.60 L 110.40 630.90 L 110.00 625.20 L 110.10 619.30 L 110.80 613.50 L 111.90 607.90 L 113.50 602.30 L 115.60 596.90 L 118.20 591.70 L 121.20 586.90 L 126.10 580.80 L 131.50 575.20 L 137.20 569.90 L 143.30 565.10 L 156.10 556.20 L 158.80 562.30 L 145.60 572.30 L 159.10 570.50 L 172.90 570.00 L 179.80 570.40 L 186.60 571.20 L 193.30 572.40 L 199.80 574.20 L 206.20 576.50 L 215.30 581.10 L 223.80 587.10 L 231.00 593.80 L 236.90 601.40 L 240.10 606.90 L 242.90 612.60 L 245.20 618.60 L 248.70 631.10 L 249.80 637.50 L 251.10 647.20 L 251.70 656.70 L 288.60 636.50 L 297.60 637.90 L 274.90 651.70 L 251.60 664.20 L 250.00 712.10 L 250.50 728.00 L 251.30 736.00 L 252.40 739.90 L 254.00 743.50 L 256.00 746.70 L 258.60 749.60 L 261.40 752.10 L 264.60 754.40 L 271.70 757.80 L 275.50 759.00 L 283.30 760.30 L 331.70 761.10 L 354.00 761.00 L 420.80 759.80 L 515.70 759.80 L 702.30 761.10 L 793.90 761.10 L 812.30 760.10 L 818.40 759.30 L 822.50 758.60 L 830.10 756.20 L 833.70 754.40 L 837.10 752.20 L 840.30 749.50 L 843.80 745.40 L 845.00 743.10 L 846.40 739.40 L 847.70 731.60 L 848.10 719.70 L 846.90 667.60 L 846.80 650.20 L 822.80 637.20 L 811.00 630.40 L 799.50 623.10 L 799.80 617.00 L 822.60 629.80 L 845.60 642.20 L 846.90 634.20 L 848.80 626.30 L 851.20 618.60 L 853.40 612.90 L 856.00 607.40 L 858.90 602.10 L 862.20 597.10 L 865.90 592.30 L 870.00 587.80 L 874.40 583.70 L 879.30 579.90 L 884.10 576.40 L 889.00 573.30 L 894.20 570.80 L 899.50 568.70 L 910.60 565.60 L 922.10 564.00 L 929.80 563.60 L 937.60 563.70 L 945.30 564.30 L 913.40 539.60 L 881.30 515.30 L 816.70 467.00 Z M 854.10 638.40 L 853.60 654.00 L 853.70 669.70 L 854.80 716.80 L 854.50 732.50 L 854.20 736.30 L 853.40 740.00 L 852.20 743.50 L 850.50 746.90 L 848.60 750.10 L 843.60 755.80 L 840.70 758.20 L 837.50 760.30 L 834.20 762.10 L 830.70 763.40 L 826.90 764.30 L 819.70 765.60 L 805.30 767.30 L 794.30 767.80 L 761.50 768.20 L 478.00 766.90 L 407.20 767.00 L 336.40 767.60 L 305.80 767.60 L 295.60 767.20 L 285.40 766.50 L 275.30 765.20 L 270.70 764.20 L 266.20 762.60 L 261.80 760.50 L 257.70 757.80 L 254.00 754.70 L 250.70 751.20 L 248.60 748.30 L 245.40 742.00 L 244.30 738.50 L 243.00 722.40 L 243.20 702.10 L 244.20 677.70 L 244.40 657.40 L 243.20 641.40 L 242.00 633.50 L 240.10 625.60 L 237.70 617.80 L 235.70 612.90 L 233.30 608.40 L 230.50 604.20 L 227.50 600.30 L 220.50 593.30 L 212.50 587.50 L 206.70 584.30 L 200.70 581.60 L 194.30 579.50 L 187.80 577.80 L 181.10 576.70 L 174.40 576.10 L 167.60 576.00 L 160.80 576.50 L 154.20 577.50 L 147.60 578.90 L 141.30 580.90 L 135.30 583.50 L 129.40 589.10 L 124.60 595.60 L 122.10 600.30 L 120.10 605.30 L 118.70 610.60 L 117.70 615.90 L 117.30 621.30 L 117.40 626.80 L 118.00 632.20 L 119.20 637.50 L 120.90 642.70 L 123.10 647.60 L 125.80 652.20 L 130.80 658.60 L 134.90 662.40 L 138.50 664.80 L 150.00 671.20 L 153.60 673.50 L 156.80 675.90 L 160.20 679.80 L 161.50 682.10 L 162.40 684.50 L 163.00 687.30 L 163.60 712.60 L 164.00 778.50 L 164.40 800.40 L 165.10 822.40 L 643.80 821.70 L 818.70 822.10 L 877.00 822.10 L 935.30 821.60 L 936.30 731.60 L 936.70 709.20 L 937.70 684.70 L 939.00 681.70 L 940.60 679.90 L 942.70 678.30 L 956.70 670.50 L 960.90 667.60 L 964.80 664.30 L 968.30 660.60 L 971.50 656.60 L 974.20 652.30 L 976.60 647.80 L 978.60 643.10 L 980.20 638.20 L 981.50 633.20 L 982.30 628.10 L 982.70 622.90 L 982.60 617.70 L 982.20 612.60 L 981.30 607.60 L 980.00 602.60 L 978.30 597.80 L 976.10 593.20 L 973.40 588.80 L 970.30 584.60 L 967.20 581.20 L 963.80 578.40 L 960.10 576.10 L 956.10 574.30 L 952.00 572.80 L 947.70 571.70 L 941.00 570.60 L 934.30 570.10 L 927.50 570.10 L 915.80 570.90 L 910.70 571.80 L 905.60 573.10 L 896.00 576.90 L 887.00 582.00 L 882.80 585.10 L 877.50 589.60 L 872.70 594.50 L 868.30 599.90 L 862.70 608.60 L 858.30 618.00 L 855.40 628.00 L 854.10 638.40 Z M 190.40 829.00 L 191.00 839.20 L 191.40 842.60 L 192.30 845.90 L 193.80 849.00 L 197.30 850.50 L 200.80 851.60 L 204.40 852.20 L 209.90 852.50 L 215.40 852.20 L 226.50 850.70 L 232.10 828.80 L 190.40 829.00 Z M 865.20 829.40 L 865.50 833.10 L 866.20 836.50 L 867.30 839.80 L 868.80 842.90 L 870.70 845.60 L 872.90 848.00 L 875.40 850.00 L 878.20 851.60 L 881.40 852.70 L 884.60 853.30 L 888.20 853.30 L 892.10 852.70 L 895.20 852.50 L 897.80 851.80 L 899.90 850.70 L 901.70 849.10 L 903.20 847.30 L 904.50 845.00 L 905.90 841.40 L 908.60 829.70 L 894.20 829.10 L 879.70 829.00 L 865.20 829.40 Z" fill="#2e1923" fill-rule="nonzero" node-id="64" stroke="none" target-height="398" target-width="880" target-x="110" target-y="461.8"></path><path d="M 158.80 562.30 L 211.80 523.60 L 237.90 503.70 L 244.00 506.60 L 250.20 509.10 L 256.50 511.20 L 263.00 512.80 L 269.50 513.90 L 276.10 514.50 L 282.80 514.60 L 289.50 514.10 L 296.20 513.10 L 288.40 530.10 L 286.40 536.10 L 285.10 541.90 L 284.80 540.90 L 281.90 550.00 L 280.60 558.90 L 280.60 564.90 L 281.10 570.90 L 282.20 576.80 L 283.80 582.60 L 285.90 588.20 L 288.40 593.80 L 291.30 599.30 L 297.90 609.60 L 303.60 616.90 L 309.60 623.60 L 288.60 636.50 L 251.70 656.70 L 251.10 647.20 L 249.80 637.50 L 248.70 631.10 L 245.20 618.60 L 242.90 612.60 L 240.10 606.90 L 236.90 601.40 L 231.00 593.80 L 223.80 587.10 L 215.30 581.10 L 206.20 576.50 L 199.80 574.20 L 193.30 572.40 L 186.60 571.20 L 179.80 570.40 L 172.90 570.00 L 159.10 570.50 L 145.60 572.30 L 158.80 562.30 Z" fill="#f99872" fill-rule="nonzero" node-id="66" stroke="none" target-height="153" target-width="164" target-x="145.6" target-y="503.7"></path><path d="M 575.50 620.20 L 581.70 610.00 L 586.80 603.90 L 589.60 601.30 L 592.70 598.90 L 596.20 596.90 L 600.00 595.30 L 589.20 607.10 L 583.00 615.60 L 577.80 624.80 L 575.70 629.70 L 574.00 634.80 L 575.50 620.20 Z" fill="#b97763" fill-rule="nonzero" node-id="68" stroke="none" target-height="39.5" target-width="26" target-x="574" target-y="595.3"></path><path d="M 276.40 241.80 L 276.90 236.10 L 277.80 230.60 L 279.20 225.20 L 280.90 220.00 L 283.10 214.90 L 288.30 205.20 L 291.50 200.70 L 296.10 194.90 L 301.20 189.60 L 306.80 184.70 L 312.80 180.20 L 319.00 176.30 L 325.60 172.80 L 332.50 169.90 L 339.50 167.60 L 346.70 165.90 L 357.70 164.50 L 368.80 164.70 L 378.90 165.80 L 388.60 168.50 L 397.80 172.50 L 406.30 177.90 L 414.00 184.40 L 420.60 192.10 L 433.70 187.70 L 446.90 183.90 L 460.30 180.60 L 473.80 177.80 L 487.30 175.40 L 501.00 173.50 L 514.60 172.00 L 528.40 171.00 L 556.00 170.10 L 583.60 170.70 L 602.00 171.90 L 620.30 173.70 L 638.40 176.00 L 648.90 177.80 L 659.30 180.00 L 669.70 182.60 L 685.00 187.10 L 700.20 192.20 L 704.20 187.80 L 708.50 183.70 L 713.00 180.10 L 717.80 176.80 L 722.90 173.90 L 728.10 171.40 L 733.50 169.20 L 744.80 166.00 L 756.30 164.30 L 762.20 164.00 L 768.10 164.10 L 779.70 165.40 L 791.10 168.20 L 796.60 170.10 L 801.90 172.50 L 807.10 175.20 L 812.00 178.30 L 816.70 181.70 L 821.10 185.60 L 829.10 194.10 L 832.50 198.50 L 835.40 203.20 L 838.10 208.20 L 840.30 213.30 L 842.20 218.60 L 843.60 224.00 L 844.70 229.50 L 845.40 235.10 L 845.70 246.30 L 844.40 257.40 L 841.60 268.30 L 837.00 279.30 L 834.00 284.70 L 830.50 289.90 L 822.50 299.40 L 818.10 303.80 L 810.90 309.90 L 803.50 315.50 L 812.30 345.00 L 816.20 360.10 L 819.40 375.30 L 821.10 385.50 L 822.40 395.70 L 823.30 406.00 L 823.70 416.20 L 823.50 426.40 L 822.80 436.70 L 821.90 444.30 L 818.80 459.40 L 816.70 467.00 L 797.30 495.50 L 808.60 521.10 L 804.30 517.20 L 798.70 510.20 L 793.50 502.90 L 800.00 520.60 L 802.90 529.70 L 805.40 538.80 L 806.80 544.90 L 808.50 557.30 L 808.80 563.50 L 808.60 569.70 L 807.80 576.10 L 806.60 581.70 L 804.80 587.10 L 802.40 592.30 L 799.60 597.10 L 796.30 601.70 L 792.50 606.00 L 788.50 610.00 L 784.10 613.70 L 779.50 617.00 L 769.60 622.70 L 764.40 625.00 L 755.90 628.30 L 747.20 630.90 L 738.40 633.00 L 729.50 634.70 L 711.50 637.00 L 684.40 639.20 L 680.30 623.40 L 676.80 607.50 L 673.90 591.50 L 671.30 575.40 L 666.70 543.20 L 692.20 538.60 L 704.90 536.00 L 717.50 532.80 L 711.50 532.70 L 699.50 533.50 L 690.60 534.80 L 681.70 536.50 L 664.10 540.50 L 665.20 570.80 L 667.80 604.90 L 669.50 612.10 L 671.50 617.30 L 678.80 632.50 L 680.90 637.80 L 682.30 643.20 L 683.10 648.80 L 683.40 654.50 L 683.30 660.10 L 682.70 665.80 L 681.80 671.40 L 680.40 676.90 L 678.60 682.30 L 676.40 687.50 L 673.80 692.50 L 671.00 696.70 L 664.60 704.60 L 643.60 726.40 L 653.00 721.60 L 661.20 715.70 L 666.20 711.00 L 670.70 706.00 L 674.70 700.50 L 678.20 694.70 L 681.20 688.70 L 683.70 682.30 L 685.70 675.80 L 687.20 669.10 L 688.10 662.30 L 688.50 655.40 L 688.40 648.60 L 687.70 641.80 L 710.40 641.00 L 721.80 640.10 L 733.20 638.60 L 740.70 637.30 L 755.30 633.50 L 762.50 631.10 L 769.50 628.10 L 776.30 624.70 L 781.80 621.40 L 787.10 617.80 L 792.00 613.70 L 796.60 609.20 L 800.70 604.30 L 804.40 599.10 L 806.80 594.90 L 808.80 590.60 L 810.40 586.10 L 811.70 581.40 L 812.70 576.20 L 813.30 571.00 L 813.30 565.80 L 812.80 558.10 L 811.60 550.30 L 804.70 519.60 L 810.10 524.00 L 812.50 530.00 L 814.60 536.10 L 816.30 542.30 L 817.60 548.70 L 819.00 561.50 L 819.10 568.00 L 818.70 574.50 L 818.00 580.90 L 817.10 585.40 L 815.80 589.70 L 814.00 593.80 L 810.80 599.80 L 799.80 617.00 L 799.50 623.10 L 792.30 618.90 L 788.60 622.30 L 785.30 626.00 L 782.30 629.90 L 778.20 636.10 L 767.20 655.80 L 763.20 662.10 L 758.70 668.10 L 752.90 674.90 L 746.70 681.30 L 740.10 687.40 L 733.20 693.20 L 726.00 698.60 L 718.60 703.60 L 710.90 708.20 L 702.90 712.40 L 694.70 716.10 L 686.40 719.30 L 677.80 722.00 L 639.50 731.90 L 642.10 725.20 L 639.00 727.80 L 635.90 729.90 L 632.60 731.60 L 629.10 732.90 L 625.50 733.80 L 621.80 734.30 L 618.00 734.20 L 614.00 733.70 L 608.20 731.70 L 602.70 729.10 L 592.30 722.90 L 585.80 715.40 L 579.00 705.10 L 575.40 698.50 L 569.10 685.10 L 525.30 688.30 L 522.20 698.40 L 518.70 708.30 L 516.00 714.90 L 509.70 727.50 L 506.60 731.20 L 503.30 734.50 L 499.70 737.50 L 495.90 740.10 L 491.80 742.30 L 487.50 744.10 L 483.10 745.40 L 478.40 746.30 L 473.60 746.60 L 452.50 736.50 L 440.60 731.50 L 435.60 730.00 L 422.30 726.90 L 414.10 724.70 L 398.00 719.20 L 390.20 715.80 L 382.60 712.00 L 375.20 707.80 L 368.10 703.20 L 361.40 698.20 L 355.00 692.70 L 349.00 686.70 L 343.40 680.30 L 339.30 675.00 L 335.50 669.60 L 332.20 663.90 L 327.60 655.20 L 323.50 646.10 L 316.10 627.70 L 297.60 637.90 L 288.60 636.50 L 309.60 623.60 L 303.60 616.90 L 297.90 609.60 L 294.40 604.50 L 288.40 593.80 L 285.90 588.20 L 283.80 582.60 L 282.20 576.80 L 281.10 570.90 L 280.60 564.90 L 280.60 558.90 L 281.90 550.00 L 284.80 540.90 L 286.60 546.80 L 287.60 551.70 L 288.20 556.80 L 289.20 572.00 L 290.50 582.10 L 292.70 587.90 L 295.20 593.40 L 298.10 598.80 L 301.40 603.90 L 305.10 608.90 L 309.10 613.50 L 313.30 617.90 L 317.90 622.00 L 322.70 625.70 L 327.80 629.10 L 333.10 632.20 L 344.30 637.60 L 350.20 640.00 L 362.10 643.60 L 370.20 645.40 L 378.50 646.70 L 386.80 647.70 L 411.90 649.40 L 412.30 661.70 L 414.20 674.00 L 417.60 685.90 L 422.40 697.30 L 425.30 702.70 L 428.60 707.80 L 432.30 712.70 L 436.30 717.30 L 440.70 721.60 L 445.40 725.60 L 450.50 729.10 L 456.00 732.30 L 446.00 723.10 L 436.30 713.40 L 431.90 708.30 L 427.90 702.80 L 423.50 694.90 L 419.50 685.10 L 417.70 679.60 L 416.40 673.90 L 415.50 668.10 L 415.10 662.20 L 415.10 656.40 L 415.50 650.60 L 416.40 644.90 L 417.70 639.20 L 419.40 633.70 L 421.50 628.30 L 424.10 623.10 L 427.10 618.10 L 430.50 613.40 L 434.30 608.90 L 438.60 604.70 L 460.20 595.90 L 467.70 593.90 L 475.30 593.20 L 479.10 593.50 L 483.10 594.40 L 489.70 596.60 L 496.30 599.40 L 504.80 603.90 L 512.50 609.40 L 515.90 612.60 L 519.10 616.10 L 521.80 619.90 L 524.10 624.00 L 526.00 628.40 L 528.10 638.00 L 528.90 650.20 L 528.80 657.60 L 527.50 680.70 L 567.70 679.10 L 565.80 661.80 L 565.20 644.40 L 566.00 627.00 L 567.90 622.10 L 572.80 613.00 L 575.70 608.70 L 578.90 604.70 L 582.50 601.00 L 586.40 597.70 L 590.50 594.90 L 595.00 592.50 L 598.50 591.10 L 606.10 589.20 L 610.20 588.70 L 607.70 573.90 L 602.10 574.60 L 591.10 577.10 L 585.80 578.80 L 580.70 580.90 L 575.70 583.40 L 570.90 586.20 L 566.40 589.50 L 562.10 593.20 L 560.40 609.70 L 555.60 601.50 L 554.80 599.30 L 554.60 597.10 L 555.40 594.20 L 556.40 592.70 L 559.50 588.60 L 562.90 585.10 L 566.60 582.20 L 570.70 579.60 L 575.00 577.50 L 579.60 575.60 L 586.60 573.40 L 593.90 571.60 L 608.30 568.60 L 598.80 556.90 L 595.20 553.20 L 590.10 549.10 L 587.20 547.60 L 584.30 546.40 L 581.00 545.80 L 577.50 545.70 L 567.60 546.10 L 528.40 549.20 L 518.60 549.70 L 523.60 503.40 L 491.20 503.10 L 469.60 504.10 L 448.20 506.40 L 437.50 508.30 L 426.90 510.60 L 425.60 534.40 L 424.80 558.30 L 424.60 582.10 L 425.10 606.00 L 442.10 590.80 L 458.20 589.70 L 446.70 594.70 L 444.10 596.30 L 437.60 601.30 L 434.00 604.60 L 430.70 608.20 L 427.70 612.00 L 424.20 617.40 L 421.10 623.00 L 418.40 629.00 L 416.10 635.10 L 412.40 647.60 L 389.60 645.90 L 378.30 644.40 L 367.00 642.40 L 359.60 640.70 L 352.40 638.50 L 345.30 636.00 L 338.40 632.90 L 331.80 629.30 L 325.30 625.10 L 320.20 621.20 L 315.30 617.00 L 310.70 612.40 L 306.30 607.50 L 302.40 602.30 L 298.90 596.90 L 295.90 591.20 L 293.40 585.30 L 291.40 579.20 L 289.60 569.70 L 289.40 559.90 L 290.10 553.70 L 291.30 547.60 L 292.90 541.70 L 295.90 532.90 L 306.60 507.00 L 298.90 522.80 L 292.30 539.20 L 286.40 536.10 L 288.40 530.10 L 296.20 513.10 L 289.50 514.10 L 282.80 514.60 L 276.10 514.50 L 269.50 513.90 L 263.00 512.80 L 256.50 511.20 L 250.20 509.10 L 244.00 506.60 L 237.90 503.70 L 211.80 523.60 L 158.80 562.30 L 156.10 556.20 L 174.60 541.70 L 212.80 514.30 L 222.10 507.00 L 231.10 499.50 L 227.20 492.10 L 223.80 484.60 L 220.90 476.90 L 218.40 469.00 L 216.40 460.90 L 214.80 452.80 L 213.60 444.60 L 212.90 436.20 L 212.40 425.10 L 212.60 413.90 L 213.50 402.80 L 214.90 391.70 L 216.80 380.90 L 220.90 364.30 L 223.00 358.60 L 225.50 353.20 L 228.50 348.00 L 231.80 343.10 L 235.50 338.50 L 239.60 334.20 L 243.90 330.10 L 253.50 323.00 L 263.90 317.10 L 275.10 312.60 L 286.70 309.60 L 292.70 308.70 L 298.60 308.10 L 304.60 308.00 L 310.50 308.30 L 305.50 304.20 L 300.70 299.90 L 296.10 295.10 L 291.90 290.10 L 288.20 284.80 L 284.80 279.20 L 281.90 273.40 L 279.60 267.40 L 277.80 261.20 L 276.40 251.70 L 276.40 241.80 Z M 337.80 184.30 L 356.80 181.30 L 369.50 180.00 L 375.80 180.00 L 384.30 180.90 L 388.50 181.80 L 393.10 184.00 L 410.50 194.80 L 415.00 197.20 L 412.50 193.40 L 409.70 190.00 L 406.70 186.90 L 403.40 184.20 L 399.80 181.90 L 392.20 178.10 L 388.10 176.70 L 382.40 175.40 L 376.70 174.60 L 370.80 174.30 L 364.90 174.70 L 359.10 175.60 L 353.40 177.00 L 347.90 178.90 L 342.70 181.40 L 337.80 184.30 Z M 709.70 197.60 L 721.90 190.30 L 728.20 186.90 L 734.70 184.10 L 739.20 182.70 L 743.80 181.70 L 753.90 180.90 L 759.00 180.90 L 764.20 181.30 L 769.30 182.10 L 779.30 184.90 L 788.90 189.20 L 793.40 191.80 L 801.80 197.90 L 809.20 205.20 L 815.40 213.40 L 818.00 217.80 L 820.20 222.50 L 822.00 227.30 L 823.40 232.40 L 825.10 242.60 L 825.40 247.50 L 825.20 252.40 L 824.40 259.70 L 821.10 274.10 L 815.00 295.50 L 818.90 289.80 L 822.30 283.80 L 825.10 277.40 L 827.40 270.90 L 829.00 264.20 L 830.10 257.30 L 830.50 252.10 L 830.20 241.80 L 829.50 236.70 L 828.40 231.60 L 827.00 226.70 L 825.10 221.90 L 820.30 212.30 L 817.50 207.80 L 814.40 203.40 L 810.90 199.30 L 803.00 192.00 L 794.20 185.80 L 789.50 183.20 L 779.60 179.10 L 774.50 177.60 L 769.20 176.50 L 763.90 175.80 L 758.50 175.50 L 747.50 176.10 L 742.00 176.90 L 736.40 178.20 L 731.00 180.10 L 725.90 182.50 L 721.20 185.40 L 717.80 188.00 L 714.80 190.80 L 712.10 194.00 L 709.70 197.60 Z M 413.40 203.90 L 405.30 208.20 L 397.60 213.00 L 390.20 218.00 L 383.10 223.50 L 376.30 229.30 L 368.20 237.00 L 360.50 245.10 L 353.20 253.60 L 346.40 262.60 L 340.00 271.90 L 334.10 281.50 L 328.50 291.30 L 323.40 301.40 L 318.80 311.80 L 314.50 322.20 L 310.70 332.70 L 307.30 343.40 L 303.60 356.90 L 300.30 370.70 L 296.80 389.30 L 295.50 398.60 L 294.70 408.00 L 294.40 417.40 L 294.50 426.70 L 295.00 433.70 L 297.20 447.70 L 298.80 454.60 L 300.70 460.50 L 302.90 466.10 L 305.50 471.40 L 308.50 476.50 L 311.90 481.40 L 319.50 490.50 L 323.70 494.70 L 329.80 499.90 L 336.20 504.60 L 343.00 508.80 L 350.10 512.60 L 357.40 515.80 L 365.00 518.50 L 372.70 520.80 L 380.50 522.40 L 388.30 523.50 L 382.30 529.20 L 387.60 534.30 L 391.30 534.40 L 398.40 535.70 L 414.10 540.90 L 419.40 542.30 L 416.30 540.00 L 412.90 538.10 L 409.30 536.60 L 394.20 532.20 L 390.60 530.80 L 391.20 524.40 L 418.30 529.20 L 418.90 526.50 L 420.60 513.70 L 421.40 510.70 L 422.60 508.00 L 424.30 505.70 L 425.70 504.40 L 429.60 502.70 L 443.20 500.30 L 456.90 498.50 L 470.70 497.40 L 498.30 496.20 L 515.30 496.20 L 522.20 496.90 L 525.60 497.70 L 528.70 499.00 L 531.40 500.60 L 532.90 501.90 L 534.00 503.50 L 534.80 505.30 L 535.20 507.30 L 535.20 509.60 L 534.60 512.50 L 540.10 502.00 L 552.40 500.30 L 577.00 497.80 L 595.50 496.70 L 632.70 495.80 L 653.80 495.80 L 656.20 496.60 L 658.50 497.70 L 665.30 501.80 L 664.90 530.90 L 701.90 525.30 L 722.20 521.30 L 738.20 517.00 L 746.10 514.30 L 753.80 511.30 L 768.00 504.40 L 774.40 500.70 L 780.60 496.60 L 786.50 492.00 L 792.00 487.00 L 796.90 481.50 L 800.30 477.10 L 803.30 472.50 L 805.90 467.50 L 810.40 455.80 L 812.20 449.30 L 813.70 442.70 L 814.60 436.10 L 815.40 427.20 L 815.70 418.20 L 815.40 409.20 L 813.50 391.20 L 812.10 382.20 L 807.00 355.70 L 803.80 343.70 L 800.20 331.70 L 796.20 319.80 L 791.60 308.00 L 786.50 296.50 L 780.90 285.20 L 776.30 276.90 L 766.30 261.00 L 760.90 253.30 L 755.10 246.00 L 748.90 238.90 L 742.50 232.20 L 735.70 225.70 L 728.60 219.70 L 721.10 214.00 L 713.30 208.70 L 705.10 203.80 L 695.40 199.30 L 685.60 195.50 L 675.60 192.10 L 665.40 189.20 L 655.10 186.70 L 644.70 184.60 L 623.80 181.50 L 597.30 179.00 L 581.50 178.00 L 567.30 177.70 L 538.70 178.00 L 524.30 178.70 L 510.10 179.90 L 495.80 181.50 L 481.70 183.60 L 467.70 186.40 L 453.80 189.70 L 443.50 192.60 L 433.40 195.90 L 423.30 199.70 L 413.40 203.90 Z M 297.80 282.10 L 296.20 262.90 L 296.20 250.00 L 296.80 243.60 L 297.80 237.30 L 299.40 231.10 L 303.10 221.20 L 304.80 217.60 L 306.90 214.20 L 310.40 209.50 L 318.50 200.60 L 331.30 188.00 L 326.60 191.00 L 322.30 194.30 L 318.20 197.80 L 311.10 205.80 L 305.20 214.60 L 302.70 219.30 L 299.80 225.80 L 297.60 232.50 L 295.80 239.50 L 294.70 246.50 L 294.20 253.70 L 294.20 260.90 L 294.80 268.00 L 296.00 275.10 L 297.80 282.10 Z M 233.30 355.80 L 230.00 363.80 L 227.30 372.10 L 225.10 380.50 L 223.40 389.00 L 222.10 397.50 L 221.30 406.20 L 220.80 423.70 L 221.10 432.40 L 222.10 445.40 L 223.70 458.30 L 224.90 464.80 L 227.80 476.00 L 231.20 484.50 L 233.40 488.40 L 236.00 492.00 L 238.90 495.40 L 244.10 499.50 L 247.10 501.20 L 255.50 504.30 L 260.70 505.80 L 271.70 507.80 L 277.20 508.20 L 282.70 508.20 L 288.20 507.60 L 293.40 506.50 L 298.50 504.70 L 302.00 503.00 L 305.40 500.80 L 308.60 498.10 L 311.60 495.00 L 306.40 487.30 L 298.40 474.00 L 293.20 462.80 L 291.10 457.00 L 289.50 451.00 L 287.40 436.40 L 286.50 419.80 L 286.70 411.50 L 287.40 400.50 L 288.60 389.50 L 290.40 378.50 L 292.70 367.60 L 298.40 346.00 L 303.40 330.00 L 308.90 314.40 L 301.50 315.00 L 294.10 316.00 L 286.50 317.50 L 279.10 319.40 L 272.00 321.90 L 265.10 324.90 L 260.00 327.60 L 255.30 330.50 L 250.80 333.80 L 246.60 337.40 L 242.70 341.40 L 239.20 345.80 L 236.10 350.50 L 233.30 355.80 Z M 547.40 508.00 L 549.60 511.30 L 551.30 514.70 L 552.50 518.10 L 553.30 521.70 L 553.90 529.20 L 553.60 534.90 L 552.80 540.60 L 573.60 539.30 L 578.80 539.40 L 583.80 540.20 L 587.00 541.20 L 590.10 542.60 L 596.90 547.50 L 603.90 554.30 L 607.10 558.10 L 609.80 562.00 L 612.20 566.20 L 614.10 570.60 L 615.50 575.10 L 616.30 579.80 L 616.50 583.30 L 616.30 586.90 L 615.70 590.50 L 614.60 594.20 L 623.00 595.80 L 639.50 600.00 L 647.60 602.70 L 655.50 605.90 L 663.30 609.50 L 661.80 597.70 L 660.10 574.10 L 658.00 503.10 L 633.30 502.80 L 602.60 503.80 L 584.20 505.00 L 547.40 508.00 Z M 528.80 518.80 L 525.60 542.80 L 546.30 541.20 L 546.90 527.10 L 546.40 513.00 L 528.80 518.80 Z M 575.50 620.20 L 574.00 634.80 L 575.70 629.70 L 577.80 624.80 L 583.00 615.60 L 589.20 607.10 L 600.00 595.30 L 596.20 596.90 L 592.70 598.90 L 589.60 601.30 L 586.80 603.90 L 581.70 610.00 L 575.50 620.20 Z M 512.30 615.30 L 514.40 622.20 L 516.00 629.30 L 517.20 636.40 L 518.00 643.50 L 518.40 658.00 L 518.00 665.20 L 516.10 679.50 L 512.70 693.50 L 510.50 700.40 L 507.80 707.20 L 501.60 720.10 L 497.90 726.40 L 496.10 728.90 L 494.10 730.90 L 489.40 733.80 L 484.10 735.60 L 475.60 736.70 L 467.10 737.00 L 467.40 740.40 L 478.70 739.20 L 486.20 737.70 L 489.70 736.50 L 494.10 734.00 L 499.00 729.30 L 504.00 722.70 L 507.10 717.30 L 509.70 711.50 L 511.90 705.60 L 517.30 687.60 L 519.20 678.60 L 521.90 663.00 L 522.70 650.40 L 522.60 644.20 L 521.80 638.10 L 520.60 632.10 L 519.20 627.70 L 517.40 623.50 L 515.10 619.30 L 512.30 615.30 Z" fill="#301925" fill-rule="nonzero" node-id="70" stroke="none" target-height="582.6" target-width="689.6" target-x="156.1" target-y="164"></path><path d="M 337.80 184.30 L 342.70 181.40 L 347.90 178.90 L 353.40 177.00 L 359.10 175.60 L 364.90 174.70 L 370.80 174.30 L 376.70 174.60 L 382.40 175.40 L 388.10 176.70 L 392.20 178.10 L 399.80 181.90 L 403.40 184.20 L 406.70 186.90 L 409.70 190.00 L 412.50 193.40 L 415.00 197.20 L 410.50 194.80 L 393.10 184.00 L 388.50 181.80 L 384.30 180.90 L 375.80 180.00 L 369.50 180.00 L 356.80 181.30 L 337.80 184.30 Z" fill="#573b47" fill-rule="nonzero" node-id="72" stroke="none" target-height="22.899994" target-width="77.20001" target-x="337.8" target-y="174.3"></path><path d="M 709.70 197.60 L 712.10 194.00 L 714.80 190.80 L 717.80 188.00 L 721.20 185.40 L 725.90 182.50 L 731.00 180.10 L 736.40 178.20 L 742.00 176.90 L 747.50 176.10 L 758.50 175.50 L 763.90 175.80 L 769.20 176.50 L 774.50 177.60 L 784.60 180.90 L 794.20 185.80 L 798.70 188.70 L 807.10 195.50 L 814.40 203.40 L 817.50 207.80 L 820.30 212.30 L 822.80 217.10 L 825.10 221.90 L 827.00 226.70 L 828.40 231.60 L 830.20 241.80 L 830.50 252.10 L 830.10 257.30 L 829.00 264.20 L 827.40 270.90 L 825.10 277.40 L 822.30 283.80 L 818.90 289.80 L 815.00 295.50 L 821.10 274.10 L 824.40 259.70 L 825.20 252.40 L 825.40 247.50 L 825.10 242.60 L 823.40 232.40 L 822.00 227.30 L 820.20 222.50 L 818.00 217.80 L 815.40 213.40 L 809.20 205.20 L 805.60 201.40 L 801.80 197.90 L 793.40 191.80 L 784.20 186.90 L 774.40 183.40 L 769.30 182.10 L 764.20 181.30 L 759.00 180.90 L 753.90 180.90 L 743.80 181.70 L 739.20 182.70 L 734.70 184.10 L 728.20 186.90 L 721.90 190.30 L 709.70 197.60 Z" fill="#5b424c" fill-rule="nonzero" node-id="74" stroke="none" target-height="120" target-width="120.79999" target-x="709.7" target-y="175.5"></path><path d="M 233.30 355.80 L 236.10 350.50 L 239.20 345.80 L 242.70 341.40 L 246.60 337.40 L 250.80 333.80 L 255.30 330.50 L 260.00 327.60 L 265.10 324.90 L 272.00 321.90 L 279.10 319.40 L 286.50 317.50 L 294.10 316.00 L 301.50 315.00 L 308.90 314.40 L 303.40 330.00 L 298.40 346.00 L 292.70 367.60 L 290.40 378.50 L 288.60 389.50 L 287.40 400.50 L 286.70 411.50 L 286.50 419.80 L 287.40 436.40 L 289.50 451.00 L 291.10 457.00 L 293.20 462.80 L 298.40 474.00 L 306.40 487.30 L 311.60 495.00 L 308.60 498.10 L 305.40 500.80 L 302.00 503.00 L 298.50 504.70 L 293.40 506.50 L 288.20 507.60 L 282.70 508.20 L 277.20 508.20 L 271.70 507.80 L 260.70 505.80 L 255.50 504.30 L 247.10 501.20 L 244.10 499.50 L 238.90 495.40 L 236.00 492.00 L 233.40 488.40 L 231.20 484.50 L 227.80 476.00 L 224.90 464.80 L 223.70 458.30 L 222.10 445.40 L 221.10 432.40 L 220.80 423.70 L 221.30 406.20 L 222.10 397.50 L 223.40 389.00 L 225.10 380.50 L 227.30 372.10 L 230.00 363.80 L 233.30 355.80 Z" fill="#cc6f5f" fill-rule="nonzero" node-id="76" stroke="none" target-height="193.80002" target-width="90.8" target-x="220.8" target-y="314.4"></path><path d="M 530.80 404.80 L 531.40 401.60 L 532.20 400.40 L 533.70 399.00 L 535.70 397.90 L 540.30 396.60 L 544.80 396.10 L 551.50 395.90 L 558.20 396.20 L 567.00 397.80 L 571.40 399.10 L 572.40 401.40 L 573.00 403.40 L 573.10 405.20 L 572.20 408.90 L 571.30 410.60 L 569.40 412.90 L 567.10 415.20 L 557.10 422.50 L 557.80 425.70 L 558.90 428.90 L 560.40 431.80 L 564.30 437.10 L 566.70 439.30 L 569.30 441.20 L 572.10 442.70 L 575.20 443.80 L 578.40 444.30 L 581.70 444.40 L 587.70 443.50 L 591.80 441.70 L 594.30 439.60 L 596.50 437.20 L 604.10 425.70 L 606.40 423.20 L 608.90 421.00 L 609.10 425.10 L 608.60 428.90 L 607.60 432.60 L 605.90 436.00 L 603.90 439.20 L 601.40 442.10 L 598.50 444.70 L 595.30 446.90 L 591.90 448.70 L 588.20 450.00 L 584.50 450.90 L 580.70 451.20 L 576.80 451.00 L 573.10 450.20 L 566.80 447.60 L 564.50 446.20 L 562.50 444.50 L 559.80 441.50 L 553.00 431.60 L 550.90 434.90 L 548.50 437.90 L 545.80 440.70 L 542.80 443.20 L 539.60 445.30 L 536.20 447.00 L 532.60 448.40 L 529.00 449.30 L 525.20 449.70 L 521.40 449.70 L 517.60 449.10 L 513.60 448.00 L 508.00 445.30 L 503.30 441.40 L 500.60 438.20 L 498.50 434.70 L 496.90 430.90 L 495.80 426.90 L 495.30 422.90 L 495.40 418.70 L 497.60 421.50 L 505.50 434.20 L 507.60 437.00 L 509.20 438.70 L 512.90 441.50 L 515.00 442.40 L 517.50 443.00 L 523.60 443.50 L 526.70 443.30 L 529.60 442.60 L 532.40 441.50 L 537.50 438.30 L 540.90 435.30 L 543.90 431.80 L 546.60 427.90 L 548.90 423.90 L 538.20 415.70 L 535.10 412.60 L 533.40 410.30 L 531.90 407.70 L 530.80 404.80 Z" fill="#381825" fill-rule="nonzero" node-id="78" stroke="none" target-height="55.30002" target-width="113.79999" target-x="495.3" target-y="395.9"></path><path d="M 329.80 430.60 L 332.70 427.20 L 335.90 424.10 L 339.30 421.50 L 346.80 417.20 L 350.80 415.50 L 357.10 413.40 L 363.50 411.70 L 376.50 409.30 L 380.60 418.50 L 383.20 422.80 L 386.30 426.70 L 388.70 429.00 L 391.30 431.10 L 394.20 432.80 L 398.60 435.00 L 403.00 436.70 L 412.20 439.00 L 418.50 439.70 L 424.90 439.80 L 431.20 439.20 L 437.50 438.10 L 443.60 436.40 L 449.60 434.20 L 455.40 431.40 L 460.90 428.20 L 466.00 424.40 L 464.90 437.90 L 462.80 452.00 L 461.70 456.60 L 458.60 465.30 L 456.50 469.30 L 454.10 473.00 L 451.20 476.40 L 446.10 480.70 L 439.60 483.90 L 428.60 486.90 L 417.20 489.40 L 409.50 490.60 L 401.90 491.40 L 394.10 491.80 L 386.40 491.70 L 378.80 491.10 L 371.30 489.80 L 365.80 488.50 L 360.30 486.70 L 355.00 484.50 L 345.30 479.40 L 341.30 476.40 L 337.60 472.80 L 334.30 468.80 L 331.60 464.60 L 329.30 460.00 L 328.00 456.40 L 326.50 449.10 L 326.30 445.30 L 326.50 441.60 L 327.10 437.90 L 328.20 434.30 L 329.80 430.60 Z M 353.90 430.60 L 351.20 432.00 L 348.50 435.00 L 347.60 437.10 L 347.40 438.50 L 348.10 440.90 L 349.00 441.80 L 350.40 442.40 L 352.60 442.80 L 355.00 443.70 L 357.30 444.10 L 359.60 443.90 L 361.80 443.30 L 363.70 442.30 L 365.40 440.90 L 366.80 439.10 L 367.70 436.90 L 368.10 434.30 L 365.70 431.60 L 364.20 430.60 L 360.80 429.40 L 357.30 429.40 L 353.90 430.60 Z" fill="#f9cfcf" fill-rule="nonzero" node-id="80" stroke="none" target-height="82.5" target-width="139.70001" target-x="326.3" target-y="409.3"></path><path d="M 731.40 411.30 L 736.40 411.00 L 741.50 411.20 L 746.60 411.80 L 751.70 412.90 L 756.50 414.40 L 761.20 416.40 L 765.70 418.90 L 769.80 421.80 L 773.60 425.30 L 775.70 428.00 L 778.60 433.80 L 779.60 436.80 L 780.30 441.00 L 780.40 445.30 L 780.00 449.60 L 779.00 453.80 L 777.60 457.80 L 775.60 461.70 L 773.20 465.40 L 770.30 468.70 L 761.90 475.60 L 756.50 479.20 L 750.90 482.30 L 745.10 484.90 L 739.00 487.10 L 732.90 488.80 L 726.60 490.00 L 720.20 490.80 L 713.70 491.20 L 707.30 491.10 L 700.80 490.70 L 694.30 489.80 L 681.70 486.90 L 669.50 482.50 L 663.60 479.70 L 658.00 476.70 L 652.60 473.20 L 647.50 469.50 L 643.90 461.80 L 640.70 453.70 L 639.00 448.20 L 637.70 442.60 L 636.80 436.90 L 636.60 432.60 L 637.20 424.20 L 638.10 419.90 L 642.50 424.10 L 647.30 427.80 L 652.50 431.00 L 658.00 433.70 L 663.80 435.90 L 669.80 437.60 L 675.90 438.70 L 682.00 439.30 L 688.20 439.30 L 694.30 438.70 L 700.10 437.60 L 705.80 435.80 L 709.90 434.00 L 713.80 431.90 L 717.40 429.40 L 720.80 426.60 L 723.90 423.40 L 726.70 419.80 L 729.20 415.80 L 731.40 411.30 Z M 745.50 434.40 L 746.40 436.70 L 747.50 438.40 L 748.70 439.70 L 752.00 441.40 L 756.90 442.00 L 766.10 441.30 L 762.10 436.10 L 759.60 433.80 L 756.80 431.90 L 754.90 431.10 L 753.00 430.70 L 751.10 430.70 L 749.30 431.20 L 747.40 432.40 L 745.50 434.40 Z" fill="#fad1d4" fill-rule="nonzero" node-id="82" stroke="none" target-height="80.20001" target-width="143.80005" target-x="636.6" target-y="411"></path><path d="M 353.90 430.60 L 357.30 429.40 L 360.80 429.40 L 364.20 430.60 L 365.70 431.60 L 368.10 434.30 L 367.70 436.90 L 366.80 439.10 L 365.40 440.90 L 363.70 442.30 L 361.80 443.30 L 359.60 443.90 L 357.30 444.10 L 355.00 443.70 L 352.60 442.80 L 350.40 442.40 L 349.00 441.80 L 348.10 440.90 L 347.40 438.50 L 347.60 437.10 L 348.50 435.00 L 351.20 432.00 L 353.90 430.60 Z" fill="#faeeeb" fill-rule="nonzero" node-id="84" stroke="none" target-height="14.700012" target-width="20.700012" target-x="347.4" target-y="429.4"></path><path d="M 745.50 434.40 L 747.40 432.40 L 749.30 431.20 L 751.10 430.70 L 753.00 430.70 L 754.90 431.10 L 756.80 431.90 L 759.60 433.80 L 762.10 436.10 L 766.10 441.30 L 756.80 442.00 L 752.00 441.40 L 748.70 439.70 L 747.50 438.40 L 746.40 436.70 L 745.50 434.40 Z" fill="#f7eeec" fill-rule="nonzero" node-id="86" stroke="none" target-height="11.299988" target-width="20.599976" target-x="745.5" target-y="430.7"></path><path d="M 797.30 495.50 L 816.70 467.00 L 881.30 515.30 L 913.40 539.60 L 945.30 564.30 L 937.60 563.70 L 929.80 563.60 L 922.10 564.00 L 910.60 565.60 L 899.50 568.70 L 894.20 570.80 L 889.00 573.30 L 884.10 576.40 L 879.30 579.90 L 874.40 583.70 L 870.00 587.80 L 865.90 592.30 L 862.20 597.10 L 858.90 602.10 L 856.00 607.40 L 853.40 612.90 L 851.20 618.60 L 848.80 626.30 L 846.90 634.20 L 845.60 642.20 L 822.60 629.80 L 799.80 617.00 L 810.80 599.80 L 814.00 593.80 L 815.80 589.70 L 817.10 585.40 L 818.00 580.90 L 818.70 574.50 L 819.10 568.00 L 819.00 561.50 L 817.60 548.70 L 816.30 542.30 L 814.60 536.10 L 812.50 530.00 L 810.10 524.00 L 797.30 495.50 Z" fill="#f89570" fill-rule="nonzero" node-id="88" stroke="none" target-height="175.20001" target-width="148" target-x="797.3" target-y="467"></path><path d="M 426.90 510.60 L 437.50 508.30 L 448.20 506.40 L 469.60 504.10 L 491.20 503.10 L 523.60 503.40 L 519.30 543.00 L 509.30 544.30 L 504.40 545.10 L 499.60 546.40 L 493.50 549.00 L 490.70 550.90 L 473.70 563.20 L 457.20 576.20 L 452.00 580.90 L 438.00 594.80 L 425.10 606.00 L 424.60 582.10 L 424.80 558.30 L 425.60 534.40 L 426.90 510.60 Z" fill="#c7715d" fill-rule="nonzero" node-id="90" stroke="none" target-height="102.899994" target-width="98.99997" target-x="424.6" target-y="503.1"></path><path d="M 547.40 508.00 L 584.20 505.00 L 602.60 503.80 L 633.30 502.80 L 658.00 503.10 L 660.10 574.10 L 661.80 597.70 L 663.30 609.50 L 655.50 605.90 L 647.60 602.70 L 639.50 600.00 L 623.00 595.80 L 614.60 594.20 L 615.70 590.50 L 616.30 586.90 L 616.50 583.30 L 616.30 579.80 L 615.50 575.10 L 614.10 570.60 L 612.20 566.20 L 609.80 562.00 L 607.10 558.00 L 603.90 554.30 L 596.90 547.50 L 590.10 542.60 L 587.00 541.20 L 583.80 540.20 L 578.80 539.40 L 573.60 539.30 L 552.80 540.60 L 553.60 534.90 L 553.90 529.20 L 553.30 521.70 L 552.50 518.10 L 551.30 514.70 L 549.60 511.30 L 547.40 508.00 Z" fill="#bb6f5e" fill-rule="nonzero" node-id="92" stroke="none" target-height="106.70001" target-width="115.89996" target-x="547.4" target-y="502.8"></path><path d="M 528.80 518.80 L 546.40 513.00 L 546.90 527.10 L 546.30 541.20 L 525.60 542.80 L 528.80 518.80 Z" fill="#b46c60" fill-rule="nonzero" node-id="94" stroke="none" target-height="29.799988" target-width="21.300049" target-x="525.6" target-y="513"></path><path d="M 490.70 550.90 L 493.50 549.00 L 499.60 546.40 L 504.40 545.10 L 509.30 544.30 L 519.30 543.00 L 518.60 549.70 L 528.40 549.20 L 567.60 546.10 L 577.50 545.70 L 581.00 545.80 L 584.30 546.40 L 587.20 547.60 L 592.70 551.00 L 598.80 556.90 L 608.30 568.60 L 586.60 573.40 L 579.60 575.60 L 575.00 577.50 L 570.70 579.60 L 566.60 582.20 L 562.90 585.10 L 559.50 588.60 L 555.40 594.20 L 554.60 597.10 L 554.80 599.30 L 556.70 603.60 L 560.40 609.70 L 562.10 593.20 L 566.40 589.50 L 570.90 586.20 L 575.70 583.40 L 580.70 580.90 L 585.80 578.80 L 591.10 577.10 L 602.10 574.60 L 607.70 573.90 L 610.20 588.70 L 602.20 589.90 L 595.00 592.50 L 590.50 594.90 L 586.40 597.70 L 582.50 601.00 L 578.90 604.70 L 575.70 608.70 L 572.80 613.00 L 570.20 617.50 L 566.00 627.00 L 562.20 621.30 L 561.10 634.60 L 560.40 647.90 L 559.90 674.50 L 528.10 672.20 L 528.80 657.60 L 528.90 650.20 L 528.60 642.80 L 527.20 633.20 L 526.00 628.40 L 524.10 624.00 L 521.80 619.90 L 519.10 616.10 L 515.90 612.60 L 512.50 609.40 L 504.80 603.90 L 496.30 599.40 L 489.70 596.60 L 483.10 594.40 L 479.10 593.50 L 475.30 593.20 L 471.50 593.30 L 467.70 593.90 L 460.20 595.90 L 438.60 604.70 L 441.60 598.20 L 444.10 596.30 L 446.70 594.70 L 458.20 589.70 L 442.10 590.80 L 447.00 585.70 L 457.20 576.20 L 465.30 569.60 L 490.70 550.90 Z" fill="#b0685d" fill-rule="nonzero" node-id="96" stroke="none" target-height="131.5" target-width="171.6" target-x="438.6" target-y="543"></path><path d="M 854.10 638.40 L 854.60 633.10 L 855.40 628.00 L 856.70 623.00 L 858.30 618.00 L 862.70 608.60 L 868.30 599.90 L 872.70 594.50 L 877.50 589.60 L 882.80 585.10 L 887.00 582.00 L 896.00 576.90 L 905.60 573.10 L 910.70 571.80 L 915.80 570.90 L 927.50 570.10 L 934.30 570.10 L 941.00 570.60 L 947.70 571.70 L 952.00 572.80 L 956.10 574.30 L 960.10 576.10 L 963.80 578.40 L 967.20 581.20 L 970.30 584.60 L 973.40 588.80 L 976.10 593.20 L 978.30 597.80 L 980.00 602.60 L 981.30 607.60 L 982.20 612.60 L 982.60 617.70 L 982.70 622.90 L 982.30 628.10 L 981.50 633.20 L 980.20 638.20 L 978.60 643.10 L 976.60 647.80 L 974.20 652.30 L 971.50 656.60 L 968.30 660.60 L 964.80 664.30 L 960.90 667.60 L 956.70 670.50 L 942.70 678.30 L 940.60 679.90 L 939.00 681.70 L 938.20 683.10 L 937.70 684.70 L 936.70 709.20 L 936.30 731.60 L 935.30 821.60 L 877.00 822.10 L 818.70 822.10 L 643.80 821.70 L 165.10 822.40 L 164.40 800.40 L 164.00 778.50 L 163.60 712.60 L 163.00 687.30 L 162.40 684.50 L 161.50 682.10 L 160.20 679.80 L 156.80 675.90 L 153.60 673.50 L 150.00 671.20 L 138.50 664.80 L 134.90 662.40 L 130.80 658.60 L 125.80 652.20 L 123.10 647.60 L 120.80 642.70 L 119.20 637.50 L 118.00 632.20 L 117.40 626.80 L 117.30 621.30 L 117.70 615.90 L 118.70 610.60 L 120.10 605.30 L 122.10 600.30 L 124.60 595.60 L 126.90 592.20 L 132.20 586.20 L 135.30 583.50 L 141.30 580.90 L 147.60 578.90 L 154.20 577.40 L 160.80 576.50 L 167.60 576.00 L 174.40 576.10 L 181.10 576.70 L 187.80 577.80 L 194.30 579.50 L 200.70 581.60 L 206.70 584.30 L 212.50 587.50 L 216.60 590.30 L 224.10 596.70 L 227.50 600.30 L 230.50 604.20 L 233.30 608.40 L 235.70 612.90 L 237.70 617.80 L 240.10 625.60 L 242.00 633.50 L 243.20 641.40 L 244.40 657.40 L 244.20 677.70 L 243.20 702.10 L 243.00 722.40 L 244.30 738.50 L 246.80 745.20 L 250.70 751.20 L 254.00 754.70 L 257.70 757.80 L 261.80 760.50 L 266.10 762.60 L 270.70 764.20 L 275.30 765.20 L 285.40 766.50 L 295.60 767.20 L 305.80 767.50 L 478.00 766.90 L 761.50 768.20 L 794.30 767.80 L 805.30 767.30 L 819.70 765.60 L 826.90 764.30 L 830.60 763.40 L 834.20 762.10 L 837.50 760.30 L 840.70 758.20 L 843.60 755.80 L 846.20 753.10 L 848.60 750.10 L 850.50 746.90 L 852.20 743.50 L 853.40 740.00 L 854.20 736.30 L 854.50 732.50 L 854.80 716.80 L 853.70 669.70 L 853.60 654.00 L 854.10 638.40 Z" fill="#fa9771" fill-rule="nonzero" node-id="98" stroke="none" target-height="252.30005" target-width="865.4" target-x="117.3" target-y="570.1"></path><path d="M 562.20 621.30 L 566.00 627.00 L 565.50 635.70 L 565.30 653.10 L 566.60 670.40 L 567.70 679.10 L 527.50 680.70 L 528.10 672.20 L 559.90 674.50 L 560.40 647.90 L 561.10 634.60 L 562.20 621.30 Z" fill="#c37568" fill-rule="nonzero" node-id="100" stroke="none" target-height="59.400024" target-width="40.200012" target-x="527.5" target-y="621.3"></path><path d="M 758.70 668.10 L 763.20 662.10 L 767.20 655.80 L 778.20 636.10 L 782.30 629.90 L 785.30 626.00 L 788.60 622.30 L 792.30 618.90 L 822.80 637.20 L 846.80 650.20 L 846.90 667.60 L 848.10 719.70 L 848.00 727.60 L 847.20 735.60 L 846.40 739.40 L 845.00 743.10 L 842.20 747.50 L 837.10 752.20 L 833.70 754.40 L 830.10 756.20 L 826.40 757.50 L 818.40 759.30 L 806.10 760.50 L 793.90 761.10 L 748.10 761.20 L 610.60 760.30 L 613.30 753.50 L 601.50 749.40 L 605.40 746.90 L 609.30 744.90 L 613.50 743.30 L 619.90 741.50 L 626.50 740.20 L 639.90 738.50 L 614.00 733.70 L 618.00 734.20 L 621.80 734.30 L 625.50 733.80 L 629.10 732.90 L 632.60 731.60 L 635.90 729.90 L 639.00 727.80 L 642.10 725.20 L 639.50 731.90 L 677.80 722.00 L 686.40 719.30 L 694.70 716.10 L 702.90 712.40 L 710.90 708.20 L 718.60 703.60 L 726.00 698.60 L 733.20 693.20 L 740.10 687.40 L 746.70 681.30 L 752.90 674.90 L 758.70 668.10 Z" fill="#fa966e" fill-rule="nonzero" node-id="102" stroke="none" target-height="142.29999" target-width="246.59998" target-x="601.5" target-y="618.9"></path><path d="M 297.60 637.90 L 316.10 627.70 L 323.50 646.10 L 327.60 655.20 L 332.20 663.90 L 335.50 669.60 L 339.30 675.00 L 343.40 680.30 L 349.00 686.70 L 355.00 692.70 L 361.40 698.20 L 368.10 703.20 L 375.20 707.80 L 382.60 712.00 L 390.20 715.80 L 398.00 719.20 L 414.10 724.70 L 422.30 726.90 L 435.60 730.00 L 440.60 731.50 L 452.50 736.50 L 473.60 746.60 L 469.80 749.50 L 465.80 751.80 L 461.70 753.50 L 452.90 755.80 L 448.40 756.60 L 427.60 758.70 L 420.80 759.80 L 354.00 761.00 L 331.70 761.10 L 283.30 760.30 L 275.50 759.00 L 271.70 757.80 L 264.60 754.40 L 261.40 752.10 L 258.60 749.60 L 256.00 746.70 L 254.00 743.50 L 252.40 739.90 L 251.30 736.00 L 250.50 728.00 L 250.00 712.10 L 251.60 664.20 L 274.90 651.70 L 297.60 637.90 Z" fill="#fa956d" fill-rule="nonzero" node-id="104" stroke="none" target-height="133.39996" target-width="223.6" target-x="250" target-y="627.7"></path><path d="M 525.30 688.30 L 569.10 685.10 L 575.40 698.50 L 579.00 705.10 L 585.80 715.40 L 592.30 722.90 L 578.60 724.60 L 564.80 725.80 L 551.10 726.60 L 530.40 727.30 L 509.70 727.50 L 513.00 721.20 L 518.70 708.30 L 522.20 698.40 L 525.30 688.30 Z" fill="#eee9e9" fill-rule="nonzero" node-id="106" stroke="none" target-height="42.400024" target-width="82.599976" target-x="509.7" target-y="685.1"></path><path d="M 509.70 727.50 L 530.40 727.30 L 551.10 726.60 L 564.80 725.80 L 578.60 724.60 L 592.30 722.90 L 602.70 729.10 L 608.20 731.70 L 614.00 733.70 L 639.90 738.50 L 626.50 740.20 L 619.90 741.50 L 613.50 743.30 L 609.30 744.90 L 605.40 746.90 L 601.50 749.40 L 613.30 753.50 L 610.60 760.30 L 515.70 759.80 L 420.80 759.80 L 427.50 758.70 L 448.40 756.60 L 457.40 754.80 L 461.70 753.50 L 465.80 751.80 L 469.80 749.50 L 473.60 746.60 L 478.40 746.30 L 483.10 745.40 L 487.50 744.10 L 491.80 742.30 L 495.90 740.10 L 499.70 737.50 L 503.30 734.50 L 506.60 731.20 L 509.70 727.50 Z" fill="#faa583" fill-rule="nonzero" node-id="108" stroke="none" target-height="37.399963" target-width="219.10004" target-x="420.8" target-y="722.9"></path><path d="M 190.40 829.00 L 232.10 828.80 L 226.50 850.70 L 215.40 852.20 L 209.90 852.50 L 204.40 852.20 L 200.80 851.60 L 197.30 850.50 L 193.80 849.00 L 192.30 845.90 L 191.40 842.60 L 191.00 839.20 L 190.40 829.00 Z" fill="#a06057" fill-rule="nonzero" node-id="112" stroke="none" target-height="23.700012" target-width="41.700012" target-x="190.4" target-y="828.8"></path><path d="M 865.20 829.40 L 879.70 829.00 L 894.20 829.10 L 908.60 829.70 L 905.90 841.40 L 904.50 845.00 L 903.20 847.30 L 901.70 849.10 L 899.90 850.70 L 897.80 851.80 L 895.20 852.50 L 888.20 853.30 L 884.60 853.30 L 881.40 852.70 L 878.20 851.60 L 875.40 850.00 L 872.90 848.00 L 870.70 845.60 L 868.80 842.90 L 867.30 839.80 L 866.20 836.50 L 865.50 833.10 L 865.20 829.40 Z" fill="#a0655c" fill-rule="nonzero" node-id="114" stroke="none" target-height="24.299988" target-width="43.399963" target-x="865.2" target-y="829"></path></svg>